{"glyphs":{"0":{"ha":749,"x_min":58,"x_max":692,"o":"m 365 -16 q 139 108 220 -16 q 58 467 58 232 q 143 857 58 724 q 387 989 227 989 q 692 490 692 989 q 606 114 692 243 q 365 -16 519 -16 m 380 895 q 172 472 172 895 q 376 77 172 77 q 578 479 578 77 q 380 895 578 895 z "},"1":{"ha":749,"x_min":155,"x_max":491,"o":"m 491 0 l 380 0 l 380 840 q 342 811 367 827 q 287 778 317 794 q 221 747 256 762 q 155 725 187 733 l 155 838 q 232 865 191 848 q 313 904 273 882 q 388 948 353 925 q 449 994 423 972 l 491 994 l 491 0 z "},"2":{"ha":749,"x_min":74,"x_max":674,"o":"m 524 718 q 510 795 524 762 q 472 851 496 829 q 415 884 448 873 q 345 895 382 895 q 281 886 312 895 q 220 861 250 877 q 163 824 191 846 q 112 776 136 802 l 112 895 q 217 965 159 941 q 358 989 275 989 q 469 971 418 989 q 557 921 519 954 q 615 839 594 888 q 637 727 637 790 q 624 623 637 669 q 584 534 610 576 q 516 455 557 493 q 420 378 475 417 q 308 294 352 329 q 237 230 263 260 q 200 169 211 199 q 190 100 190 139 l 674 100 l 674 0 l 74 0 l 74 48 q 87 158 74 111 q 132 248 101 205 q 214 334 163 291 q 338 430 264 376 q 426 503 391 468 q 484 572 462 537 q 514 642 505 606 q 524 718 524 677 z "},"3":{"ha":749,"x_min":89,"x_max":651,"o":"m 89 36 l 89 156 q 314 77 189 77 q 476 128 416 77 q 537 265 537 179 q 267 456 537 456 l 186 456 l 186 550 l 262 550 q 503 729 503 550 q 319 895 503 895 q 126 825 217 895 l 126 933 q 347 989 220 989 q 544 924 470 989 q 617 757 617 859 q 422 510 617 565 l 422 507 q 589 434 527 497 q 651 275 651 370 q 557 64 651 144 q 309 -16 463 -16 q 89 36 171 -16 z "},"4":{"ha":749,"x_min":9,"x_max":701,"o":"m 576 972 l 576 330 l 701 330 l 701 229 l 576 229 l 576 0 l 467 0 l 467 229 l 9 229 l 9 325 q 138 478 73 397 q 263 644 203 560 q 373 812 322 728 q 458 972 423 896 l 576 972 m 135 330 l 467 330 l 467 806 q 370 648 416 718 q 284 521 325 578 q 205 418 243 464 q 135 330 168 372 z "},"5":{"ha":749,"x_min":111,"x_max":656,"o":"m 111 24 l 111 142 q 314 77 211 77 q 480 136 417 77 q 543 290 543 194 q 479 439 543 386 q 294 493 414 493 q 142 485 254 493 l 142 972 l 612 972 l 612 872 l 247 872 l 247 587 q 330 590 292 590 q 571 512 486 590 q 656 297 656 433 q 565 70 656 156 q 313 -16 473 -16 q 111 24 178 -16 z "},"6":{"ha":749,"x_min":75,"x_max":693,"o":"m 633 961 l 633 856 q 475 895 558 895 q 268 779 345 895 q 190 471 190 664 l 193 471 q 415 608 260 608 q 618 527 543 608 q 693 308 693 445 q 607 74 693 165 q 388 -16 521 -16 q 158 100 241 -16 q 75 428 75 217 q 184 836 75 684 q 472 989 293 989 q 633 961 574 989 m 391 514 q 251 456 304 514 q 197 318 197 397 q 251 148 197 218 q 392 77 304 77 q 528 139 476 77 q 579 294 579 200 q 530 456 579 397 q 391 514 480 514 z "},"7":{"ha":749,"x_min":58,"x_max":685,"o":"m 685 937 l 300 0 l 184 0 l 549 872 l 58 872 l 58 972 l 685 972 l 685 937 z "},"8":{"ha":749,"x_min":68,"x_max":682,"o":"m 278 510 l 278 513 q 103 749 103 594 q 183 921 103 854 q 389 989 263 989 q 576 926 503 989 q 650 764 650 863 q 469 513 650 602 l 469 510 q 682 247 682 434 q 595 55 682 126 q 354 -16 509 -16 q 149 54 229 -16 q 68 237 68 125 q 278 510 68 425 m 536 750 q 494 856 536 817 q 379 895 452 895 q 264 854 311 895 q 217 751 217 814 q 375 560 217 625 q 536 750 536 627 m 368 457 q 182 243 182 383 q 236 124 182 170 q 378 77 290 77 q 515 123 462 77 q 568 239 568 169 q 368 457 568 385 z "},"9":{"ha":749,"x_min":64,"x_max":681,"o":"m 117 16 l 117 123 q 289 77 198 77 q 495 184 421 77 q 568 486 568 290 q 566 486 567 486 q 349 361 503 361 q 144 446 224 361 q 64 664 64 530 q 152 898 64 806 q 376 989 239 989 q 601 875 520 989 q 681 545 681 762 q 576 130 681 275 q 286 -16 472 -16 q 117 16 189 -16 m 366 895 q 232 834 286 895 q 178 680 178 773 q 231 518 178 577 q 374 460 283 460 q 507 513 452 460 q 562 644 562 567 q 507 825 562 755 q 366 895 453 895 z "},"\r":{"ha":0,"x_min":0,"x_max":0,"o":""}," ":{"ha":380,"x_min":0,"x_max":0,"o":""},"!":{"ha":395,"x_min":122,"x_max":273,"o":"m 254 972 l 241 274 l 150 274 l 138 972 l 254 972 m 197 -12 q 144 9 166 -12 q 122 62 122 31 q 144 116 122 94 q 197 138 166 138 q 250 116 228 138 q 273 62 273 94 q 250 9 273 31 q 197 -12 228 -12 z "},"\"":{"ha":545,"x_min":100,"x_max":444,"o":"m 219 972 l 199 669 l 121 669 l 100 972 l 219 972 m 444 972 l 424 669 l 346 669 l 326 972 l 444 972 z "},"#":{"ha":821,"x_min":22,"x_max":791,"o":"m 791 700 l 775 628 l 598 628 l 555 425 l 746 425 l 728 353 l 541 353 l 481 83 l 396 83 l 454 353 l 285 353 l 228 83 l 143 83 l 200 353 l 22 353 l 36 425 l 216 425 l 257 628 l 69 628 l 83 700 l 271 700 l 328 972 l 414 972 l 357 700 l 528 700 l 586 972 l 669 972 l 612 700 l 791 700 m 514 628 l 343 628 l 298 425 l 471 425 l 514 628 z "},"$":{"ha":749,"x_min":110,"x_max":663,"o":"m 418 5 l 418 -142 l 347 -142 l 347 0 q 113 58 203 0 l 113 176 q 220 118 152 142 q 347 95 288 95 l 347 442 q 154 575 198 514 q 110 718 110 635 q 177 888 110 817 q 347 974 244 960 l 347 1096 l 418 1096 l 418 977 q 602 939 551 972 l 602 823 q 418 882 532 878 l 418 524 q 611 394 559 456 q 663 251 663 331 q 598 89 663 155 q 418 5 533 24 m 347 562 l 347 878 q 257 827 290 866 q 224 732 224 788 q 251 637 224 674 q 347 562 278 600 m 418 407 l 418 100 q 549 241 549 129 q 418 407 549 335 z "},"%":{"ha":1137,"x_min":54,"x_max":1085,"o":"m 274 485 q 114 551 174 485 q 54 728 54 617 q 117 918 54 848 q 288 987 180 987 q 449 923 391 987 q 506 742 506 859 q 442 555 506 625 q 274 485 378 485 m 283 913 q 182 865 219 913 q 144 734 144 817 q 181 606 144 652 q 281 560 218 560 q 380 608 345 560 q 416 739 416 655 q 381 867 416 821 q 283 913 345 913 m 925 972 l 301 -7 l 204 -7 l 827 972 l 925 972 m 853 -15 q 693 52 753 -15 q 633 228 633 118 q 697 419 633 349 q 867 489 761 489 q 1027 424 970 489 q 1085 241 1085 359 q 1021 55 1085 125 q 853 -15 957 -15 m 863 412 q 761 365 798 412 q 724 233 724 317 q 760 107 724 153 q 860 61 797 61 q 960 109 924 61 q 996 240 996 157 q 960 368 996 323 q 863 412 924 412 z "},"&":{"ha":1112,"x_min":81,"x_max":1084,"o":"m 980 -16 q 912 -5 941 -16 q 857 25 882 5 q 809 72 832 44 q 760 135 785 100 q 697 79 732 106 q 618 31 661 52 q 523 -3 574 9 q 411 -16 471 -16 q 277 3 338 -16 q 172 57 216 21 q 105 144 129 92 q 81 264 81 197 q 140 442 81 368 q 307 562 199 515 q 266 597 286 577 q 230 643 245 617 q 204 699 214 668 q 194 766 194 730 q 213 861 194 820 q 267 931 233 903 q 347 974 300 960 q 446 989 393 989 q 543 974 499 989 q 618 932 587 960 q 667 867 650 905 q 685 783 685 829 q 638 647 685 701 q 499 555 592 593 q 584 511 546 537 q 654 452 622 484 q 714 382 686 419 q 769 304 742 345 q 852 473 824 381 q 880 667 880 566 q 877 715 880 692 q 868 760 873 738 l 976 760 q 982 718 981 738 q 985 670 983 698 q 972 546 985 608 q 937 425 959 484 q 887 313 916 366 q 826 216 858 260 q 869 160 850 184 q 909 119 889 136 q 950 95 929 103 q 999 87 972 87 q 1040 93 1019 87 q 1084 106 1061 98 l 1084 3 q 1033 -11 1059 -6 q 980 -16 1006 -16 m 411 81 q 506 92 463 81 q 586 122 549 103 q 652 165 623 140 q 707 217 682 190 q 630 327 665 281 q 560 406 595 373 q 484 463 524 439 q 391 507 444 487 q 312 470 348 490 q 250 421 276 449 q 209 355 224 393 q 194 268 194 318 q 211 186 194 222 q 257 128 228 151 q 326 93 287 104 q 411 81 366 81 m 581 773 q 568 831 581 807 q 536 870 555 854 q 493 893 517 886 q 446 900 469 900 q 340 864 380 900 q 300 766 300 828 q 308 714 300 739 q 332 669 317 690 q 368 631 347 648 q 411 604 388 615 q 538 673 496 633 q 581 773 581 713 z "},"'":{"ha":319,"x_min":100,"x_max":219,"o":"m 219 972 l 199 669 l 121 669 l 100 972 l 219 972 z "},"(":{"ha":419,"x_min":95,"x_max":406,"o":"m 404 -221 l 305 -221 q 95 371 95 19 q 305 972 95 724 l 406 972 q 193 372 193 715 q 404 -221 193 33 z "},")":{"ha":419,"x_min":15,"x_max":327,"o":"m 115 -221 l 16 -221 q 228 372 228 33 q 15 972 228 715 l 115 972 q 327 371 327 724 q 115 -221 327 19 z "},"*":{"ha":579,"x_min":52,"x_max":529,"o":"m 529 749 l 343 711 l 472 546 l 397 494 l 292 674 l 184 494 l 110 546 l 239 711 l 52 749 l 82 833 l 260 766 l 244 972 l 338 972 l 322 766 l 500 833 l 529 749 z "},"+":{"ha":950,"x_min":157,"x_max":795,"o":"m 795 359 l 521 359 l 521 86 l 431 86 l 431 359 l 157 359 l 157 450 l 431 450 l 431 724 l 521 724 l 521 450 l 795 450 l 795 359 z "},",":{"ha":301,"x_min":26,"x_max":214,"o":"m 214 155 l 106 -179 l 26 -179 l 106 155 l 214 155 z "},"-":{"ha":555,"x_min":98,"x_max":468,"o":"m 468 343 l 98 343 l 98 431 l 468 431 l 468 343 z "},".":{"ha":301,"x_min":76,"x_max":228,"o":"m 151 -15 q 98 7 120 -15 q 76 61 76 30 q 98 115 76 92 q 151 138 120 138 q 205 115 183 138 q 228 61 228 92 q 205 7 228 30 q 151 -15 183 -15 z "},"/":{"ha":541,"x_min":-19,"x_max":551,"o":"m 551 972 l 85 -161 l -19 -161 l 446 972 l 551 972 z "},":":{"ha":301,"x_min":76,"x_max":228,"o":"m 151 559 q 98 581 120 559 q 76 635 76 604 q 98 688 76 666 q 151 709 120 709 q 205 688 183 709 q 228 635 228 666 q 205 581 228 604 q 151 559 183 559 m 151 -15 q 98 7 120 -15 q 76 61 76 30 q 98 115 76 92 q 151 138 120 138 q 205 115 183 138 q 228 61 228 92 q 205 7 228 30 q 151 -15 183 -15 z "},";":{"ha":301,"x_min":26,"x_max":229,"o":"m 153 559 q 99 581 121 559 q 77 635 77 604 q 99 688 77 666 q 153 709 121 709 q 207 688 184 709 q 229 635 229 666 q 207 581 229 604 q 153 559 184 559 m 214 155 l 106 -179 l 26 -179 l 106 155 l 214 155 z "},"<":{"ha":950,"x_min":184,"x_max":768,"o":"m 768 86 l 184 379 l 184 419 l 768 746 l 768 644 l 332 403 l 332 400 l 768 187 l 768 86 z "},"=":{"ha":950,"x_min":157,"x_max":795,"o":"m 795 505 l 157 505 l 157 594 l 795 594 l 795 505 m 795 216 l 157 216 l 157 305 l 795 305 l 795 216 z "},">":{"ha":950,"x_min":184,"x_max":768,"o":"m 768 379 l 184 86 l 184 187 l 621 399 l 621 403 l 184 644 l 184 746 l 768 419 l 768 379 z "},"?":{"ha":623,"x_min":89,"x_max":554,"o":"m 227 270 q 216 316 221 288 q 212 372 212 344 q 229 450 212 415 q 272 515 246 485 q 328 574 298 546 q 385 631 359 602 q 428 691 410 660 q 445 761 445 723 q 432 819 445 793 q 398 861 420 844 q 348 886 376 878 q 288 895 319 895 q 89 804 173 895 l 89 924 q 304 989 193 989 q 401 975 355 989 q 480 935 446 962 q 534 868 515 908 q 554 775 554 828 q 536 686 554 725 q 492 613 519 646 q 434 552 465 581 q 376 495 403 524 q 332 437 349 467 q 314 370 314 406 q 321 313 314 338 q 336 270 329 288 l 227 270 m 288 -12 q 235 9 258 -12 q 213 62 213 31 q 235 115 213 94 q 288 138 258 138 q 341 115 319 138 q 363 62 363 94 q 341 9 363 31 q 288 -12 318 -12 z "},"@":{"ha":1326,"x_min":117,"x_max":1213,"o":"m 789 285 l 786 285 q 591 123 736 123 q 442 192 498 123 q 385 376 385 260 q 464 631 385 530 q 669 732 542 732 q 756 707 718 732 q 806 644 795 682 l 808 644 q 815 722 810 663 l 900 722 q 868 342 868 349 q 949 201 868 201 q 1070 281 1022 201 q 1119 486 1119 360 q 1001 791 1119 673 q 674 909 883 909 q 341 768 473 909 q 210 415 210 627 q 335 79 210 207 q 672 -49 460 -49 q 958 7 840 -49 l 958 -77 q 665 -127 841 -127 q 268 21 418 -127 q 117 411 117 170 q 275 823 117 659 q 680 986 433 986 q 1061 849 910 986 q 1213 492 1213 712 q 1133 227 1213 330 q 939 123 1053 123 q 789 285 790 123 m 668 654 q 532 574 584 654 q 480 375 480 494 q 515 249 480 295 q 608 203 550 203 q 742 287 692 203 q 791 509 791 370 q 668 654 791 654 z "},"A":{"ha":896,"x_min":15,"x_max":880,"o":"m 880 0 l 754 0 l 651 273 l 239 273 l 142 0 l 15 0 l 388 972 l 506 972 l 880 0 m 614 375 l 461 789 q 446 854 454 810 l 444 854 q 428 789 437 813 l 277 375 l 614 375 z "},"B":{"ha":796,"x_min":127,"x_max":726,"o":"m 127 0 l 127 972 l 404 972 q 604 911 530 972 q 678 750 678 849 q 633 606 678 667 q 510 519 589 545 l 510 517 q 667 443 608 505 q 726 279 726 380 q 637 77 726 155 q 411 0 547 0 l 127 0 m 241 869 l 241 555 l 358 555 q 505 601 452 555 q 559 728 559 646 q 372 869 559 869 l 241 869 m 241 453 l 241 103 l 396 103 q 552 151 496 103 q 607 281 607 198 q 372 453 607 453 l 241 453 z "},"C":{"ha":860,"x_min":64,"x_max":789,"o":"m 789 41 q 521 -16 682 -16 q 189 117 313 -16 q 64 468 64 251 q 204 845 64 701 q 560 989 345 989 q 789 949 699 989 l 789 827 q 559 886 685 886 q 287 774 391 886 q 183 475 183 662 q 280 192 183 297 q 536 86 378 86 q 789 151 682 86 l 789 41 z "},"D":{"ha":974,"x_min":127,"x_max":910,"o":"m 127 0 l 127 972 l 396 972 q 910 498 910 972 q 767 137 910 273 q 385 0 625 0 l 127 0 m 241 869 l 241 103 l 387 103 q 684 205 578 103 q 791 496 791 308 q 393 869 791 869 l 241 869 z "},"E":{"ha":703,"x_min":127,"x_max":643,"o":"m 643 0 l 127 0 l 127 972 l 621 972 l 621 869 l 241 869 l 241 546 l 593 546 l 593 444 l 241 444 l 241 103 l 643 103 l 643 0 z "},"F":{"ha":678,"x_min":127,"x_max":621,"o":"m 621 869 l 241 869 l 241 533 l 593 533 l 593 431 l 241 431 l 241 0 l 127 0 l 127 972 l 621 972 l 621 869 z "},"G":{"ha":953,"x_min":64,"x_max":854,"o":"m 854 66 q 529 -16 708 -16 q 192 118 321 -16 q 64 473 64 252 q 207 844 64 699 q 568 989 349 989 q 835 937 727 989 l 835 811 q 555 886 717 886 q 288 773 392 886 q 183 481 183 661 q 280 192 183 297 q 543 86 377 86 q 741 132 657 86 l 741 404 l 528 404 l 528 507 l 854 507 l 854 66 z "},"H":{"ha":986,"x_min":127,"x_max":859,"o":"m 859 0 l 745 0 l 745 444 l 241 444 l 241 0 l 127 0 l 127 972 l 241 972 l 241 546 l 745 546 l 745 972 l 859 972 l 859 0 z "},"I":{"ha":370,"x_min":127,"x_max":241,"o":"m 241 0 l 127 0 l 127 972 l 241 972 l 241 0 z "},"J":{"ha":496,"x_min":14,"x_max":376,"o":"m 376 349 q 303 80 376 176 q 107 -16 230 -16 q 14 0 50 -16 l 14 113 q 109 86 50 86 q 262 347 262 86 l 262 972 l 376 972 l 376 349 z "},"K":{"ha":806,"x_min":127,"x_max":804,"o":"m 804 0 l 646 0 l 270 445 q 244 479 249 470 l 241 479 l 241 0 l 127 0 l 127 972 l 241 972 l 241 515 l 244 515 q 270 549 254 530 l 633 972 l 775 972 l 358 506 l 804 0 z "},"L":{"ha":654,"x_min":127,"x_max":632,"o":"m 632 0 l 127 0 l 127 972 l 241 972 l 241 103 l 632 103 l 632 0 z "},"M":{"ha":1247,"x_min":127,"x_max":1119,"o":"m 1119 0 l 1006 0 l 1006 652 q 1015 842 1006 730 l 1013 842 q 983 747 996 776 l 651 0 l 595 0 l 264 742 q 235 842 250 774 l 232 842 q 237 651 237 783 l 237 0 l 127 0 l 127 972 l 278 972 l 576 294 q 621 178 611 216 l 625 178 q 672 297 654 258 l 977 972 l 1119 972 l 1119 0 z "},"N":{"ha":1039,"x_min":127,"x_max":911,"o":"m 911 0 l 772 0 l 271 775 q 240 836 252 804 l 236 836 q 241 703 241 805 l 241 0 l 127 0 l 127 972 l 275 972 l 762 210 q 802 144 793 162 l 804 144 q 798 288 798 186 l 798 972 l 911 972 l 911 0 z "},"O":{"ha":1047,"x_min":64,"x_max":983,"o":"m 519 -16 q 188 120 313 -16 q 64 475 64 256 q 191 849 64 709 q 536 989 317 989 q 860 853 737 989 q 983 498 983 718 q 857 122 983 260 q 519 -16 731 -16 m 528 886 q 279 775 374 886 q 183 485 183 665 q 276 196 183 305 q 519 86 370 86 q 772 191 680 86 q 864 483 864 295 q 774 781 864 675 q 528 886 685 886 z "},"P":{"ha":778,"x_min":127,"x_max":722,"o":"m 241 368 l 241 0 l 127 0 l 127 972 l 395 972 q 636 897 551 972 q 722 682 722 821 q 627 456 722 544 q 370 368 532 368 l 241 368 m 241 869 l 241 471 l 361 471 q 541 525 479 471 q 603 677 603 578 q 375 869 603 869 l 241 869 z "},"Q":{"ha":1047,"x_min":64,"x_max":1067,"o":"m 519 -16 q 188 120 313 -16 q 64 475 64 256 q 191 849 64 710 q 536 989 318 989 q 860 853 736 989 q 983 498 983 718 q 857 122 983 260 q 793 65 827 89 l 1067 -131 l 860 -131 l 677 6 q 519 -16 605 -16 m 528 886 q 279 775 374 886 q 183 485 183 665 q 276 195 183 306 q 519 86 370 86 q 772 191 680 86 q 864 483 864 295 q 774 781 864 676 q 528 886 685 886 z "},"R":{"ha":831,"x_min":127,"x_max":825,"o":"m 825 0 l 689 0 l 526 273 q 483 337 504 311 q 440 381 462 364 q 392 406 418 398 q 335 414 367 414 l 241 414 l 241 0 l 127 0 l 127 972 l 418 972 q 535 957 481 972 q 629 908 589 941 q 691 827 669 876 q 713 713 713 779 q 698 620 713 663 q 655 545 683 578 q 587 488 627 511 q 498 452 547 465 l 498 449 q 540 424 522 438 q 574 391 558 410 q 607 348 591 372 q 642 292 623 324 l 825 0 m 241 869 l 241 517 l 396 517 q 475 530 439 517 q 538 567 511 543 q 579 626 564 591 q 594 704 594 661 q 544 826 594 782 q 397 869 493 869 l 241 869 z "},"S":{"ha":738,"x_min":82,"x_max":671,"o":"m 82 39 l 82 174 q 137 137 105 153 q 205 110 170 121 q 277 92 241 98 q 343 86 313 86 q 500 125 448 86 q 552 237 552 164 q 535 306 552 277 q 487 359 517 335 q 415 405 456 383 q 325 452 373 427 q 230 504 274 477 q 153 562 186 530 q 102 634 121 594 q 83 729 83 675 q 113 845 83 795 q 189 926 142 894 q 297 973 237 958 q 421 989 358 989 q 631 954 565 989 l 631 826 q 410 886 545 886 q 335 878 372 886 q 269 852 298 870 q 221 807 239 835 q 203 739 203 779 q 217 675 203 702 q 258 625 231 648 q 324 582 285 603 q 414 536 363 561 q 513 481 466 510 q 595 418 559 453 q 651 342 630 384 q 671 245 671 300 q 643 124 671 174 q 567 43 615 74 q 457 -2 519 12 q 326 -16 395 -16 q 269 -13 302 -16 q 199 -2 235 -9 q 133 16 164 5 q 82 39 101 26 z "},"T":{"ha":728,"x_min":28,"x_max":703,"o":"m 703 869 l 422 869 l 422 0 l 308 0 l 308 869 l 28 869 l 28 972 l 703 972 l 703 869 z "},"U":{"ha":954,"x_min":115,"x_max":839,"o":"m 839 393 q 469 -16 839 -16 q 115 378 115 -16 l 115 972 l 229 972 l 229 385 q 481 86 229 86 q 725 375 725 86 l 725 972 l 839 972 l 839 393 z "},"V":{"ha":863,"x_min":12,"x_max":850,"o":"m 850 972 l 490 0 l 365 0 l 12 972 l 139 972 l 408 201 q 428 115 421 164 l 431 115 q 453 203 436 156 l 728 972 l 850 972 z "},"W":{"ha":1297,"x_min":18,"x_max":1280,"o":"m 1280 972 l 1006 0 l 872 0 l 672 711 q 656 810 659 756 l 654 810 q 636 712 650 760 l 435 0 l 302 0 l 18 972 l 143 972 l 350 227 q 366 129 363 180 l 370 129 q 391 227 373 165 l 606 972 l 715 972 l 921 221 q 937 130 932 182 l 940 130 q 958 224 943 165 l 1157 972 l 1280 972 z "},"X":{"ha":819,"x_min":18,"x_max":799,"o":"m 799 0 l 660 0 l 436 372 q 414 420 426 389 l 411 420 q 388 372 404 405 l 157 0 l 18 0 l 343 489 l 43 972 l 183 972 l 382 631 q 416 563 401 597 l 419 563 q 457 633 441 608 l 664 972 l 795 972 l 489 490 l 799 0 z "},"Y":{"ha":768,"x_min":12,"x_max":760,"o":"m 760 972 l 439 359 l 439 0 l 325 0 l 325 357 l 12 972 l 142 972 l 359 533 q 383 473 363 525 l 385 473 q 411 533 392 496 l 639 972 l 760 972 z "},"Z":{"ha":792,"x_min":22,"x_max":762,"o":"m 762 945 l 193 103 l 749 103 l 749 0 l 22 0 l 22 32 l 587 869 l 68 869 l 68 972 l 762 972 l 762 945 z "},"[":{"ha":419,"x_min":136,"x_max":385,"o":"m 385 -221 l 136 -221 l 136 972 l 385 972 l 385 892 l 235 892 l 235 -140 l 385 -140 l 385 -221 z "},"\\":{"ha":526,"x_min":-18,"x_max":541,"o":"m 541 -163 l 439 -163 l -18 972 l 87 972 l 541 -163 z "},"]":{"ha":419,"x_min":36,"x_max":285,"o":"m 285 -221 l 36 -221 l 36 -140 l 186 -140 l 186 892 l 36 892 l 36 972 l 285 972 l 285 -221 z "},"^":{"ha":950,"x_min":156,"x_max":796,"o":"m 796 423 l 694 423 l 469 843 l 465 843 l 256 423 l 156 423 l 442 989 l 486 989 l 796 423 z "},"_":{"ha":576,"x_min":0,"x_max":576,"o":"m 576 -201 l 0 -201 l 0 -121 l 576 -121 l 576 -201 z "},"`":{"ha":372,"x_min":56,"x_max":319,"o":"m 319 826 l 233 826 l 56 1048 l 170 1048 l 319 826 z "},"a":{"ha":707,"x_min":61,"x_max":610,"o":"m 610 0 l 498 0 l 498 109 l 496 109 q 282 -16 423 -16 q 120 39 178 -16 q 61 184 61 94 q 290 411 61 379 l 498 440 q 355 617 498 617 q 129 532 230 617 l 129 646 q 365 711 231 711 q 610 452 610 711 l 610 0 m 498 351 l 331 328 q 214 290 254 317 q 175 193 175 262 q 211 110 175 142 q 308 77 248 77 q 445 135 391 77 q 498 282 498 193 l 498 351 z "},"b":{"ha":817,"x_min":113,"x_max":751,"o":"m 227 100 l 224 100 l 224 0 l 113 0 l 113 1028 l 224 1028 l 224 572 l 227 572 q 467 711 309 711 q 676 617 600 711 q 751 368 751 524 q 667 89 751 193 q 435 -16 582 -16 q 227 100 297 -16 m 224 380 l 224 283 q 280 137 224 197 q 422 77 336 77 q 580 155 523 77 q 637 370 637 232 q 584 551 637 486 q 439 617 530 617 q 283 550 342 617 q 224 380 224 482 z "},"c":{"ha":642,"x_min":65,"x_max":587,"o":"m 586 32 q 396 -16 506 -16 q 156 80 248 -16 q 65 331 65 177 q 163 607 65 503 q 426 711 262 711 q 587 677 517 711 l 587 563 q 422 617 510 617 q 247 541 315 617 q 179 340 179 465 q 243 148 179 218 q 415 77 307 77 q 586 138 506 77 l 586 32 z "},"d":{"ha":818,"x_min":65,"x_max":705,"o":"m 705 0 l 594 0 l 594 118 l 591 118 q 353 -16 514 -16 q 143 77 222 -16 q 65 331 65 170 q 152 607 65 503 q 383 711 239 711 q 591 598 526 711 l 594 598 l 594 1028 l 705 1028 l 705 0 m 594 314 l 594 416 q 538 559 594 500 q 397 617 483 617 q 237 543 296 617 q 179 336 179 468 q 235 147 179 216 q 385 77 291 77 q 536 144 478 77 q 594 314 594 212 z "},"e":{"ha":726,"x_min":65,"x_max":671,"o":"m 671 319 l 180 319 q 243 140 183 203 q 407 77 302 77 q 623 155 524 77 l 623 50 q 380 -16 531 -16 q 149 78 233 -16 q 65 345 65 173 q 157 609 65 507 q 385 711 249 711 q 596 623 522 711 q 671 378 671 534 l 671 319 m 557 414 q 510 564 556 510 q 383 617 465 617 q 250 561 304 617 q 182 414 195 505 l 557 414 z "},"f":{"ha":435,"x_min":36,"x_max":456,"o":"m 456 930 q 382 949 423 949 q 265 802 265 949 l 265 694 l 428 694 l 428 600 l 265 600 l 265 0 l 155 0 l 155 600 l 36 600 l 36 694 l 155 694 l 155 807 q 218 980 155 916 q 375 1043 281 1043 q 456 1031 426 1043 l 456 930 z "},"g":{"ha":818,"x_min":65,"x_max":705,"o":"m 705 56 q 339 -327 705 -327 q 114 -278 210 -327 l 114 -167 q 338 -232 231 -232 q 594 41 594 -232 l 594 117 l 591 117 q 353 -16 512 -16 q 144 76 223 -16 q 65 325 65 169 q 150 606 65 502 q 383 711 235 711 q 591 598 524 711 l 594 598 l 594 694 l 705 694 l 705 56 m 594 314 l 594 416 q 538 558 594 499 q 399 617 482 617 q 237 542 296 617 q 179 332 179 467 q 235 147 179 216 q 383 77 291 77 q 535 144 477 77 q 594 314 594 210 z "},"h":{"ha":786,"x_min":113,"x_max":689,"o":"m 689 0 l 578 0 l 578 400 q 416 617 578 617 q 279 554 335 617 q 224 393 224 492 l 224 0 l 113 0 l 113 1028 l 224 1028 l 224 579 l 227 579 q 454 711 307 711 q 689 428 689 711 l 689 0 z "},"i":{"ha":336,"x_min":98,"x_max":243,"o":"m 170 871 q 119 891 140 871 q 98 943 98 911 q 119 995 98 974 q 170 1015 140 1015 q 221 995 200 1015 q 243 943 243 974 q 221 892 243 913 q 170 871 200 871 m 224 0 l 113 0 l 113 694 l 224 694 l 224 0 z "},"j":{"ha":336,"x_min":-134,"x_max":243,"o":"m 224 29 q 155 -234 224 -142 q -42 -327 86 -327 q -134 -305 -90 -327 l -134 -201 q -39 -232 -84 -232 q 113 11 113 -232 l 113 694 l 224 694 l 224 29 m 170 871 q 119 891 140 871 q 98 943 98 911 q 119 995 98 974 q 170 1015 140 1015 q 221 995 200 1015 q 243 943 243 974 q 221 892 243 913 q 170 871 200 871 z "},"k":{"ha":690,"x_min":113,"x_max":689,"o":"m 689 0 l 533 0 l 227 334 l 224 334 l 224 0 l 113 0 l 113 1028 l 224 1028 l 224 376 l 227 376 l 518 694 l 664 694 l 342 359 l 689 0 z "},"l":{"ha":336,"x_min":113,"x_max":224,"o":"m 224 0 l 113 0 l 113 1028 l 224 1028 l 224 0 z "},"m":{"ha":1196,"x_min":113,"x_max":1099,"o":"m 1099 0 l 987 0 l 987 399 q 952 566 987 514 q 832 617 916 617 q 711 552 761 617 q 661 396 661 487 l 661 0 l 550 0 l 550 412 q 392 617 550 617 q 271 556 319 617 q 224 396 224 494 l 224 0 l 113 0 l 113 694 l 224 694 l 224 585 l 227 585 q 442 711 300 711 q 566 671 513 711 q 639 567 619 631 q 869 711 716 711 q 1099 428 1099 711 l 1099 0 z "},"n":{"ha":786,"x_min":113,"x_max":689,"o":"m 689 0 l 578 0 l 578 396 q 416 617 578 617 q 278 554 333 617 q 224 396 224 492 l 224 0 l 113 0 l 113 694 l 224 694 l 224 579 l 227 579 q 454 711 305 711 q 629 637 568 711 q 689 425 689 564 l 689 0 z "},"o":{"ha":814,"x_min":65,"x_max":749,"o":"m 403 -16 q 157 81 249 -16 q 65 339 65 178 q 161 612 65 514 q 419 711 256 711 q 662 615 574 711 q 749 350 749 519 q 655 84 749 184 q 403 -16 561 -16 m 411 617 q 241 544 304 617 q 179 343 179 471 q 242 149 179 220 q 411 77 305 77 q 577 147 519 77 q 635 346 635 217 q 577 547 635 476 q 411 617 519 617 z "},"p":{"ha":817,"x_min":113,"x_max":751,"o":"m 227 100 l 224 100 l 224 -319 l 113 -319 l 113 694 l 224 694 l 224 572 l 227 572 q 467 711 309 711 q 676 617 601 711 q 751 368 751 524 q 667 89 751 193 q 435 -16 582 -16 q 227 100 300 -16 m 224 380 l 224 283 q 280 137 224 197 q 422 77 336 77 q 580 155 523 77 q 637 370 637 232 q 584 551 637 486 q 439 617 530 617 q 283 550 342 617 q 224 380 224 482 z "},"q":{"ha":818,"x_min":65,"x_max":705,"o":"m 705 -319 l 594 -319 l 594 119 l 591 119 q 354 -16 519 -16 q 144 77 223 -16 q 65 331 65 170 q 152 607 65 504 q 385 711 239 711 q 591 598 528 711 l 594 598 l 594 694 l 705 694 l 705 -319 m 594 313 l 594 414 q 538 558 594 499 q 396 617 482 617 q 237 543 296 617 q 179 334 179 469 q 235 145 179 214 q 380 77 292 77 q 536 144 478 77 q 594 313 594 211 z "},"r":{"ha":483,"x_min":113,"x_max":475,"o":"m 475 582 q 391 604 446 604 q 272 537 319 604 q 224 354 224 470 l 224 0 l 113 0 l 113 694 l 224 694 l 224 551 l 227 551 q 299 666 250 625 q 408 707 348 707 q 475 697 452 707 l 475 582 z "},"s":{"ha":589,"x_min":71,"x_max":531,"o":"m 71 25 l 71 144 q 271 77 161 77 q 417 175 417 77 q 405 222 417 203 q 371 256 392 241 q 320 283 349 271 q 258 308 292 295 q 177 345 212 326 q 119 387 142 363 q 84 440 96 410 q 72 510 72 470 q 94 596 72 559 q 154 660 117 634 q 239 698 191 685 q 338 711 287 711 q 499 680 428 711 l 499 567 q 323 617 422 617 q 267 610 292 617 q 223 590 241 603 q 196 559 205 577 q 186 519 186 541 q 196 474 186 492 q 224 441 205 456 q 271 416 243 427 q 332 391 298 404 q 415 354 378 373 q 477 312 452 336 q 517 258 503 289 q 531 186 531 228 q 508 96 531 134 q 448 33 486 58 q 360 -4 410 8 q 256 -16 311 -16 q 71 25 149 -16 z "},"t":{"ha":471,"x_min":29,"x_max":435,"o":"m 435 7 q 331 -15 395 -15 q 149 189 149 -15 l 149 600 l 29 600 l 29 694 l 149 694 l 149 864 l 260 900 l 260 694 l 435 694 l 435 600 l 260 600 l 260 208 q 283 109 260 138 q 362 79 307 79 q 435 102 404 79 l 435 7 z "},"u":{"ha":786,"x_min":98,"x_max":674,"o":"m 674 0 l 563 0 l 563 110 l 560 110 q 346 -16 491 -16 q 98 279 98 -16 l 98 694 l 208 694 l 208 297 q 376 77 208 77 q 510 137 458 77 q 563 294 563 197 l 563 694 l 674 694 l 674 0 z "},"v":{"ha":665,"x_min":9,"x_max":659,"o":"m 659 694 l 382 0 l 273 0 l 9 694 l 132 694 l 308 190 q 332 93 328 134 l 335 93 q 357 187 342 145 l 541 694 l 659 694 z "},"w":{"ha":1004,"x_min":16,"x_max":987,"o":"m 987 694 l 779 0 l 664 0 l 521 497 q 510 562 513 526 l 507 562 q 493 498 505 537 l 338 0 l 227 0 l 16 694 l 133 694 l 277 172 q 286 110 283 149 l 292 110 q 304 174 294 140 l 464 694 l 566 694 l 709 171 q 720 109 716 146 l 725 109 q 736 171 726 135 l 878 694 l 987 694 z "},"x":{"ha":637,"x_min":18,"x_max":620,"o":"m 620 694 l 387 343 l 616 0 l 486 0 l 350 225 q 319 278 337 246 l 317 278 q 285 225 313 272 l 146 0 l 18 0 l 254 340 l 28 694 l 157 694 l 292 457 q 321 403 307 431 l 323 403 l 497 694 l 620 694 z "},"y":{"ha":672,"x_min":9,"x_max":665,"o":"m 665 694 l 346 -111 q 106 -327 260 -327 q 33 -318 62 -327 l 33 -218 q 99 -231 69 -231 q 225 -130 183 -231 l 281 1 l 9 694 l 133 694 l 321 160 q 335 107 324 150 l 339 107 q 353 159 342 123 l 550 694 l 665 694 z "},"z":{"ha":628,"x_min":22,"x_max":597,"o":"m 597 663 l 186 95 l 593 95 l 593 0 l 22 0 l 22 35 l 433 600 l 61 600 l 61 694 l 597 694 l 597 663 z "},"{":{"ha":419,"x_min":62,"x_max":376,"o":"m 376 -221 q 168 -11 168 -218 l 168 193 q 62 336 168 330 l 62 415 q 168 562 168 422 l 168 760 q 376 972 168 970 l 376 886 q 269 751 269 883 l 269 553 q 167 378 269 410 l 167 375 q 269 201 269 345 l 269 5 q 293 -102 269 -70 q 376 -136 317 -134 l 376 -221 z "},"|":{"ha":332,"x_min":117,"x_max":217,"o":"m 217 -327 l 117 -327 l 117 1062 l 217 1062 l 217 -327 z "},"}":{"ha":419,"x_min":45,"x_max":358,"o":"m 358 336 q 252 193 252 330 l 252 -11 q 45 -221 252 -218 l 45 -136 q 129 -102 104 -134 q 153 5 153 -69 l 153 201 q 254 375 153 345 l 254 378 q 153 553 153 410 l 153 751 q 45 886 153 883 l 45 972 q 252 760 252 970 l 252 562 q 358 415 252 422 l 358 336 z "},"~":{"ha":950,"x_min":142,"x_max":810,"o":"m 810 509 q 755 353 805 408 q 620 298 705 298 q 440 372 546 298 q 332 418 374 418 q 233 298 237 418 l 142 298 q 196 452 145 395 q 332 509 246 509 q 492 449 404 509 q 625 388 581 388 q 692 421 667 388 q 718 509 717 454 l 810 509 z "},"Ä":{"ha":896,"x_min":15,"x_max":880,"o":"m 880 0 l 754 0 l 651 273 l 239 273 l 142 0 l 15 0 l 388 972 l 506 972 l 880 0 m 614 375 l 461 789 q 446 854 454 810 l 444 854 q 428 789 437 813 l 277 375 l 614 375 m 570 1061 q 523 1080 543 1061 q 503 1128 503 1099 q 522 1176 503 1157 q 568 1195 541 1195 q 616 1176 597 1195 q 636 1128 636 1156 q 617 1081 636 1101 q 570 1061 598 1061 m 309 1061 q 261 1081 281 1061 q 241 1128 241 1101 q 260 1176 241 1157 q 307 1195 279 1195 q 355 1176 335 1195 q 376 1128 376 1156 q 356 1081 376 1101 q 309 1061 336 1061 z "},"Å":{"ha":896,"x_min":15,"x_max":880,"o":"m 880 0 l 754 0 l 651 273 l 239 273 l 142 0 l 15 0 l 374 935 q 305 1046 305 970 q 346 1143 305 1106 q 449 1181 387 1181 q 547 1144 509 1181 q 585 1050 585 1107 q 519 937 585 974 l 880 0 m 445 1125 q 389 1104 411 1125 q 368 1050 368 1082 q 445 972 368 972 q 500 995 477 972 q 522 1050 522 1017 q 500 1104 522 1083 q 445 1125 477 1125 m 614 375 l 461 789 q 446 854 454 810 l 444 854 q 428 789 437 813 l 277 375 l 614 375 z "},"Ç":{"ha":860,"x_min":64,"x_max":789,"o":"m 789 41 q 521 -16 682 -16 q 189 117 313 -16 q 64 468 64 251 q 204 845 64 701 q 560 989 345 989 q 789 949 699 989 l 789 827 q 559 886 685 886 q 287 774 391 886 q 183 475 183 662 q 280 192 183 297 q 536 86 378 86 q 789 151 682 86 l 789 41 m 651 -174 q 465 -293 651 -293 q 420 -292 439 -293 l 420 -231 q 468 -235 450 -235 q 564 -174 564 -235 q 476 -121 564 -121 q 448 -123 469 -121 l 448 0 l 522 0 l 522 -71 q 616 -98 581 -71 q 651 -174 651 -125 z "},"É":{"ha":703,"x_min":127,"x_max":643,"o":"m 643 0 l 127 0 l 127 972 l 621 972 l 621 869 l 241 869 l 241 546 l 593 546 l 593 444 l 241 444 l 241 103 l 643 103 l 643 0 m 545 1284 l 367 1061 l 281 1061 l 432 1284 l 545 1284 z "},"Ñ":{"ha":1039,"x_min":127,"x_max":911,"o":"m 911 0 l 772 0 l 271 775 q 240 836 252 804 l 236 836 q 241 703 241 805 l 241 0 l 127 0 l 127 972 l 275 972 l 762 210 q 802 144 793 162 l 804 144 q 798 288 798 186 l 798 972 l 911 972 l 911 0 m 755 1223 q 722 1106 755 1152 q 634 1061 690 1061 q 524 1097 586 1061 q 444 1126 472 1126 q 384 1049 384 1126 l 320 1049 q 353 1165 320 1122 q 444 1209 385 1209 q 545 1174 488 1209 q 631 1144 595 1144 q 688 1223 688 1144 l 755 1223 z "},"Ö":{"ha":1047,"x_min":64,"x_max":983,"o":"m 519 -16 q 188 120 313 -16 q 64 475 64 256 q 191 849 64 709 q 536 989 317 989 q 860 853 737 989 q 983 498 983 718 q 857 122 983 260 q 519 -16 731 -16 m 528 886 q 279 775 374 886 q 183 485 183 665 q 276 196 183 305 q 519 86 370 86 q 772 191 680 86 q 864 483 864 295 q 774 781 864 675 q 528 886 685 886 m 656 1060 q 610 1079 629 1060 q 590 1127 590 1098 q 609 1175 590 1156 q 655 1194 628 1194 q 703 1174 684 1194 q 723 1127 723 1155 q 704 1080 723 1099 q 656 1060 685 1060 m 396 1060 q 348 1080 368 1060 q 328 1127 328 1100 q 347 1175 328 1156 q 394 1194 366 1194 q 442 1174 422 1194 q 463 1127 463 1155 q 443 1080 463 1099 q 396 1060 423 1060 z "},"Ü":{"ha":954,"x_min":115,"x_max":839,"o":"m 839 393 q 469 -16 839 -16 q 115 378 115 -16 l 115 972 l 229 972 l 229 385 q 481 86 229 86 q 725 375 725 86 l 725 972 l 839 972 l 839 393 m 607 1063 q 560 1082 580 1063 q 541 1130 541 1101 q 559 1177 541 1158 q 606 1196 578 1196 q 654 1177 634 1196 q 673 1130 673 1158 q 654 1082 673 1102 q 607 1063 635 1063 m 347 1063 q 298 1083 318 1063 q 278 1130 278 1103 q 297 1177 278 1158 q 345 1196 317 1196 q 393 1177 372 1196 q 413 1130 413 1158 q 393 1082 413 1102 q 347 1063 374 1063 z "},"á":{"ha":707,"x_min":61,"x_max":610,"o":"m 610 0 l 498 0 l 498 109 l 496 109 q 282 -16 423 -16 q 120 39 178 -16 q 61 184 61 94 q 290 411 61 379 l 498 440 q 355 617 498 617 q 129 532 230 617 l 129 646 q 365 711 231 711 q 610 452 610 711 l 610 0 m 498 351 l 331 328 q 214 290 254 317 q 175 193 175 262 q 211 110 175 142 q 308 77 248 77 q 445 135 391 77 q 498 282 498 193 l 498 351 m 513 1048 l 336 826 l 250 826 l 401 1048 l 513 1048 z "},"à":{"ha":707,"x_min":61,"x_max":610,"o":"m 610 0 l 498 0 l 498 109 l 496 109 q 282 -16 423 -16 q 120 39 178 -16 q 61 184 61 94 q 290 411 61 379 l 498 440 q 355 617 498 617 q 129 532 230 617 l 129 646 q 365 711 231 711 q 610 452 610 711 l 610 0 m 498 351 l 331 328 q 214 290 254 317 q 175 193 175 262 q 211 110 175 142 q 308 77 248 77 q 445 135 391 77 q 498 282 498 193 l 498 351 m 457 826 l 371 826 l 193 1048 l 307 1048 l 457 826 z "},"â":{"ha":707,"x_min":61,"x_max":610,"o":"m 610 0 l 498 0 l 498 109 l 496 109 q 282 -16 423 -16 q 120 39 178 -16 q 61 184 61 94 q 290 411 61 379 l 498 440 q 355 617 498 617 q 129 532 230 617 l 129 646 q 365 711 231 711 q 610 452 610 711 l 610 0 m 498 351 l 331 328 q 214 290 254 317 q 175 193 175 262 q 211 110 175 142 q 308 77 248 77 q 445 135 391 77 q 498 282 498 193 l 498 351 m 547 826 l 464 826 l 353 982 l 241 826 l 164 826 l 310 1051 l 400 1051 l 547 826 z "},"ä":{"ha":707,"x_min":61,"x_max":610,"o":"m 610 0 l 498 0 l 498 109 l 496 109 q 282 -16 423 -16 q 120 39 178 -16 q 61 184 61 94 q 290 411 61 379 l 498 440 q 355 617 498 617 q 129 532 230 617 l 129 646 q 365 711 231 711 q 610 452 610 711 l 610 0 m 498 351 l 331 328 q 214 290 254 317 q 175 193 175 262 q 211 110 175 142 q 308 77 248 77 q 445 135 391 77 q 498 282 498 193 l 498 351 m 480 826 q 433 845 453 826 q 414 893 414 864 q 433 941 414 922 q 479 960 452 960 q 527 940 507 960 q 547 893 547 921 q 528 846 547 865 q 480 826 509 826 m 220 826 q 171 846 191 826 q 151 893 151 866 q 171 941 151 922 q 218 960 190 960 q 266 940 245 960 q 286 893 286 921 q 267 846 286 865 q 220 826 247 826 z "},"ã":{"ha":707,"x_min":61,"x_max":610,"o":"m 610 0 l 498 0 l 498 109 l 496 109 q 282 -16 423 -16 q 120 39 178 -16 q 61 184 61 94 q 290 411 61 379 l 498 440 q 355 617 498 617 q 129 532 230 617 l 129 646 q 365 711 231 711 q 610 452 610 711 l 610 0 m 498 351 l 331 328 q 214 290 254 317 q 175 193 175 262 q 211 110 175 142 q 308 77 248 77 q 445 135 391 77 q 498 282 498 193 l 498 351 m 572 989 q 540 872 572 918 q 452 827 507 827 q 342 863 404 827 q 261 892 290 892 q 201 815 201 892 l 138 815 q 170 931 138 888 q 261 975 203 975 q 362 940 305 975 q 449 910 412 910 q 506 989 506 910 l 572 989 z "},"å":{"ha":707,"x_min":61,"x_max":610,"o":"m 610 0 l 498 0 l 498 109 l 496 109 q 282 -16 423 -16 q 120 39 178 -16 q 61 184 61 94 q 290 411 61 379 l 498 440 q 355 617 498 617 q 129 532 230 617 l 129 646 q 365 711 231 711 q 610 452 610 711 l 610 0 m 498 351 l 331 328 q 214 290 254 317 q 175 193 175 262 q 211 110 175 142 q 308 77 248 77 q 445 135 391 77 q 498 282 498 193 l 498 351 m 351 798 q 253 833 292 798 q 214 926 214 869 q 254 1024 214 987 q 355 1061 294 1061 q 454 1024 416 1061 q 493 930 493 987 q 452 836 493 873 q 351 798 410 798 m 351 1006 q 296 984 318 1006 q 275 929 275 962 q 351 853 275 853 q 407 875 385 853 q 429 929 429 897 q 407 984 429 962 q 351 1006 385 1006 z "},"ç":{"ha":642,"x_min":65,"x_max":587,"o":"m 586 32 q 396 -16 506 -16 q 156 80 248 -16 q 65 331 65 177 q 163 607 65 503 q 426 711 262 711 q 587 677 517 711 l 587 563 q 422 617 510 617 q 247 541 315 617 q 179 340 179 465 q 243 148 179 218 q 415 77 307 77 q 586 138 506 77 l 586 32 m 528 -174 q 341 -293 528 -293 q 297 -292 315 -293 l 297 -231 q 345 -235 326 -235 q 440 -174 440 -235 q 353 -121 440 -121 q 325 -123 346 -121 l 325 0 l 398 0 l 398 -71 q 493 -98 458 -71 q 528 -174 528 -125 z "},"é":{"ha":726,"x_min":65,"x_max":671,"o":"m 671 319 l 180 319 q 243 140 183 203 q 407 77 302 77 q 623 155 524 77 l 623 50 q 380 -16 531 -16 q 149 78 233 -16 q 65 345 65 173 q 157 609 65 507 q 385 711 249 711 q 596 623 522 711 q 671 378 671 534 l 671 319 m 557 414 q 510 564 556 510 q 383 617 465 617 q 250 561 304 617 q 182 414 195 505 l 557 414 m 539 1048 l 361 826 l 275 826 l 427 1048 l 539 1048 z "},"è":{"ha":726,"x_min":65,"x_max":671,"o":"m 671 319 l 180 319 q 243 140 183 203 q 407 77 302 77 q 623 155 524 77 l 623 50 q 380 -16 531 -16 q 149 78 233 -16 q 65 345 65 173 q 157 609 65 507 q 385 711 249 711 q 596 623 522 711 q 671 378 671 534 l 671 319 m 557 414 q 510 564 556 510 q 383 617 465 617 q 250 561 304 617 q 182 414 195 505 l 557 414 m 492 826 l 406 826 l 228 1048 l 342 1048 l 492 826 z "},"ê":{"ha":726,"x_min":65,"x_max":671,"o":"m 671 319 l 180 319 q 243 140 183 203 q 407 77 302 77 q 623 155 524 77 l 623 50 q 380 -16 531 -16 q 149 78 233 -16 q 65 345 65 173 q 157 609 65 507 q 385 711 249 711 q 596 623 522 711 q 671 378 671 534 l 671 319 m 557 414 q 510 564 556 510 q 383 617 465 617 q 250 561 304 617 q 182 414 195 505 l 557 414 m 570 826 l 487 826 l 376 982 l 264 826 l 187 826 l 333 1051 l 423 1051 l 570 826 z "},"ë":{"ha":726,"x_min":65,"x_max":671,"o":"m 671 319 l 180 319 q 243 140 183 203 q 407 77 302 77 q 623 155 524 77 l 623 50 q 380 -16 531 -16 q 149 78 233 -16 q 65 345 65 173 q 157 609 65 507 q 385 711 249 711 q 596 623 522 711 q 671 378 671 534 l 671 319 m 557 414 q 510 564 556 510 q 383 617 465 617 q 250 561 304 617 q 182 414 195 505 l 557 414 m 506 826 q 459 845 479 826 q 439 893 439 864 q 458 941 439 922 q 505 960 477 960 q 553 940 533 960 q 572 893 572 921 q 553 846 572 865 q 506 826 534 826 m 245 826 q 197 846 217 826 q 177 893 177 866 q 196 941 177 922 q 243 960 216 960 q 292 940 271 960 q 312 893 312 921 q 292 846 312 865 q 245 826 273 826 z "},"í":{"ha":336,"x_min":60,"x_max":323,"o":"m 224 0 l 113 0 l 113 694 l 224 694 l 224 0 m 323 1048 l 146 826 l 60 826 l 211 1048 l 323 1048 z "},"ì":{"ha":336,"x_min":-14,"x_max":250,"o":"m 224 0 l 113 0 l 113 694 l 224 694 l 224 0 m 250 826 l 164 826 l -14 1048 l 100 1048 l 250 826 z "},"î":{"ha":336,"x_min":-31,"x_max":352,"o":"m 224 0 l 113 0 l 113 694 l 224 694 l 224 0 m 352 826 l 269 826 l 158 982 l 46 826 l -31 826 l 115 1051 l 205 1051 l 352 826 z "},"ï":{"ha":336,"x_min":-37,"x_max":358,"o":"m 224 0 l 113 0 l 113 694 l 224 694 l 224 0 m 292 826 q 245 845 264 826 q 225 893 225 864 q 244 941 225 922 q 290 960 263 960 q 338 940 319 960 q 358 893 358 921 q 339 846 358 865 q 292 826 320 826 m 31 826 q -17 846 3 826 q -37 893 -37 866 q -18 941 -37 922 q 29 960 1 960 q 77 940 57 960 q 98 893 98 921 q 78 846 98 865 q 31 826 58 826 z "},"ñ":{"ha":786,"x_min":113,"x_max":689,"o":"m 689 0 l 578 0 l 578 396 q 416 617 578 617 q 278 554 333 617 q 224 396 224 492 l 224 0 l 113 0 l 113 694 l 224 694 l 224 579 l 227 579 q 454 711 305 711 q 629 637 568 711 q 689 425 689 564 l 689 0 m 616 989 q 583 872 616 918 q 495 827 551 827 q 385 863 447 827 q 304 892 333 892 q 245 815 245 892 l 181 815 q 214 931 181 888 q 304 975 246 975 q 406 940 349 975 q 492 910 456 910 q 549 989 549 910 l 616 989 z "},"ó":{"ha":814,"x_min":65,"x_max":749,"o":"m 403 -16 q 157 81 249 -16 q 65 339 65 178 q 161 612 65 514 q 419 711 256 711 q 662 615 574 711 q 749 350 749 519 q 655 84 749 184 q 403 -16 561 -16 m 411 617 q 241 544 304 617 q 179 343 179 471 q 242 149 179 220 q 411 77 305 77 q 577 147 519 77 q 635 346 635 217 q 577 547 635 476 q 411 617 519 617 m 574 1048 l 396 826 l 310 826 l 461 1048 l 574 1048 z "},"ò":{"ha":814,"x_min":65,"x_max":749,"o":"m 403 -16 q 157 81 249 -16 q 65 339 65 178 q 161 612 65 514 q 419 711 256 711 q 662 615 574 711 q 749 350 749 519 q 655 84 749 184 q 403 -16 561 -16 m 411 617 q 241 544 304 617 q 179 343 179 471 q 242 149 179 220 q 411 77 305 77 q 577 147 519 77 q 635 346 635 217 q 577 547 635 476 q 411 617 519 617 m 507 826 l 420 826 l 243 1048 l 357 1048 l 507 826 z "},"ô":{"ha":814,"x_min":65,"x_max":749,"o":"m 403 -16 q 157 81 249 -16 q 65 339 65 178 q 161 612 65 514 q 419 711 256 711 q 662 615 574 711 q 749 350 749 519 q 655 84 749 184 q 403 -16 561 -16 m 411 617 q 241 544 304 617 q 179 343 179 471 q 242 149 179 220 q 411 77 305 77 q 577 147 519 77 q 635 346 635 217 q 577 547 635 476 q 411 617 519 617 m 600 826 l 517 826 l 406 982 l 294 826 l 218 826 l 363 1051 l 454 1051 l 600 826 z "},"ö":{"ha":814,"x_min":65,"x_max":749,"o":"m 403 -16 q 157 81 249 -16 q 65 339 65 178 q 161 612 65 514 q 419 711 256 711 q 662 615 574 711 q 749 350 749 519 q 655 84 749 184 q 403 -16 561 -16 m 411 617 q 241 544 304 617 q 179 343 179 471 q 242 149 179 220 q 411 77 305 77 q 577 147 519 77 q 635 346 635 217 q 577 547 635 476 q 411 617 519 617 m 538 826 q 491 845 511 826 q 471 893 471 864 q 490 941 471 922 q 536 960 509 960 q 585 940 565 960 q 604 893 604 921 q 585 846 604 865 q 538 826 566 826 m 277 826 q 229 846 249 826 q 209 893 209 866 q 228 941 209 922 q 275 960 248 960 q 323 940 303 960 q 344 893 344 921 q 324 846 344 865 q 277 826 304 826 z "},"õ":{"ha":814,"x_min":65,"x_max":749,"o":"m 403 -16 q 157 81 249 -16 q 65 339 65 178 q 161 612 65 514 q 419 711 256 711 q 662 615 574 711 q 749 350 749 519 q 655 84 749 184 q 403 -16 561 -16 m 411 617 q 241 544 304 617 q 179 343 179 471 q 242 149 179 220 q 411 77 305 77 q 577 147 519 77 q 635 346 635 217 q 577 547 635 476 q 411 617 519 617 m 631 989 q 599 872 631 918 q 511 827 566 827 q 401 863 463 827 q 320 892 349 892 q 260 815 260 892 l 197 815 q 229 931 197 888 q 320 975 262 975 q 421 940 364 975 q 508 910 471 910 q 565 989 565 910 l 631 989 z "},"ú":{"ha":786,"x_min":98,"x_max":674,"o":"m 674 0 l 563 0 l 563 110 l 560 110 q 346 -16 491 -16 q 98 279 98 -16 l 98 694 l 208 694 l 208 297 q 376 77 208 77 q 510 137 458 77 q 563 294 563 197 l 563 694 l 674 694 l 674 0 m 570 1048 l 392 826 l 306 826 l 457 1048 l 570 1048 z "},"ù":{"ha":786,"x_min":98,"x_max":674,"o":"m 674 0 l 563 0 l 563 110 l 560 110 q 346 -16 491 -16 q 98 279 98 -16 l 98 694 l 208 694 l 208 297 q 376 77 208 77 q 510 137 458 77 q 563 294 563 197 l 563 694 l 674 694 l 674 0 m 478 826 l 392 826 l 214 1048 l 328 1048 l 478 826 z "},"û":{"ha":786,"x_min":98,"x_max":674,"o":"m 674 0 l 563 0 l 563 110 l 560 110 q 346 -16 491 -16 q 98 279 98 -16 l 98 694 l 208 694 l 208 297 q 376 77 208 77 q 510 137 458 77 q 563 294 563 197 l 563 694 l 674 694 l 674 0 m 579 826 l 496 826 l 385 982 l 273 826 l 197 826 l 342 1051 l 433 1051 l 579 826 z "},"ü":{"ha":786,"x_min":98,"x_max":674,"o":"m 674 0 l 563 0 l 563 110 l 560 110 q 346 -16 491 -16 q 98 279 98 -16 l 98 694 l 208 694 l 208 297 q 376 77 208 77 q 510 137 458 77 q 563 294 563 197 l 563 694 l 674 694 l 674 0 m 522 826 q 475 845 495 826 q 456 893 456 864 q 475 941 456 922 q 521 960 494 960 q 569 940 549 960 q 589 893 589 921 q 570 846 589 865 q 522 826 551 826 m 262 826 q 213 846 233 826 q 193 893 193 866 q 213 941 193 922 q 260 960 232 960 q 308 940 288 960 q 328 893 328 921 q 309 846 328 865 q 262 826 289 826 z "},"†":{"ha":521,"x_min":33,"x_max":494,"o":"m 494 606 l 316 626 l 289 155 l 237 155 l 210 626 l 33 606 l 33 707 l 237 694 l 210 972 l 316 972 l 289 694 l 494 707 l 494 606 z "},"°":{"ha":524,"x_min":73,"x_max":449,"o":"m 261 608 q 128 664 183 608 q 73 798 73 719 q 127 929 73 876 q 260 983 182 983 q 394 929 338 983 q 449 798 449 875 q 394 664 449 719 q 261 608 339 608 m 261 904 q 186 873 217 904 q 155 798 155 842 q 185 720 155 752 q 260 688 216 688 q 336 720 304 688 q 368 798 368 753 q 336 873 368 842 q 261 904 305 904 z "},"¢":{"ha":749,"x_min":125,"x_max":646,"o":"m 646 142 q 496 95 581 102 l 496 -33 l 411 -33 l 411 96 q 202 205 280 111 q 125 440 125 300 q 202 689 125 589 q 411 814 280 789 l 411 958 l 496 958 l 496 821 q 646 786 579 819 l 646 669 q 496 722 577 718 l 496 190 q 646 248 578 198 l 646 142 m 411 197 l 411 713 q 284 623 330 692 q 239 452 239 553 q 285 283 239 350 q 411 197 331 216 z "},"£":{"ha":749,"x_min":72,"x_max":682,"o":"m 682 0 l 72 0 l 72 92 q 220 304 220 138 l 220 431 l 86 431 l 86 526 l 220 526 l 220 699 q 294 907 220 826 q 485 989 368 989 q 629 961 564 989 l 629 856 q 486 895 562 895 q 331 686 331 895 l 331 526 l 532 526 l 532 431 l 331 431 l 331 325 q 200 95 331 161 l 682 95 l 682 0 z "},"§":{"ha":623,"x_min":89,"x_max":547,"o":"m 446 282 q 507 156 507 232 q 439 11 507 66 q 267 -45 372 -45 q 104 -7 178 -45 l 104 100 q 274 50 193 50 q 362 77 331 50 q 393 144 393 104 q 369 205 393 180 q 247 282 345 230 q 89 497 89 365 q 189 663 89 608 q 117 814 117 719 q 180 956 117 900 q 347 1011 243 1011 q 496 982 435 1011 l 496 875 q 345 917 427 917 q 231 819 231 917 q 258 751 231 782 q 396 668 286 721 q 547 469 547 595 q 446 282 547 354 m 270 614 q 201 506 201 579 q 240 420 201 457 q 374 340 278 383 q 433 457 433 387 q 398 540 433 506 q 270 614 362 574 z "},"•":{"ha":564,"x_min":111,"x_max":453,"o":"m 283 277 q 162 326 213 277 q 111 446 111 376 q 162 567 111 516 q 283 618 213 618 q 404 568 354 618 q 453 446 453 517 q 404 326 453 376 q 283 277 354 277 z "},"¶":{"ha":636,"x_min":57,"x_max":566,"o":"m 566 903 l 479 903 l 479 0 l 407 0 l 407 903 l 300 903 l 300 0 l 227 0 l 227 612 q 105 664 153 612 q 57 793 57 715 q 107 923 57 873 q 231 972 158 972 l 566 972 l 566 903 z "},"ß":{"ha":755,"x_min":113,"x_max":708,"o":"m 313 1 l 313 110 q 428 77 363 77 q 548 127 502 77 q 594 261 594 177 q 526 426 594 363 q 338 503 458 490 l 338 591 q 469 661 418 605 q 521 795 521 718 q 484 908 521 868 q 380 949 446 949 q 224 739 224 949 l 224 0 l 113 0 l 113 755 q 187 964 113 886 q 388 1043 262 1043 q 568 979 500 1043 q 635 808 635 914 q 584 654 635 722 q 452 559 533 585 l 452 555 q 708 267 708 505 q 633 65 708 146 q 433 -16 557 -16 q 313 1 365 -16 z "},"­":{"ha":555,"x_min":98,"x_max":468,"o":"m 468 343 l 98 343 l 98 431 l 468 431 l 468 343 z "},"´":{"ha":392,"x_min":92,"x_max":355,"o":"m 355 1048 l 178 826 l 92 826 l 243 1048 l 355 1048 z "},"¨":{"ha":575,"x_min":85,"x_max":480,"o":"m 414 826 q 367 845 387 826 q 347 893 347 864 q 366 941 347 922 q 412 960 385 960 q 460 940 441 960 q 480 893 480 921 q 461 846 480 865 q 414 826 442 826 m 153 826 q 105 846 125 826 q 85 893 85 866 q 104 941 85 922 q 151 960 123 960 q 199 940 179 960 q 220 893 220 921 q 200 846 220 865 q 153 826 180 826 z "},"Æ":{"ha":1195,"x_min":7,"x_max":1131,"o":"m 1131 0 l 616 0 l 616 273 l 270 273 l 139 0 l 7 0 l 481 972 l 1108 972 l 1108 869 l 729 869 l 729 546 l 1081 546 l 1081 444 l 729 444 l 729 103 l 1131 103 l 1131 0 m 616 375 l 616 869 l 551 869 l 317 375 l 616 375 z "},"Ø":{"ha":1047,"x_min":64,"x_max":983,"o":"m 220 89 l 117 -35 l 64 9 l 171 139 q 64 475 64 271 q 190 848 64 707 q 536 989 317 989 q 808 901 694 989 l 900 1011 l 953 968 l 859 856 q 983 498 983 720 q 857 122 983 260 q 519 -16 731 -16 q 220 89 339 -16 m 739 817 q 528 886 654 886 q 278 774 374 886 q 183 485 183 663 q 250 232 183 334 l 739 817 m 785 766 l 293 179 q 519 86 382 86 q 772 191 680 86 q 864 483 864 296 q 785 766 864 659 z "},"±":{"ha":950,"x_min":157,"x_max":795,"o":"m 795 442 l 521 442 l 521 168 l 432 168 l 432 442 l 157 442 l 157 532 l 432 532 l 432 806 l 521 806 l 521 532 l 795 532 l 795 442 m 795 0 l 157 0 l 157 90 l 795 90 l 795 0 z "},"¥":{"ha":749,"x_min":46,"x_max":707,"o":"m 707 972 l 465 528 l 659 528 l 659 433 l 432 433 l 432 293 l 659 293 l 659 199 l 432 199 l 432 0 l 321 0 l 321 199 l 87 199 l 87 293 l 321 293 l 321 433 l 87 433 l 87 528 l 285 528 l 46 972 l 176 972 l 346 624 q 378 549 365 585 l 380 549 q 414 628 389 577 l 585 972 l 707 972 z "},"µ":{"ha":802,"x_min":113,"x_max":711,"o":"m 711 0 l 595 0 q 580 114 580 49 l 576 114 q 387 -16 519 -16 q 226 68 274 -16 l 223 68 l 223 -269 l 113 -269 l 113 694 l 223 694 l 223 270 q 270 133 223 184 q 392 82 317 82 q 525 140 474 82 q 576 297 576 199 l 576 694 l 689 694 l 689 180 q 711 0 689 52 z "},"∑":{"ha":857,"x_min":35,"x_max":821,"o":"m 821 -318 l 35 -318 l 35 -265 l 493 334 l 60 911 l 60 972 l 793 972 l 793 868 l 227 868 l 629 336 l 205 -214 l 821 -214 l 821 -318 z "},"∏":{"ha":1047,"x_min":127,"x_max":924,"o":"m 924 -318 l 810 -318 l 810 868 l 241 868 l 241 -318 l 127 -318 l 127 972 l 924 972 l 924 -318 z "},"ª":{"ha":545,"x_min":56,"x_max":467,"o":"m 467 486 l 379 486 l 379 554 l 376 554 q 220 473 323 473 q 101 514 146 473 q 56 617 56 554 q 224 777 56 754 l 379 798 q 277 911 379 911 q 104 853 184 911 l 104 940 q 285 987 180 987 q 418 939 370 987 q 467 802 467 890 l 467 486 m 379 729 l 257 712 q 143 621 143 696 q 169 565 143 587 q 239 543 195 543 q 337 585 294 543 q 379 684 379 626 l 379 729 z "},"º":{"ha":598,"x_min":53,"x_max":545,"o":"m 296 472 q 118 540 182 472 q 53 725 53 608 q 122 917 53 848 q 307 986 192 986 q 481 919 417 986 q 545 735 545 851 q 477 543 545 614 q 296 472 410 472 m 301 911 q 187 863 229 911 q 144 728 144 814 q 185 596 144 644 q 300 549 225 549 q 413 597 371 549 q 454 729 454 646 q 413 863 454 814 q 301 911 372 911 z "},"Ω":{"ha":1048,"x_min":68,"x_max":983,"o":"m 983 0 l 631 0 l 631 100 q 865 529 865 273 q 770 792 865 695 q 528 888 676 888 q 281 792 377 888 q 186 530 186 696 q 420 100 186 273 l 420 0 l 68 0 l 68 100 l 304 100 q 68 532 68 259 q 193 867 68 745 q 524 989 319 989 q 858 868 733 989 q 983 533 983 747 q 747 100 983 260 l 983 100 l 983 0 z "},"æ":{"ha":1156,"x_min":61,"x_max":1100,"o":"m 1100 319 l 608 319 q 670 140 610 203 q 833 77 730 77 q 1051 155 954 77 l 1051 50 q 808 -16 962 -16 q 549 139 625 -16 l 546 139 q 283 -16 448 -16 q 120 38 180 -16 q 61 184 61 93 q 321 404 61 388 l 498 415 q 353 617 498 617 q 129 534 234 617 l 129 646 q 365 711 229 711 q 568 575 522 711 l 571 575 q 812 711 650 711 q 1025 622 949 711 q 1100 376 1100 534 l 1100 319 m 986 414 q 940 564 985 511 q 814 617 895 617 q 679 562 735 617 q 610 414 623 506 l 986 414 m 498 278 l 498 321 l 361 313 q 220 279 267 307 q 174 187 174 252 q 210 107 174 138 q 307 77 245 77 q 443 135 387 77 q 498 278 498 192 z "},"¯":{"ha":814,"x_min":33,"x_max":796,"o":"m 796 711 l 682 589 q 749 354 749 495 q 654 83 749 183 q 403 -16 560 -16 q 187 53 273 -16 l 89 -56 l 33 -3 l 134 109 q 65 339 65 201 q 161 612 65 514 q 420 711 258 711 q 629 644 545 711 l 739 764 l 796 711 m 557 567 q 411 617 503 617 q 241 544 303 617 q 179 343 179 471 q 213 191 179 254 l 557 567 m 604 503 l 260 129 q 410 77 319 77 q 578 148 520 77 q 636 347 636 218 q 604 503 636 438 z "},"¿":{"ha":623,"x_min":97,"x_max":562,"o":"m 424 427 q 435 381 430 410 q 439 326 439 353 q 422 247 439 282 q 379 182 405 212 q 323 123 353 151 q 267 66 292 95 q 223 6 241 37 q 206 -64 206 -26 q 219 -121 206 -96 q 253 -163 231 -146 q 303 -189 275 -180 q 363 -197 332 -197 q 562 -107 478 -197 l 562 -227 q 347 -292 458 -292 q 250 -278 296 -292 q 171 -238 205 -264 q 117 -171 137 -211 q 97 -78 97 -131 q 115 12 97 -28 q 159 84 132 51 q 217 145 186 117 q 275 202 248 174 q 319 260 302 230 q 337 328 337 291 q 330 384 337 359 q 315 427 322 410 l 424 427 m 363 709 q 416 688 393 709 q 438 635 438 667 q 416 582 438 604 q 363 559 393 559 q 310 582 332 559 q 288 635 288 604 q 310 688 288 667 q 363 709 333 709 z "}," ":{"ha":380,"x_min":0,"x_max":0,"o":""},"¡":{"ha":395,"x_min":122,"x_max":273,"o":"m 197 560 q 144 582 166 560 q 122 635 122 604 q 144 688 122 666 q 197 709 166 709 q 250 688 228 709 q 273 635 273 666 q 250 582 273 604 q 197 560 228 560 m 257 -275 l 140 -275 l 153 423 l 244 423 l 257 -275 z "},"¬":{"ha":950,"x_min":157,"x_max":795,"o":"m 795 172 l 705 172 l 705 464 l 157 464 l 157 554 l 795 554 l 795 172 z "},"ƒ":{"ha":749,"x_min":64,"x_max":646,"o":"m 646 859 q 572 878 613 878 q 457 769 473 878 l 436 628 l 549 628 l 549 534 l 422 534 l 361 95 q 125 -189 321 -189 q 64 -178 104 -189 l 64 -81 q 122 -95 88 -95 q 251 103 224 -95 l 313 534 l 243 534 l 243 628 l 327 628 l 346 777 q 417 919 357 865 q 567 972 476 972 q 646 960 610 972 l 646 859 z "},"≈":{"ha":951,"x_min":142,"x_max":810,"o":"m 810 651 q 755 497 805 552 q 620 442 705 442 q 440 515 546 442 q 332 562 374 562 q 233 442 237 562 l 142 442 q 196 595 145 540 q 332 651 246 651 q 492 591 404 651 q 625 530 581 530 q 692 564 667 530 q 718 651 717 597 l 810 651 m 810 372 q 755 218 805 273 q 620 163 705 163 q 440 236 546 163 q 332 281 376 281 q 233 163 237 281 l 142 163 q 196 316 145 260 q 332 372 246 372 q 492 313 404 372 q 625 251 581 251 q 692 285 667 251 q 718 372 717 319 l 810 372 z "},"∆":{"ha":895,"x_min":35,"x_max":863,"o":"m 863 0 l 35 0 l 35 52 l 388 972 l 506 972 l 863 52 l 863 0 m 717 103 l 472 760 q 446 856 450 819 l 444 856 q 416 760 439 823 l 178 103 l 717 103 z "},"«":{"ha":703,"x_min":62,"x_max":643,"o":"m 642 136 l 528 136 l 325 363 l 528 597 l 643 597 l 435 363 l 642 136 m 378 136 l 265 136 l 62 363 l 265 597 l 378 597 l 172 363 l 378 136 z "},"»":{"ha":703,"x_min":61,"x_max":643,"o":"m 643 365 l 439 136 l 327 136 l 532 365 l 327 597 l 439 597 l 643 365 m 379 365 l 176 136 l 61 136 l 270 365 l 61 597 l 176 597 l 379 365 z "},"…":{"ha":1018,"x_min":95,"x_max":924,"o":"m 849 -12 q 797 9 818 -12 q 775 62 775 31 q 797 116 775 94 q 849 139 818 139 q 902 116 880 139 q 924 62 924 94 q 902 9 924 31 q 849 -12 880 -12 m 509 -12 q 455 9 477 -12 q 433 62 433 31 q 455 116 433 94 q 509 139 477 139 q 561 116 539 139 q 583 62 583 94 q 561 9 583 31 q 509 -12 539 -12 m 168 -12 q 116 9 137 -12 q 95 62 95 31 q 116 116 95 94 q 168 139 137 139 q 221 116 199 139 q 243 62 243 94 q 221 9 243 31 q 168 -12 199 -12 z "},"À":{"ha":896,"x_min":15,"x_max":880,"o":"m 880 0 l 754 0 l 651 273 l 239 273 l 142 0 l 15 0 l 388 972 l 506 972 l 880 0 m 614 375 l 461 789 q 446 854 454 810 l 444 854 q 428 789 437 813 l 277 375 l 614 375 m 514 1062 l 428 1062 l 250 1284 l 364 1284 l 514 1062 z "},"Ã":{"ha":896,"x_min":15,"x_max":880,"o":"m 880 0 l 754 0 l 651 273 l 239 273 l 142 0 l 15 0 l 388 972 l 506 972 l 880 0 m 614 375 l 461 789 q 446 854 454 810 l 444 854 q 428 789 437 813 l 277 375 l 614 375 m 663 1223 q 630 1106 663 1152 q 542 1061 597 1061 q 432 1097 494 1061 q 351 1126 380 1126 q 292 1049 292 1126 l 228 1049 q 260 1165 228 1122 q 351 1209 293 1209 q 452 1174 395 1209 q 539 1144 503 1144 q 596 1223 596 1144 l 663 1223 z "},"Õ":{"ha":1047,"x_min":64,"x_max":983,"o":"m 519 -16 q 188 120 313 -16 q 64 475 64 256 q 191 849 64 709 q 536 989 317 989 q 860 853 737 989 q 983 498 983 718 q 857 122 983 260 q 519 -16 731 -16 m 528 886 q 279 775 374 886 q 183 485 183 665 q 276 196 183 305 q 519 86 370 86 q 772 191 680 86 q 864 483 864 295 q 774 781 864 675 q 528 886 685 886 m 748 1222 q 715 1106 748 1151 q 627 1061 683 1061 q 517 1096 579 1061 q 437 1125 465 1125 q 377 1048 377 1125 l 313 1048 q 346 1165 313 1121 q 437 1208 378 1208 q 538 1173 481 1208 q 625 1143 588 1143 q 682 1222 682 1143 l 748 1222 z "},"Œ":{"ha":1293,"x_min":64,"x_max":1227,"o":"m 1227 0 l 739 0 q 646 -9 728 0 q 522 -16 579 -16 q 187 120 311 -16 q 64 475 64 256 q 192 849 64 709 q 541 989 321 989 q 662 982 602 989 q 739 972 738 972 l 1206 972 l 1206 869 l 826 869 l 826 546 l 1177 546 l 1177 444 l 826 444 l 826 103 l 1227 103 l 1227 0 m 712 109 l 712 867 q 530 886 604 886 q 279 773 375 886 q 183 485 183 661 q 278 198 183 310 q 526 86 372 86 q 712 109 605 86 z "},"œ":{"ha":1289,"x_min":65,"x_max":1238,"o":"m 1238 319 l 746 319 q 808 140 748 203 q 972 77 868 77 q 1189 155 1091 77 l 1189 50 q 947 -16 1097 -16 q 688 144 764 -16 l 685 144 q 403 -16 596 -16 q 156 81 248 -16 q 65 338 65 178 q 161 612 65 513 q 420 711 258 711 q 693 551 620 711 l 696 551 q 957 711 777 711 q 1164 622 1090 711 q 1238 379 1238 532 l 1238 319 m 1124 414 q 1077 564 1122 510 q 953 617 1031 617 q 815 559 871 617 q 747 414 758 501 l 1124 414 m 411 617 q 241 544 304 617 q 179 340 179 470 q 241 148 179 218 q 410 77 304 77 q 576 147 517 77 q 635 345 635 216 q 576 547 635 476 q 411 617 517 617 z "},"–":{"ha":694,"x_min":0,"x_max":694,"o":"m 694 343 l 0 343 l 0 431 l 694 431 l 694 343 z "},"—":{"ha":1389,"x_min":0,"x_max":1389,"o":"m 1389 343 l 0 343 l 0 431 l 1389 431 l 1389 343 z "},"“":{"ha":524,"x_min":72,"x_max":453,"o":"m 453 989 l 378 686 l 278 686 l 374 989 l 453 989 m 247 989 l 174 686 l 72 686 l 167 989 l 247 989 z "},"”":{"ha":524,"x_min":75,"x_max":456,"o":"m 456 989 l 361 686 l 281 686 l 354 989 l 456 989 m 250 989 l 155 686 l 75 686 l 150 989 l 250 989 z "},"‘":{"ha":318,"x_min":72,"x_max":247,"o":"m 247 989 l 174 686 l 72 686 l 167 989 l 247 989 z "},"’":{"ha":318,"x_min":75,"x_max":250,"o":"m 250 989 l 155 686 l 75 686 l 150 989 l 250 989 z "},"÷":{"ha":950,"x_min":157,"x_max":795,"o":"m 480 589 q 430 609 450 589 q 410 660 410 630 q 429 712 410 690 q 480 734 449 734 q 550 661 550 734 q 529 609 550 629 q 480 589 509 589 m 795 359 l 157 359 l 157 450 l 795 450 l 795 359 m 477 76 q 427 96 448 76 q 406 146 406 117 q 426 199 406 176 q 477 221 446 221 q 546 147 546 221 q 526 96 546 117 q 477 76 507 76 z "},"ÿ":{"ha":672,"x_min":9,"x_max":665,"o":"m 665 694 l 346 -111 q 106 -327 260 -327 q 33 -318 62 -327 l 33 -218 q 99 -231 69 -231 q 225 -130 183 -231 l 281 1 l 9 694 l 133 694 l 321 160 q 335 107 324 150 l 339 107 q 353 159 342 123 l 550 694 l 665 694 m 467 826 q 420 845 440 826 q 401 893 401 864 q 420 941 401 922 q 466 960 439 960 q 514 940 494 960 q 534 893 534 921 q 515 846 534 865 q 467 826 496 826 m 207 826 q 158 846 178 826 q 138 893 138 866 q 158 941 138 922 q 205 960 177 960 q 253 940 233 960 q 273 893 273 921 q 254 846 273 865 q 207 826 234 826 z "},"Ÿ":{"ha":768,"x_min":12,"x_max":760,"o":"m 760 972 l 439 359 l 439 0 l 325 0 l 325 357 l 12 972 l 142 972 l 359 533 q 383 473 363 525 l 385 473 q 411 533 392 496 l 639 972 l 760 972 m 515 1061 q 468 1080 488 1061 q 448 1128 448 1099 q 467 1176 448 1157 q 513 1195 486 1195 q 562 1176 542 1195 q 581 1128 581 1156 q 562 1081 581 1101 q 515 1061 543 1061 m 254 1061 q 206 1081 226 1061 q 186 1128 186 1101 q 205 1176 186 1157 q 252 1195 224 1195 q 300 1176 280 1195 q 321 1128 321 1156 q 301 1081 321 1101 q 254 1061 281 1061 z "},"⁄":{"ha":240,"x_min":-212,"x_max":468,"o":"m 468 972 l -114 0 l -212 0 l 371 972 l 468 972 z "},"€":{"ha":749,"x_min":69,"x_max":688,"o":"m 688 34 q 496 -16 597 -16 q 151 327 207 -16 l 69 327 l 69 422 l 142 422 q 140 474 140 443 q 144 547 140 507 l 69 547 l 69 642 l 158 642 q 289 897 193 805 q 522 989 385 989 q 688 951 614 989 l 688 841 q 514 894 610 894 q 363 826 429 894 q 271 642 297 758 l 608 642 l 608 547 l 256 547 q 255 422 250 480 l 608 422 l 608 327 l 266 327 q 503 79 315 79 q 688 138 592 79 l 688 34 z "},"‹":{"ha":439,"x_min":62,"x_max":379,"o":"m 378 136 l 265 136 l 62 363 l 265 597 l 379 597 l 172 363 l 378 136 z "},"›":{"ha":439,"x_min":62,"x_max":379,"o":"m 379 365 l 175 136 l 62 136 l 269 365 l 62 597 l 175 597 l 379 365 z "},"‡":{"ha":521,"x_min":33,"x_max":494,"o":"m 494 352 l 289 366 l 316 155 l 210 155 l 237 366 l 33 352 l 33 454 l 210 433 l 250 564 l 210 694 l 33 673 l 33 775 l 237 762 l 210 972 l 316 972 l 289 762 l 494 775 l 494 673 l 316 694 l 277 564 l 316 433 l 494 454 l 494 352 z "},"·":{"ha":301,"x_min":76,"x_max":228,"o":"m 151 346 q 98 368 120 346 q 76 422 76 391 q 98 476 76 454 q 151 498 120 498 q 205 476 183 498 q 228 422 228 454 q 205 368 228 391 q 151 346 183 346 z "},"‚":{"ha":318,"x_min":60,"x_max":235,"o":"m 235 147 l 139 -155 l 60 -155 l 134 147 l 235 147 z "},"„":{"ha":524,"x_min":60,"x_max":440,"o":"m 440 147 l 346 -155 l 265 -155 l 339 147 l 440 147 m 235 147 l 139 -155 l 60 -155 l 134 147 l 235 147 z "},"‰":{"ha":1681,"x_min":54,"x_max":1626,"o":"m 274 485 q 114 551 174 485 q 54 728 54 617 q 117 918 54 848 q 288 987 180 987 q 449 923 391 987 q 506 742 506 859 q 442 555 506 625 q 274 485 378 485 m 283 913 q 182 865 219 913 q 144 734 144 817 q 181 606 144 652 q 281 560 218 560 q 380 608 345 560 q 416 739 416 655 q 381 867 416 821 q 283 913 345 913 m 926 972 l 301 -7 l 204 -7 l 829 972 l 926 972 m 1394 -15 q 1234 52 1294 -15 q 1175 228 1175 118 q 1239 418 1175 348 q 1408 489 1303 489 q 1569 424 1512 489 q 1626 241 1626 359 q 1563 55 1626 125 q 1394 -15 1499 -15 m 1404 412 q 1302 365 1339 412 q 1265 233 1265 317 q 1302 106 1265 152 q 1401 61 1338 61 q 1501 109 1466 61 q 1537 240 1537 157 q 1501 367 1537 322 q 1404 412 1466 412 m 853 -15 q 693 52 753 -15 q 633 228 633 118 q 697 419 633 349 q 867 489 761 489 q 1027 424 970 489 q 1085 241 1085 359 q 1021 55 1085 125 q 853 -15 957 -15 m 863 412 q 761 365 798 412 q 724 233 724 317 q 760 107 724 153 q 860 61 797 61 q 960 109 924 61 q 996 240 996 157 q 960 368 996 323 q 863 412 924 412 z "},"Â":{"ha":896,"x_min":15,"x_max":880,"o":"m 880 0 l 754 0 l 651 273 l 239 273 l 142 0 l 15 0 l 388 972 l 506 972 l 880 0 m 614 375 l 461 789 q 446 854 454 810 l 444 854 q 428 789 437 813 l 277 375 l 614 375 m 629 1061 l 546 1061 l 435 1217 l 323 1061 l 246 1061 l 392 1286 l 482 1286 l 629 1061 z "},"Ê":{"ha":703,"x_min":127,"x_max":643,"o":"m 643 0 l 127 0 l 127 972 l 621 972 l 621 869 l 241 869 l 241 546 l 593 546 l 593 444 l 241 444 l 241 103 l 643 103 l 643 0 m 561 1063 l 478 1063 l 367 1219 l 255 1063 l 178 1063 l 324 1288 l 414 1288 l 561 1063 z "},"Á":{"ha":896,"x_min":15,"x_max":880,"o":"m 880 0 l 754 0 l 651 273 l 239 273 l 142 0 l 15 0 l 388 972 l 506 972 l 880 0 m 614 375 l 461 789 q 446 854 454 810 l 444 854 q 428 789 437 813 l 277 375 l 614 375 m 588 1284 l 410 1062 l 324 1062 l 475 1284 l 588 1284 z "},"Ë":{"ha":703,"x_min":127,"x_max":643,"o":"m 643 0 l 127 0 l 127 972 l 621 972 l 621 869 l 241 869 l 241 546 l 593 546 l 593 444 l 241 444 l 241 103 l 643 103 l 643 0 m 508 1062 q 461 1081 481 1062 q 441 1129 441 1100 q 460 1177 441 1158 q 507 1196 479 1196 q 555 1176 535 1196 q 574 1129 574 1157 q 555 1082 574 1101 q 508 1062 536 1062 m 248 1062 q 199 1082 219 1062 q 179 1129 179 1102 q 198 1177 179 1158 q 245 1196 218 1196 q 294 1176 273 1196 q 314 1129 314 1157 q 294 1082 314 1101 q 248 1062 275 1062 z "},"È":{"ha":703,"x_min":127,"x_max":643,"o":"m 643 0 l 127 0 l 127 972 l 621 972 l 621 869 l 241 869 l 241 546 l 593 546 l 593 444 l 241 444 l 241 103 l 643 103 l 643 0 m 477 1062 l 391 1062 l 213 1284 l 327 1284 l 477 1062 z "},"Í":{"ha":370,"x_min":81,"x_max":345,"o":"m 241 0 l 127 0 l 127 972 l 241 972 l 241 0 m 345 1284 l 168 1062 l 81 1062 l 233 1284 l 345 1284 z "},"Î":{"ha":370,"x_min":-3,"x_max":380,"o":"m 241 0 l 127 0 l 127 972 l 241 972 l 241 0 m 380 1063 l 297 1063 l 186 1219 l 74 1063 l -3 1063 l 143 1288 l 233 1288 l 380 1063 z "},"Ï":{"ha":370,"x_min":-10,"x_max":385,"o":"m 241 0 l 127 0 l 127 972 l 241 972 l 241 0 m 319 1062 q 272 1081 292 1062 q 252 1129 252 1100 q 271 1177 252 1158 q 317 1196 290 1196 q 366 1176 346 1196 q 385 1129 385 1157 q 366 1082 385 1101 q 319 1062 347 1062 m 58 1062 q 10 1082 30 1062 q -10 1129 -10 1102 q 9 1177 -10 1158 q 56 1196 28 1196 q 104 1176 84 1196 q 125 1129 125 1157 q 105 1082 125 1101 q 58 1062 85 1062 z "},"Ì":{"ha":370,"x_min":18,"x_max":282,"o":"m 241 0 l 127 0 l 127 972 l 241 972 l 241 0 m 282 1062 l 196 1062 l 18 1284 l 132 1284 l 282 1062 z "},"Ó":{"ha":1047,"x_min":64,"x_max":983,"o":"m 519 -16 q 188 120 313 -16 q 64 475 64 256 q 191 849 64 709 q 536 989 317 989 q 860 853 737 989 q 983 498 983 718 q 857 122 983 260 q 519 -16 731 -16 m 528 886 q 279 775 374 886 q 183 485 183 665 q 276 196 183 305 q 519 86 370 86 q 772 191 680 86 q 864 483 864 295 q 774 781 864 675 q 528 886 685 886 m 697 1284 l 519 1062 l 433 1062 l 585 1284 l 697 1284 z "},"Ô":{"ha":1047,"x_min":64,"x_max":983,"o":"m 519 -16 q 188 120 313 -16 q 64 475 64 256 q 191 849 64 709 q 536 989 317 989 q 860 853 737 989 q 983 498 983 718 q 857 122 983 260 q 519 -16 731 -16 m 528 886 q 279 775 374 886 q 183 485 183 665 q 276 196 183 305 q 519 86 370 86 q 772 191 680 86 q 864 483 864 295 q 774 781 864 675 q 528 886 685 886 m 721 1062 l 638 1062 l 527 1218 l 415 1062 l 338 1062 l 484 1287 l 574 1287 l 721 1062 z "},"Ò":{"ha":1047,"x_min":64,"x_max":983,"o":"m 519 -16 q 188 120 313 -16 q 64 475 64 256 q 191 849 64 709 q 536 989 317 989 q 860 853 737 989 q 983 498 983 718 q 857 122 983 260 q 519 -16 731 -16 m 528 886 q 279 775 374 886 q 183 485 183 665 q 276 196 183 305 q 519 86 370 86 q 772 191 680 86 q 864 483 864 295 q 774 781 864 675 q 528 886 685 886 m 597 1062 l 511 1062 l 333 1284 l 447 1284 l 597 1062 z "},"Ú":{"ha":954,"x_min":115,"x_max":839,"o":"m 839 393 q 469 -16 839 -16 q 115 378 115 -16 l 115 972 l 229 972 l 229 385 q 481 86 229 86 q 725 375 725 86 l 725 972 l 839 972 l 839 393 m 651 1284 l 473 1061 l 387 1061 l 538 1284 l 651 1284 z "},"Û":{"ha":954,"x_min":115,"x_max":839,"o":"m 839 393 q 469 -16 839 -16 q 115 378 115 -16 l 115 972 l 229 972 l 229 385 q 481 86 229 86 q 725 375 725 86 l 725 972 l 839 972 l 839 393 m 669 1063 l 587 1063 l 475 1219 l 363 1063 l 287 1063 l 433 1288 l 523 1288 l 669 1063 z "},"Ù":{"ha":954,"x_min":115,"x_max":839,"o":"m 839 393 q 469 -16 839 -16 q 115 378 115 -16 l 115 972 l 229 972 l 229 385 q 481 86 229 86 q 725 375 725 86 l 725 972 l 839 972 l 839 393 m 563 1062 l 477 1062 l 299 1284 l 413 1284 l 563 1062 z "},"ı":{"ha":336,"x_min":113,"x_max":224,"o":"m 224 0 l 113 0 l 113 694 l 224 694 l 224 0 z "},"ˆ":{"ha":515,"x_min":62,"x_max":445,"o":"m 445 826 l 362 826 l 251 982 l 139 826 l 62 826 l 208 1051 l 298 1051 l 445 826 z "},"˜":{"ha":468,"x_min":24,"x_max":458,"o":"m 458 989 q 426 872 458 918 q 338 827 393 827 q 228 863 290 827 q 147 892 176 892 q 87 815 87 892 l 24 815 q 56 931 24 888 q 147 975 89 975 q 248 940 191 975 q 335 910 298 910 q 392 989 392 910 l 458 989 z "},"ˉ":{"ha":431,"x_min":42,"x_max":387,"o":"m 387 826 l 42 826 l 42 900 l 387 900 l 387 826 z "},"˚":{"ha":389,"x_min":56,"x_max":335,"o":"m 193 798 q 95 833 134 798 q 56 926 56 869 q 96 1024 56 987 q 197 1061 136 1061 q 296 1024 258 1061 q 335 930 335 987 q 294 836 335 873 q 193 798 252 798 m 193 1006 q 138 984 160 1006 q 117 929 117 962 q 193 853 117 853 q 249 875 227 853 q 271 929 271 897 q 249 984 271 962 q 193 1006 227 1006 z "},"¸":{"ha":285,"x_min":35,"x_max":265,"o":"m 265 -174 q 79 -293 265 -293 q 35 -292 53 -293 l 35 -231 q 82 -235 64 -235 q 178 -174 178 -235 q 90 -121 178 -121 q 62 -123 83 -121 l 62 0 l 136 0 l 136 -71 q 230 -98 195 -71 q 265 -174 265 -125 z "},"ˇ":{"ha":515,"x_min":69,"x_max":450,"o":"m 450 1050 l 305 826 l 216 826 l 69 1050 l 147 1050 l 258 895 l 370 1050 l 450 1050 z "},"Ł":{"ha":654,"x_min":22,"x_max":632,"o":"m 632 0 l 127 0 l 127 371 l 22 305 l 22 408 l 127 473 l 127 972 l 241 972 l 241 545 l 464 682 l 464 578 l 241 442 l 241 103 l 632 103 l 632 0 z "},"ł":{"ha":380,"x_min":15,"x_max":359,"o":"m 359 550 l 241 467 l 241 0 l 130 0 l 130 392 l 15 311 l 15 418 l 130 498 l 130 1028 l 241 1028 l 241 574 l 359 656 l 359 550 z "},"Š":{"ha":738,"x_min":82,"x_max":671,"o":"m 82 39 l 82 174 q 137 137 105 153 q 205 110 170 121 q 277 92 241 98 q 343 86 313 86 q 500 125 448 86 q 552 237 552 164 q 535 306 552 277 q 487 359 517 335 q 415 405 456 383 q 325 452 373 427 q 230 504 274 477 q 153 562 186 530 q 102 634 121 594 q 83 729 83 675 q 113 845 83 795 q 189 926 142 894 q 297 973 237 958 q 421 989 358 989 q 631 954 565 989 l 631 826 q 410 886 545 886 q 335 878 372 886 q 269 852 298 870 q 221 807 239 835 q 203 739 203 779 q 217 675 203 702 q 258 625 231 648 q 324 582 285 603 q 414 536 363 561 q 513 481 466 510 q 595 418 559 453 q 651 342 630 384 q 671 245 671 300 q 643 124 671 174 q 567 43 615 74 q 457 -2 519 12 q 326 -16 395 -16 q 269 -13 302 -16 q 199 -2 235 -9 q 133 16 164 5 q 82 39 101 26 m 560 1287 l 415 1063 l 326 1063 l 179 1287 l 257 1287 l 368 1132 l 479 1287 l 560 1287 z "},"š":{"ha":589,"x_min":71,"x_max":531,"o":"m 71 25 l 71 144 q 271 77 161 77 q 417 175 417 77 q 405 222 417 203 q 371 256 392 241 q 320 283 349 271 q 258 308 292 295 q 177 345 212 326 q 119 387 142 363 q 84 440 96 410 q 72 510 72 470 q 94 596 72 559 q 154 660 117 634 q 239 698 191 685 q 338 711 287 711 q 499 680 428 711 l 499 567 q 323 617 422 617 q 267 610 292 617 q 223 590 241 603 q 196 559 205 577 q 186 519 186 541 q 196 474 186 492 q 224 441 205 456 q 271 416 243 427 q 332 391 298 404 q 415 354 378 373 q 477 312 452 336 q 517 258 503 289 q 531 186 531 228 q 508 96 531 134 q 448 33 486 58 q 360 -4 410 8 q 256 -16 311 -16 q 71 25 149 -16 m 463 1050 l 317 826 l 228 826 l 81 1050 l 159 1050 l 271 895 l 382 1050 l 463 1050 z "},"Ž":{"ha":792,"x_min":22,"x_max":762,"o":"m 762 945 l 193 103 l 749 103 l 749 0 l 22 0 l 22 32 l 587 869 l 68 869 l 68 972 l 762 972 l 762 945 m 610 1285 l 465 1061 l 376 1061 l 229 1285 l 307 1285 l 418 1130 l 530 1285 l 610 1285 z "},"ž":{"ha":628,"x_min":22,"x_max":597,"o":"m 597 663 l 186 95 l 593 95 l 593 0 l 22 0 l 22 35 l 433 600 l 61 600 l 61 694 l 597 694 l 597 663 m 530 1050 l 385 826 l 296 826 l 149 1050 l 227 1050 l 338 895 l 450 1050 l 530 1050 z "},"¦":{"ha":332,"x_min":117,"x_max":217,"o":"m 217 485 l 117 485 l 117 1062 l 217 1062 l 217 485 m 217 -327 l 117 -327 l 117 251 l 217 251 l 217 -327 z "},"Ð":{"ha":974,"x_min":19,"x_max":910,"o":"m 127 0 l 127 435 l 19 435 l 19 540 l 127 540 l 127 972 l 396 972 q 910 498 910 972 q 767 136 910 272 q 385 0 625 0 l 127 0 m 241 869 l 241 540 l 469 540 l 469 435 l 241 435 l 241 103 l 387 103 q 684 205 578 103 q 791 496 791 308 q 393 869 791 869 l 241 869 z "},"ð":{"ha":777,"x_min":65,"x_max":711,"o":"m 533 656 l 536 659 q 401 839 475 768 l 199 736 l 164 803 l 347 892 q 168 1028 267 963 l 318 1028 q 435 936 369 993 l 631 1034 l 668 970 l 489 882 q 711 357 711 673 q 623 90 711 194 q 385 -15 536 -15 q 150 80 235 -15 q 65 339 65 175 q 153 607 65 504 q 391 709 241 709 q 533 656 474 709 m 395 617 q 237 544 294 617 q 179 343 179 470 q 235 149 179 220 q 392 77 292 77 q 542 151 486 77 q 597 346 597 224 q 395 617 597 617 z "},"Ý":{"ha":768,"x_min":12,"x_max":760,"o":"m 760 972 l 439 359 l 439 0 l 325 0 l 325 357 l 12 972 l 142 972 l 359 533 q 383 473 363 525 l 385 473 q 411 533 392 496 l 639 972 l 760 972 m 564 1284 l 386 1062 l 300 1062 l 451 1284 l 564 1284 z "},"ý":{"ha":672,"x_min":9,"x_max":665,"o":"m 665 694 l 346 -111 q 106 -327 260 -327 q 33 -318 62 -327 l 33 -218 q 99 -231 69 -231 q 225 -130 183 -231 l 281 1 l 9 694 l 133 694 l 321 160 q 335 107 324 150 l 339 107 q 353 159 342 123 l 550 694 l 665 694 m 517 1048 l 339 826 l 253 826 l 404 1048 l 517 1048 z "},"Þ":{"ha":778,"x_min":127,"x_max":722,"o":"m 241 216 l 241 0 l 127 0 l 127 972 l 241 972 l 241 819 l 395 819 q 637 744 552 819 q 722 529 722 668 q 626 303 722 391 q 368 216 530 216 l 241 216 m 241 717 l 241 318 l 361 318 q 541 371 478 318 q 603 522 603 424 q 375 717 603 717 l 241 717 z "},"þ":{"ha":817,"x_min":113,"x_max":751,"o":"m 227 100 l 224 100 l 224 -319 l 113 -319 l 113 1028 l 224 1028 l 224 572 l 227 572 q 467 711 309 711 q 676 617 601 711 q 751 368 751 524 q 667 89 751 193 q 435 -16 582 -16 q 227 100 300 -16 m 224 380 l 224 283 q 280 137 224 197 q 422 77 336 77 q 580 155 523 77 q 637 370 637 232 q 584 551 637 486 q 439 617 530 617 q 283 550 342 617 q 224 380 224 482 z "},"−":{"ha":950,"x_min":157,"x_max":795,"o":"m 795 359 l 157 359 l 157 450 l 795 450 l 795 359 z "},"×":{"ha":950,"x_min":182,"x_max":769,"o":"m 769 175 l 705 111 l 475 342 l 245 111 l 182 175 l 412 404 l 182 635 l 245 699 l 475 468 l 705 699 l 769 635 l 538 404 l 769 175 z "},"¹":{"ha":488,"x_min":86,"x_max":433,"o":"m 433 396 l 92 396 l 92 472 l 217 472 l 217 875 l 86 838 l 86 922 l 305 987 l 305 472 l 433 472 l 433 396 z "},"²":{"ha":509,"x_min":71,"x_max":446,"o":"m 446 396 l 71 396 l 71 473 l 233 633 q 323 740 304 703 q 342 814 342 777 q 316 878 342 853 q 248 903 290 903 q 102 833 168 903 l 102 935 q 261 986 159 986 q 388 941 341 986 q 435 823 435 897 q 296 587 435 720 l 184 481 l 184 479 l 446 479 l 446 396 z "},"³":{"ha":509,"x_min":87,"x_max":444,"o":"m 87 418 l 87 514 q 235 463 157 463 q 320 488 289 463 q 351 557 351 513 q 203 652 351 652 l 146 652 l 146 732 l 200 732 q 334 823 334 732 q 236 904 334 904 q 110 857 172 904 l 110 951 q 254 986 169 986 q 376 946 331 986 q 422 840 422 905 q 323 701 422 738 l 323 699 q 444 562 444 670 q 386 432 444 482 q 232 382 328 382 q 87 418 139 382 z "},"½":{"ha":1293,"x_min":86,"x_max":1185,"o":"m 433 396 l 92 396 l 92 472 l 217 472 l 217 875 l 86 838 l 86 922 l 305 987 l 305 472 l 433 472 l 433 396 m 945 972 l 363 0 l 265 0 l 848 972 l 945 972 m 1185 1 l 810 1 l 810 78 l 972 238 q 1062 344 1043 307 q 1081 418 1081 381 q 1055 483 1081 458 q 987 507 1029 507 q 841 438 907 507 l 841 539 q 1000 591 898 591 q 1127 546 1080 591 q 1174 428 1174 501 q 1035 192 1174 324 l 924 86 l 924 83 l 1185 83 l 1185 1 z "},"¼":{"ha":1259,"x_min":86,"x_max":1157,"o":"m 433 396 l 92 396 l 92 472 l 217 472 l 217 875 l 86 838 l 86 922 l 305 987 l 305 472 l 433 472 l 433 396 m 945 972 l 363 0 l 265 0 l 848 972 l 945 972 m 1157 138 l 1082 138 l 1082 0 l 993 0 l 993 138 l 726 138 l 726 201 l 977 576 l 1082 576 l 1082 212 l 1157 212 l 1157 138 m 996 491 l 993 491 q 967 441 985 470 l 819 212 l 993 212 l 993 431 q 996 491 993 453 z "},"¾":{"ha":1322,"x_min":87,"x_max":1201,"o":"m 87 418 l 87 514 q 235 463 157 463 q 320 488 289 463 q 351 557 351 513 q 203 652 351 652 l 146 652 l 146 732 l 200 732 q 334 823 334 732 q 236 904 334 904 q 110 857 172 904 l 110 951 q 254 986 169 986 q 376 946 331 986 q 422 840 422 905 q 323 701 422 738 l 323 699 q 444 562 444 670 q 386 432 444 482 q 232 382 328 382 q 87 418 139 382 m 993 972 l 411 0 l 313 0 l 896 972 l 993 972 m 1201 138 l 1126 138 l 1126 0 l 1037 0 l 1037 138 l 770 138 l 770 201 l 1021 576 l 1126 576 l 1126 212 l 1201 212 l 1201 138 m 1040 491 l 1037 491 q 1011 441 1029 470 l 863 212 l 1037 212 l 1037 431 q 1040 491 1037 453 z "},"¤":{"ha":772,"x_min":68,"x_max":704,"o":"m 704 240 l 642 175 l 549 269 q 387 217 477 217 q 224 269 294 217 l 130 175 l 68 240 l 161 331 q 110 492 110 408 q 161 652 110 579 l 68 745 l 130 810 l 224 717 q 387 769 298 769 q 547 717 474 769 l 642 810 l 704 745 l 611 652 q 664 492 664 576 q 611 331 664 410 l 704 240 m 387 680 q 254 625 308 680 q 200 493 200 570 q 255 361 200 416 q 387 307 309 307 q 518 361 463 307 q 574 493 574 416 q 517 625 574 570 q 387 680 461 680 z "},"⛣":{"ha":1389,"x_min":146,"x_max":1242,"o":"m 1101 1009 q 1093 971 1101 989 q 1073 940 1086 953 q 1042 919 1060 926 q 1004 911 1025 911 q 966 919 984 911 q 936 940 949 926 q 915 971 922 953 q 907 1009 907 989 q 915 1047 907 1029 q 936 1078 922 1065 q 966 1099 949 1091 q 1004 1106 984 1106 q 1042 1099 1025 1106 q 1073 1078 1060 1091 q 1093 1047 1086 1065 q 1101 1009 1101 1029 m 469 1009 q 461 971 469 989 q 440 940 454 953 q 410 919 427 926 q 372 911 392 911 q 333 919 351 911 q 302 940 315 926 q 281 971 289 953 q 273 1009 273 989 q 281 1047 273 1029 q 302 1078 289 1065 q 333 1099 315 1091 q 372 1106 351 1106 q 410 1099 392 1106 q 440 1078 427 1091 q 461 1047 454 1065 q 469 1009 469 1029 m 1242 384 q 1222 240 1242 310 q 1199 174 1213 206 q 1166 111 1185 142 q 1127 54 1149 81 q 1081 2 1105 27 q 1028 -43 1056 -22 q 969 -82 1000 -64 q 906 -113 939 -100 q 838 -136 874 -127 q 766 -150 802 -146 q 694 -153 730 -153 q 621 -149 656 -153 q 550 -136 585 -145 q 420 -81 481 -117 q 310 3 361 -47 q 263 54 285 27 q 222 112 241 81 q 190 174 204 142 q 167 240 176 206 q 146 384 146 310 q 156 487 146 438 q 185 583 166 536 q 231 671 204 630 q 290 747 258 712 q 445 864 355 819 q 538 901 490 887 q 637 921 587 915 l 637 1160 l 745 1160 l 745 922 q 843 905 797 919 q 936 869 889 892 q 1021 817 981 846 q 1096 751 1061 787 q 1156 674 1130 715 q 1202 586 1183 633 q 1242 384 1242 492 m 1112 384 q 1104 470 1112 429 q 1080 550 1096 511 q 1042 623 1065 589 q 992 686 1020 657 q 930 737 964 715 q 859 776 897 760 q 694 809 783 809 q 530 776 607 809 q 397 684 454 744 q 309 551 341 627 q 277 384 277 475 q 309 218 277 295 q 347 147 325 180 q 397 83 368 114 q 528 -7 452 26 q 609 -32 568 -23 q 694 -40 650 -40 q 859 -7 783 -40 q 931 33 898 9 q 992 85 964 56 q 1042 148 1020 114 q 1080 220 1065 182 q 1104 299 1096 258 q 1112 384 1112 340 z "},"⃣":{"ha":0,"x_min":-486,"x_max":486,"o":"m -486 972 l 486 972 l 486 0 l -486 0 l -486 972 m -402 84 l 402 84 l 402 888 l -402 888 l -402 84 z "}," ":{"ha":694,"x_min":0,"x_max":0,"o":""}," ":{"ha":1389,"x_min":0,"x_max":0,"o":""}," ":{"ha":347,"x_min":0,"x_max":0,"o":""},"⛝":{"ha":1389,"x_min":96,"x_max":1291,"o":"m 96 1112 l 1291 1112 l 1291 -83 l 96 -83 l 96 1112 m 271 -14 l 1116 -14 l 694 409 l 271 -14 m 1222 93 l 1222 937 l 802 515 l 1222 93 m 166 937 l 166 96 l 585 516 l 166 937 m 693 623 l 1112 1042 l 275 1042 l 693 623 z "},"☐":{"ha":1196,"x_min":112,"x_max":1084,"o":"m 112 972 l 1084 972 l 1084 0 l 112 0 l 112 972 m 1000 84 l 1000 888 l 196 888 l 196 84 l 1000 84 z "},"☒":{"ha":1196,"x_min":112,"x_max":1084,"o":"m 112 972 l 1084 972 l 1084 0 l 112 0 l 112 972 m 1000 84 l 1000 888 l 196 888 l 196 84 l 1000 84 m 662 486 l 952 196 l 888 132 l 598 422 l 308 132 l 244 196 l 534 486 l 244 777 l 308 841 l 598 550 l 888 841 l 952 777 l 662 486 z "},"▼":{"ha":1196,"x_min":54,"x_max":1142,"o":"m 54 972 l 1142 972 l 598 0 l 54 972 z "},"▲":{"ha":1196,"x_min":54,"x_max":1142,"o":"m 598 972 l 1142 0 l 54 0 l 598 972 z "},"✓":{"ha":1040,"x_min":64,"x_max":977,"o":"m 100 332 q 74 360 84 347 q 64 382 64 372 q 73 400 64 392 q 95 413 82 408 q 122 420 108 418 q 147 422 137 422 q 165 417 158 422 q 182 403 172 412 q 297 266 245 339 q 393 121 349 193 q 591 576 478 355 q 844 989 703 796 q 887 1018 858 1008 q 951 1028 916 1028 q 970 1024 963 1028 q 977 1011 977 1019 q 975 997 977 1003 q 965 982 972 991 q 819 773 890 882 q 684 543 748 664 q 562 289 619 422 q 456 9 504 156 q 448 2 454 5 q 433 -3 442 -1 q 414 -6 425 -5 q 392 -7 403 -7 q 363 -4 376 -7 q 345 9 351 -1 q 284 107 312 65 q 228 186 256 150 q 169 258 199 223 q 100 332 138 292 z "},"✕":{"ha":1135,"x_min":64,"x_max":1071,"o":"m 504 486 l 64 926 l 127 989 l 567 549 l 1007 989 l 1071 926 l 631 486 l 1071 46 l 1007 -17 l 567 422 l 127 -17 l 64 46 l 504 486 z "},"✗":{"ha":1135,"x_min":161,"x_max":978,"o":"m 367 960 l 376 939 q 464 756 420 844 q 554 583 508 669 q 710 798 630 693 q 876 1004 790 903 q 893 1020 886 1015 q 908 1028 901 1025 l 909 1013 l 933 1028 l 922 1002 l 957 1018 l 949 997 l 971 1000 l 950 972 l 978 985 q 971 972 975 977 q 964 961 968 966 q 781 731 869 849 q 608 485 692 614 q 721 292 661 391 q 848 82 780 193 q 857 66 853 75 q 867 46 861 58 l 848 47 l 852 24 l 823 41 l 835 7 l 810 18 l 808 0 l 785 29 l 789 5 l 774 22 l 774 16 q 650 206 706 116 q 545 383 594 296 q 402 139 471 265 q 269 -123 334 13 l 258 -143 l 249 -132 l 232 -154 l 232 -121 l 207 -154 l 207 -127 l 183 -144 l 195 -103 l 168 -125 l 172 -100 l 161 -107 q 165 -95 163 -100 q 170 -83 166 -90 q 317 200 237 58 q 489 484 397 342 q 440 575 467 524 q 387 681 414 626 q 333 792 359 736 q 286 897 307 848 l 273 926 l 293 913 l 285 947 l 302 936 l 298 962 l 326 939 l 315 971 l 334 958 l 334 972 l 350 951 l 347 970 l 367 949 l 367 960 z "},"✘":{"ha":1135,"x_min":110,"x_max":989,"o":"m 989 949 q 981 932 985 939 q 971 918 977 926 q 805 699 885 806 q 652 479 726 591 q 694 402 672 441 q 742 319 717 363 q 797 228 768 276 q 860 125 826 180 q 874 97 868 111 q 884 71 881 83 l 868 79 l 875 57 l 861 56 l 869 22 l 832 53 l 843 7 l 822 18 l 812 -14 l 774 25 l 782 -17 l 761 3 l 757 -5 l 746 7 l 745 -9 q 726 11 733 2 q 713 29 719 19 q 625 173 667 103 q 545 311 583 243 q 483 210 513 260 q 423 106 453 159 q 361 -7 393 52 q 294 -136 330 -66 l 289 -146 q 283 -157 287 -151 q 273 -169 279 -163 q 258 -184 267 -176 l 253 -160 l 218 -195 l 229 -140 l 186 -178 l 186 -151 l 150 -168 l 171 -119 l 132 -149 l 142 -117 l 121 -121 l 140 -81 l 110 -100 q 115 -83 112 -92 q 123 -65 118 -74 q 278 216 196 79 q 449 485 359 352 q 356 662 401 574 q 265 843 311 750 q 257 861 261 852 q 252 878 254 870 l 269 873 l 257 908 l 278 907 l 275 942 l 315 905 l 298 964 l 329 942 l 329 972 l 367 935 l 357 971 l 385 946 l 395 966 q 411 941 405 953 q 427 914 418 930 q 497 773 464 838 q 561 647 530 708 q 811 989 682 818 q 831 1010 821 1000 q 856 1026 841 1020 l 851 1008 l 878 1028 l 869 989 l 917 1025 l 918 994 l 956 1007 l 932 961 l 974 990 l 964 961 l 983 972 l 964 937 l 989 949 z "},"Ⓐ":{"ha":1196,"x_min":95,"x_max":1101,"o":"m 867 180 l 787 180 l 722 352 l 463 352 l 401 180 l 321 180 l 556 793 l 631 793 l 867 180 m 699 416 l 602 677 q 593 719 597 690 l 591 719 q 582 677 587 692 l 486 416 l 699 416 m 95 486 q 113 618 95 554 q 164 738 132 682 q 243 840 197 794 q 345 919 290 886 q 465 970 401 952 q 597 989 529 989 q 730 970 666 989 q 850 919 794 952 q 952 840 906 886 q 1032 738 999 794 q 1083 618 1065 682 q 1101 486 1101 554 q 1083 353 1101 416 q 1032 233 1065 289 q 952 131 999 177 q 850 52 906 85 q 730 1 794 19 q 597 -17 666 -17 q 465 1 528 -17 q 345 52 401 19 q 243 131 289 85 q 164 233 197 177 q 113 353 131 289 q 95 486 95 417 m 179 486 q 212 323 179 399 q 302 190 245 247 q 435 100 359 133 q 597 67 511 67 q 760 100 684 67 q 893 191 836 134 q 984 323 951 248 q 1017 486 1017 399 q 1002 596 1017 543 q 959 696 987 650 q 893 782 932 743 q 808 847 854 820 q 708 890 762 875 q 597 905 655 905 q 435 871 511 905 q 302 781 359 838 q 212 648 245 724 q 179 486 179 572 z "},"Ⓑ":{"ha":1196,"x_min":95,"x_max":1101,"o":"m 446 180 l 446 793 l 621 793 q 747 754 701 793 q 793 653 793 715 q 765 563 793 601 q 688 508 737 524 l 688 506 q 787 459 749 498 q 824 357 824 420 q 767 229 824 278 q 625 180 711 180 l 446 180 m 518 728 l 518 530 l 592 530 q 685 559 651 530 q 718 639 718 587 q 601 728 718 728 l 518 728 m 518 466 l 518 245 l 616 245 q 714 275 679 245 q 749 357 749 305 q 601 466 749 466 l 518 466 m 95 486 q 113 618 95 554 q 164 738 132 682 q 243 840 197 794 q 345 919 290 886 q 465 970 401 952 q 597 989 529 989 q 730 970 666 989 q 850 919 794 952 q 952 840 906 886 q 1032 738 999 794 q 1083 618 1065 682 q 1101 486 1101 554 q 1083 353 1101 416 q 1032 233 1065 289 q 952 131 999 177 q 850 52 906 85 q 730 1 794 19 q 597 -17 666 -17 q 465 1 528 -17 q 345 52 401 19 q 243 131 289 85 q 164 233 197 177 q 113 353 131 289 q 95 486 95 417 m 179 486 q 212 323 179 399 q 302 190 245 247 q 435 100 359 133 q 597 67 511 67 q 760 100 684 67 q 893 191 836 134 q 984 323 951 248 q 1017 486 1017 399 q 1002 596 1017 543 q 959 696 987 650 q 893 782 932 743 q 808 847 854 820 q 708 890 762 875 q 597 905 655 905 q 435 871 511 905 q 302 781 359 838 q 212 648 245 724 q 179 486 179 572 z "},"Ⓒ":{"ha":1196,"x_min":95,"x_max":1101,"o":"m 775 206 q 606 170 707 170 q 397 254 475 170 q 318 475 318 338 q 407 713 318 622 q 631 804 495 804 q 775 778 718 804 l 775 702 q 630 739 709 739 q 459 668 525 739 q 393 479 393 597 q 455 301 393 368 q 616 235 516 235 q 775 275 708 235 l 775 206 m 95 486 q 113 618 95 554 q 164 738 132 682 q 243 840 197 794 q 345 919 290 886 q 465 970 401 952 q 597 989 529 989 q 730 970 666 989 q 850 919 794 952 q 952 840 906 886 q 1032 738 999 794 q 1083 618 1065 682 q 1101 486 1101 554 q 1083 353 1101 416 q 1032 233 1065 289 q 952 131 999 177 q 850 52 906 85 q 730 1 794 19 q 597 -17 666 -17 q 465 1 528 -17 q 345 52 401 19 q 243 131 289 85 q 164 233 197 177 q 113 353 131 289 q 95 486 95 417 m 179 486 q 212 323 179 399 q 302 190 245 247 q 435 100 359 133 q 597 67 511 67 q 760 100 684 67 q 893 191 836 134 q 984 323 951 248 q 1017 486 1017 399 q 1002 596 1017 543 q 959 696 987 650 q 893 782 932 743 q 808 847 854 820 q 708 890 762 875 q 597 905 655 905 q 435 871 511 905 q 302 781 359 838 q 212 648 245 724 q 179 486 179 572 z "},"Ⓓ":{"ha":1196,"x_min":95,"x_max":1101,"o":"m 406 180 l 406 793 l 575 793 q 899 494 899 793 q 809 267 899 353 q 568 180 719 180 l 406 180 m 477 728 l 477 245 l 569 245 q 757 310 690 245 q 824 493 824 374 q 573 728 824 728 l 477 728 m 95 486 q 113 618 95 554 q 164 738 132 682 q 243 840 197 794 q 345 919 290 886 q 465 970 401 952 q 597 989 529 989 q 730 970 666 989 q 850 919 794 952 q 952 840 906 886 q 1032 738 999 794 q 1083 618 1065 682 q 1101 486 1101 554 q 1083 353 1101 416 q 1032 233 1065 289 q 952 131 999 177 q 850 52 906 85 q 730 1 794 19 q 597 -17 666 -17 q 465 1 528 -17 q 345 52 401 19 q 243 131 289 85 q 164 233 197 177 q 113 353 131 289 q 95 486 95 417 m 179 486 q 212 323 179 399 q 302 190 245 247 q 435 100 359 133 q 597 67 511 67 q 760 100 684 67 q 893 191 836 134 q 984 323 951 248 q 1017 486 1017 399 q 1002 596 1017 543 q 959 696 987 650 q 893 782 932 743 q 808 847 854 820 q 708 890 762 875 q 597 905 655 905 q 435 871 511 905 q 302 781 359 838 q 212 648 245 724 q 179 486 179 572 z "},"Ⓔ":{"ha":1196,"x_min":95,"x_max":1101,"o":"m 764 180 l 439 180 l 439 793 l 751 793 l 751 728 l 511 728 l 511 524 l 733 524 l 733 460 l 511 460 l 511 245 l 764 245 l 764 180 m 95 486 q 113 618 95 554 q 164 738 132 682 q 243 840 197 794 q 345 919 290 886 q 465 970 401 952 q 597 989 529 989 q 730 970 666 989 q 850 919 794 952 q 952 840 906 886 q 1032 738 999 794 q 1083 618 1065 682 q 1101 486 1101 554 q 1083 353 1101 416 q 1032 233 1065 289 q 952 131 999 177 q 850 52 906 85 q 730 1 794 19 q 597 -17 666 -17 q 465 1 528 -17 q 345 52 401 19 q 243 131 289 85 q 164 233 197 177 q 113 353 131 289 q 95 486 95 417 m 179 486 q 212 323 179 399 q 302 190 245 247 q 435 100 359 133 q 597 67 511 67 q 760 100 684 67 q 893 191 836 134 q 984 323 951 248 q 1017 486 1017 399 q 1002 596 1017 543 q 959 696 987 650 q 893 782 932 743 q 808 847 854 820 q 708 890 762 875 q 597 905 655 905 q 435 871 511 905 q 302 781 359 838 q 212 648 245 724 q 179 486 179 572 z "},"Ⓕ":{"ha":1196,"x_min":95,"x_max":1101,"o":"m 758 728 l 518 728 l 518 516 l 740 516 l 740 452 l 518 452 l 518 180 l 446 180 l 446 793 l 758 793 l 758 728 m 95 486 q 113 618 95 554 q 164 738 132 682 q 243 840 197 794 q 345 919 290 886 q 465 970 401 952 q 597 989 529 989 q 730 970 666 989 q 850 919 794 952 q 952 840 906 886 q 1032 738 999 794 q 1083 618 1065 682 q 1101 486 1101 554 q 1083 353 1101 416 q 1032 233 1065 289 q 952 131 999 177 q 850 52 906 85 q 730 1 794 19 q 597 -17 666 -17 q 465 1 528 -17 q 345 52 401 19 q 243 131 289 85 q 164 233 197 177 q 113 353 131 289 q 95 486 95 417 m 179 486 q 212 323 179 399 q 302 190 245 247 q 435 100 359 133 q 597 67 511 67 q 760 100 684 67 q 893 191 836 134 q 984 323 951 248 q 1017 486 1017 399 q 1002 596 1017 543 q 959 696 987 650 q 893 782 932 743 q 808 847 854 820 q 708 890 762 875 q 597 905 655 905 q 435 871 511 905 q 302 781 359 838 q 212 648 245 724 q 179 486 179 572 z "},"Ⓖ":{"ha":1196,"x_min":95,"x_max":1101,"o":"m 796 222 q 591 170 704 170 q 379 255 460 170 q 298 479 298 339 q 388 712 298 621 q 616 804 477 804 q 784 771 715 804 l 784 691 q 608 739 709 739 q 439 668 505 739 q 373 484 373 597 q 434 301 373 368 q 600 235 495 235 q 724 263 671 235 l 724 435 l 590 435 l 590 500 l 796 500 l 796 222 m 95 486 q 113 618 95 554 q 164 738 132 682 q 243 840 197 794 q 345 919 290 886 q 465 970 401 952 q 597 989 529 989 q 730 970 666 989 q 850 919 794 952 q 952 840 906 886 q 1032 738 999 794 q 1083 618 1065 682 q 1101 486 1101 554 q 1083 353 1101 416 q 1032 233 1065 289 q 952 131 999 177 q 850 52 906 85 q 730 1 794 19 q 597 -17 666 -17 q 465 1 528 -17 q 345 52 401 19 q 243 131 289 85 q 164 233 197 177 q 113 353 131 289 q 95 486 95 417 m 179 486 q 212 323 179 399 q 302 190 245 247 q 435 100 359 133 q 597 67 511 67 q 760 100 684 67 q 893 191 836 134 q 984 323 951 248 q 1017 486 1017 399 q 1002 596 1017 543 q 959 696 987 650 q 893 782 932 743 q 808 847 854 820 q 708 890 762 875 q 597 905 655 905 q 435 871 511 905 q 302 781 359 838 q 212 648 245 724 q 179 486 179 572 z "},"Ⓗ":{"ha":1196,"x_min":95,"x_max":1101,"o":"m 826 180 l 754 180 l 754 460 l 437 460 l 437 180 l 365 180 l 365 793 l 437 793 l 437 524 l 754 524 l 754 793 l 826 793 l 826 180 m 95 486 q 113 618 95 554 q 164 738 132 682 q 243 840 197 794 q 345 919 290 886 q 465 970 401 952 q 597 989 529 989 q 730 970 666 989 q 850 919 794 952 q 952 840 906 886 q 1032 738 999 794 q 1083 618 1065 682 q 1101 486 1101 554 q 1083 353 1101 416 q 1032 233 1065 289 q 952 131 999 177 q 850 52 906 85 q 730 1 794 19 q 597 -17 666 -17 q 465 1 528 -17 q 345 52 401 19 q 243 131 289 85 q 164 233 197 177 q 113 353 131 289 q 95 486 95 417 m 179 486 q 212 323 179 399 q 302 190 245 247 q 435 100 359 133 q 597 67 511 67 q 760 100 684 67 q 893 191 836 134 q 984 323 951 248 q 1017 486 1017 399 q 1002 596 1017 543 q 959 696 987 650 q 893 782 932 743 q 808 847 854 820 q 708 890 762 875 q 597 905 655 905 q 435 871 511 905 q 302 781 359 838 q 212 648 245 724 q 179 486 179 572 z "},"Ⓘ":{"ha":1196,"x_min":95,"x_max":1101,"o":"m 693 793 l 693 732 l 633 732 l 633 242 l 693 242 l 693 180 l 502 180 l 502 242 l 562 242 l 562 732 l 502 732 l 502 793 l 693 793 m 95 486 q 113 618 95 554 q 164 738 132 682 q 243 840 197 794 q 345 919 290 886 q 465 970 401 952 q 597 989 529 989 q 730 970 666 989 q 850 919 794 952 q 952 840 906 886 q 1032 738 999 794 q 1083 618 1065 682 q 1101 486 1101 554 q 1083 353 1101 416 q 1032 233 1065 289 q 952 131 999 177 q 850 52 906 85 q 730 1 794 19 q 597 -17 666 -17 q 465 1 528 -17 q 345 52 401 19 q 243 131 289 85 q 164 233 197 177 q 113 353 131 289 q 95 486 95 417 m 179 486 q 212 323 179 399 q 302 190 245 247 q 435 100 359 133 q 597 67 511 67 q 760 100 684 67 q 893 191 836 134 q 984 323 951 248 q 1017 486 1017 399 q 1002 596 1017 543 q 959 696 987 650 q 893 782 932 743 q 808 847 854 820 q 708 890 762 875 q 597 905 655 905 q 435 871 511 905 q 302 781 359 838 q 212 648 245 724 q 179 486 179 572 z "},"Ⓙ":{"ha":1196,"x_min":95,"x_max":1101,"o":"m 685 400 q 639 231 685 291 q 515 170 593 170 q 456 180 479 170 l 456 252 q 516 235 479 235 q 613 399 613 235 l 613 793 l 685 793 l 685 400 m 95 486 q 113 618 95 554 q 164 738 132 682 q 243 840 197 794 q 345 919 290 886 q 465 970 401 952 q 597 989 529 989 q 730 970 666 989 q 850 919 794 952 q 952 840 906 886 q 1032 738 999 794 q 1083 618 1065 682 q 1101 486 1101 554 q 1083 353 1101 416 q 1032 233 1065 289 q 952 131 999 177 q 850 52 906 85 q 730 1 794 19 q 597 -17 666 -17 q 465 1 528 -17 q 345 52 401 19 q 243 131 289 85 q 164 233 197 177 q 113 353 131 289 q 95 486 95 417 m 179 486 q 212 323 179 399 q 302 190 245 247 q 435 100 359 133 q 597 67 511 67 q 760 100 684 67 q 893 191 836 134 q 984 323 951 248 q 1017 486 1017 399 q 1002 596 1017 543 q 959 696 987 650 q 893 782 932 743 q 808 847 854 820 q 708 890 762 875 q 597 905 655 905 q 435 871 511 905 q 302 781 359 838 q 212 648 245 724 q 179 486 179 572 z "},"Ⓚ":{"ha":1196,"x_min":95,"x_max":1101,"o":"m 819 180 l 719 180 l 482 460 q 466 482 469 477 l 464 482 l 464 180 l 392 180 l 392 793 l 464 793 l 464 505 l 466 505 q 482 526 472 515 l 711 793 l 800 793 l 538 499 l 819 180 m 95 486 q 113 618 95 554 q 164 738 132 682 q 243 840 197 794 q 345 919 290 886 q 465 970 401 952 q 597 989 529 989 q 730 970 666 989 q 850 919 794 952 q 952 840 906 886 q 1032 738 999 794 q 1083 618 1065 682 q 1101 486 1101 554 q 1083 353 1101 416 q 1032 233 1065 289 q 952 131 999 177 q 850 52 906 85 q 730 1 794 19 q 597 -17 666 -17 q 465 1 528 -17 q 345 52 401 19 q 243 131 289 85 q 164 233 197 177 q 113 353 131 289 q 95 486 95 417 m 179 486 q 212 323 179 399 q 302 190 245 247 q 435 100 359 133 q 597 67 511 67 q 760 100 684 67 q 893 191 836 134 q 984 323 951 248 q 1017 486 1017 399 q 1002 596 1017 543 q 959 696 987 650 q 893 782 932 743 q 808 847 854 820 q 708 890 762 875 q 597 905 655 905 q 435 871 511 905 q 302 781 359 838 q 212 648 245 724 q 179 486 179 572 z "},"Ⓛ":{"ha":1196,"x_min":95,"x_max":1101,"o":"m 771 180 l 453 180 l 453 793 l 525 793 l 525 245 l 771 245 l 771 180 m 95 486 q 113 618 95 554 q 164 738 132 682 q 243 840 197 794 q 345 919 290 886 q 465 970 401 952 q 597 989 529 989 q 730 970 666 989 q 850 919 794 952 q 952 840 906 886 q 1032 738 999 794 q 1083 618 1065 682 q 1101 486 1101 554 q 1083 353 1101 416 q 1032 233 1065 289 q 952 131 999 177 q 850 52 906 85 q 730 1 794 19 q 597 -17 666 -17 q 465 1 528 -17 q 345 52 401 19 q 243 131 289 85 q 164 233 197 177 q 113 353 131 289 q 95 486 95 417 m 179 486 q 212 323 179 399 q 302 190 245 247 q 435 100 359 133 q 597 67 511 67 q 760 100 684 67 q 893 191 836 134 q 984 323 951 248 q 1017 486 1017 399 q 1002 596 1017 543 q 959 696 987 650 q 893 782 932 743 q 808 847 854 820 q 708 890 762 875 q 597 905 655 905 q 435 871 511 905 q 302 781 359 838 q 212 648 245 724 q 179 486 179 572 z "},"Ⓝ":{"ha":1196,"x_min":95,"x_max":1101,"o":"m 846 180 l 758 180 l 442 669 q 422 707 430 687 l 420 707 q 423 623 423 688 l 423 180 l 351 180 l 351 793 l 445 793 l 751 313 q 777 271 770 283 l 778 271 q 774 361 774 298 l 774 793 l 846 793 l 846 180 m 95 486 q 113 618 95 554 q 164 738 132 682 q 243 840 197 794 q 345 919 290 886 q 465 970 401 952 q 597 989 529 989 q 730 970 666 989 q 850 919 794 952 q 952 840 906 886 q 1032 738 999 794 q 1083 618 1065 682 q 1101 486 1101 554 q 1083 353 1101 416 q 1032 233 1065 289 q 952 131 999 177 q 850 52 906 85 q 730 1 794 19 q 597 -17 666 -17 q 465 1 528 -17 q 345 52 401 19 q 243 131 289 85 q 164 233 197 177 q 113 353 131 289 q 95 486 95 417 m 179 486 q 212 323 179 399 q 302 190 245 247 q 435 100 359 133 q 597 67 511 67 q 760 100 684 67 q 893 191 836 134 q 984 323 951 248 q 1017 486 1017 399 q 1002 596 1017 543 q 959 696 987 650 q 893 782 932 743 q 808 847 854 820 q 708 890 762 875 q 597 905 655 905 q 435 871 511 905 q 302 781 359 838 q 212 648 245 724 q 179 486 179 572 z "},"Ⓞ":{"ha":1196,"x_min":95,"x_max":1101,"o":"m 599 170 q 390 256 468 170 q 311 479 311 342 q 391 715 311 627 q 609 804 471 804 q 813 718 736 804 q 890 494 890 633 q 811 257 890 345 q 599 170 732 170 m 604 739 q 447 669 507 739 q 387 486 387 599 q 445 303 387 372 q 599 235 504 235 q 758 300 699 235 q 816 485 816 366 q 759 672 816 606 q 604 739 703 739 m 95 486 q 113 618 95 554 q 164 738 132 682 q 243 840 197 794 q 345 919 290 886 q 465 970 401 952 q 597 989 529 989 q 730 970 666 989 q 850 919 794 952 q 952 840 906 886 q 1032 738 999 794 q 1083 618 1065 682 q 1101 486 1101 554 q 1083 353 1101 416 q 1032 233 1065 289 q 952 131 999 177 q 850 52 906 85 q 730 1 794 19 q 597 -17 666 -17 q 465 1 528 -17 q 345 52 401 19 q 243 131 289 85 q 164 233 197 177 q 113 353 131 289 q 95 486 95 417 m 179 486 q 212 323 179 399 q 302 190 245 247 q 435 100 359 133 q 597 67 511 67 q 760 100 684 67 q 893 191 836 134 q 984 323 951 248 q 1017 486 1017 399 q 1002 596 1017 543 q 959 696 987 650 q 893 782 932 743 q 808 847 854 820 q 708 890 762 875 q 597 905 655 905 q 435 871 511 905 q 302 781 359 838 q 212 648 245 724 q 179 486 179 572 z "},"Ⓟ":{"ha":1196,"x_min":95,"x_max":1101,"o":"m 525 412 l 525 180 l 453 180 l 453 793 l 622 793 q 774 745 720 793 q 828 610 828 697 q 768 467 828 523 q 606 412 708 412 l 525 412 m 525 728 l 525 477 l 600 477 q 714 511 675 477 q 753 607 753 545 q 609 728 753 728 l 525 728 m 95 486 q 113 618 95 554 q 164 738 132 682 q 243 840 197 794 q 345 919 290 886 q 465 970 401 952 q 597 989 529 989 q 730 970 666 989 q 850 919 794 952 q 952 840 906 886 q 1032 738 999 794 q 1083 618 1065 682 q 1101 486 1101 554 q 1083 353 1101 416 q 1032 233 1065 289 q 952 131 999 177 q 850 52 906 85 q 730 1 794 19 q 597 -17 666 -17 q 465 1 528 -17 q 345 52 401 19 q 243 131 289 85 q 164 233 197 177 q 113 353 131 289 q 95 486 95 417 m 179 486 q 212 323 179 399 q 302 190 245 247 q 435 100 359 133 q 597 67 511 67 q 760 100 684 67 q 893 191 836 134 q 984 323 951 248 q 1017 486 1017 399 q 1002 596 1017 543 q 959 696 987 650 q 893 782 932 743 q 808 847 854 820 q 708 890 762 875 q 597 905 655 905 q 435 871 511 905 q 302 781 359 838 q 212 648 245 724 q 179 486 179 572 z "},"Ⓠ":{"ha":1196,"x_min":95,"x_max":1101,"o":"m 594 170 q 476 195 529 170 q 387 261 424 219 q 331 359 351 303 q 311 479 311 416 q 331 610 311 551 q 389 712 351 669 q 482 780 427 755 q 610 804 538 804 q 728 780 676 804 q 817 714 781 755 q 871 615 852 672 q 890 494 890 559 q 878 385 890 437 q 838 292 865 333 q 772 221 812 250 q 677 180 732 193 l 750 111 l 677 83 q 637 125 659 102 q 594 170 616 149 m 604 739 q 510 718 551 739 q 443 663 470 698 q 401 582 415 628 q 387 486 387 536 q 400 389 387 435 q 440 310 414 344 q 507 255 467 275 q 599 235 547 235 q 694 254 654 235 q 762 306 735 273 q 803 385 789 339 q 816 485 816 431 q 803 585 816 538 q 765 665 791 631 q 699 719 739 699 q 604 739 659 739 m 95 486 q 113 618 95 554 q 164 738 132 682 q 243 840 197 794 q 345 919 290 886 q 465 970 401 952 q 597 989 529 989 q 730 970 666 989 q 850 919 794 952 q 952 840 906 886 q 1032 738 999 794 q 1083 618 1065 682 q 1101 486 1101 554 q 1083 353 1101 416 q 1032 233 1065 289 q 952 131 999 177 q 850 52 906 85 q 730 1 794 19 q 597 -17 666 -17 q 465 1 528 -17 q 345 52 401 19 q 243 131 289 85 q 164 233 197 177 q 113 353 131 289 q 95 486 95 417 m 179 486 q 212 323 179 399 q 302 190 245 247 q 435 100 359 133 q 597 67 511 67 q 760 100 684 67 q 893 191 836 134 q 984 323 951 248 q 1017 486 1017 399 q 1002 596 1017 543 q 959 696 987 650 q 893 782 932 743 q 808 847 854 820 q 708 890 762 875 q 597 905 655 905 q 435 871 511 905 q 302 781 359 838 q 212 648 245 724 q 179 486 179 572 z "},"Ⓡ":{"ha":1196,"x_min":95,"x_max":1101,"o":"m 859 180 l 773 180 l 671 352 q 643 393 656 376 q 616 420 630 410 q 586 436 602 431 q 550 441 570 441 l 491 441 l 491 180 l 419 180 l 419 793 l 602 793 q 676 783 642 793 q 735 752 710 773 q 774 701 760 732 q 789 630 789 671 q 779 571 789 598 q 751 524 769 545 q 709 488 734 503 q 652 465 684 473 l 652 463 q 679 448 668 456 q 701 427 690 439 q 721 400 711 415 q 744 365 731 385 l 859 180 m 491 728 l 491 506 l 589 506 q 638 514 616 506 q 678 537 661 522 q 704 575 694 553 q 713 624 713 597 q 682 701 713 673 q 589 728 650 728 l 491 728 m 95 486 q 113 618 95 554 q 164 738 132 682 q 243 840 197 794 q 345 919 290 886 q 465 970 401 952 q 597 989 529 989 q 730 970 666 989 q 850 919 794 952 q 952 840 906 886 q 1032 738 999 794 q 1083 618 1065 682 q 1101 486 1101 554 q 1083 353 1101 416 q 1032 233 1065 289 q 952 131 999 177 q 850 52 906 85 q 730 1 794 19 q 597 -17 666 -17 q 465 1 528 -17 q 345 52 401 19 q 243 131 289 85 q 164 233 197 177 q 113 353 131 289 q 95 486 95 417 m 179 486 q 212 323 179 399 q 302 190 245 247 q 435 100 359 133 q 597 67 511 67 q 760 100 684 67 q 893 191 836 134 q 984 323 951 248 q 1017 486 1017 399 q 1002 596 1017 543 q 959 696 987 650 q 893 782 932 743 q 808 847 854 820 q 708 890 762 875 q 597 905 655 905 q 435 871 511 905 q 302 781 359 838 q 212 648 245 724 q 179 486 179 572 z "},"Ⓢ":{"ha":1196,"x_min":95,"x_max":1101,"o":"m 416 205 l 416 290 q 451 267 431 277 q 494 249 471 256 q 539 238 517 242 q 581 235 562 235 q 680 259 647 235 q 713 330 713 283 q 702 373 713 355 q 672 407 691 391 q 626 436 652 422 q 570 465 600 450 q 510 498 538 481 q 461 535 482 515 q 429 580 441 555 q 417 640 417 606 q 436 712 417 682 q 484 764 454 743 q 552 794 514 784 q 630 804 591 804 q 762 781 721 804 l 762 701 q 623 739 708 739 q 576 733 600 739 q 534 718 553 728 q 504 689 515 707 q 492 646 492 671 q 501 606 492 623 q 527 574 510 589 q 569 547 545 560 q 625 518 593 534 q 688 484 659 502 q 740 444 718 466 q 775 396 762 422 q 788 335 788 369 q 770 258 788 290 q 722 208 752 227 q 653 179 692 188 q 570 170 614 170 q 534 173 555 170 q 490 179 513 175 q 448 191 468 184 q 416 205 429 197 m 95 486 q 113 618 95 554 q 164 738 132 682 q 243 840 197 794 q 345 919 290 886 q 465 970 401 952 q 597 989 529 989 q 730 970 666 989 q 850 919 794 952 q 952 840 906 886 q 1032 738 999 794 q 1083 618 1065 682 q 1101 486 1101 554 q 1083 353 1101 416 q 1032 233 1065 289 q 952 131 999 177 q 850 52 906 85 q 730 1 794 19 q 597 -17 666 -17 q 465 1 528 -17 q 345 52 401 19 q 243 131 289 85 q 164 233 197 177 q 113 353 131 289 q 95 486 95 417 m 179 486 q 212 323 179 399 q 302 190 245 247 q 435 100 359 133 q 597 67 511 67 q 760 100 684 67 q 893 191 836 134 q 984 323 951 248 q 1017 486 1017 399 q 1002 596 1017 543 q 959 696 987 650 q 893 782 932 743 q 808 847 854 820 q 708 890 762 875 q 597 905 655 905 q 435 871 511 905 q 302 781 359 838 q 212 648 245 724 q 179 486 179 572 z "},"Ⓣ":{"ha":1196,"x_min":95,"x_max":1101,"o":"m 809 728 l 632 728 l 632 180 l 560 180 l 560 728 l 384 728 l 384 793 l 809 793 l 809 728 m 95 486 q 113 618 95 554 q 164 738 132 682 q 243 840 197 794 q 345 919 290 886 q 465 970 401 952 q 597 989 529 989 q 730 970 666 989 q 850 919 794 952 q 952 840 906 886 q 1032 738 999 794 q 1083 618 1065 682 q 1101 486 1101 554 q 1083 353 1101 416 q 1032 233 1065 289 q 952 131 999 177 q 850 52 906 85 q 730 1 794 19 q 597 -17 666 -17 q 465 1 528 -17 q 345 52 401 19 q 243 131 289 85 q 164 233 197 177 q 113 353 131 289 q 95 486 95 417 m 179 486 q 212 323 179 399 q 302 190 245 247 q 435 100 359 133 q 597 67 511 67 q 760 100 684 67 q 893 191 836 134 q 984 323 951 248 q 1017 486 1017 399 q 1002 596 1017 543 q 959 696 987 650 q 893 782 932 743 q 808 847 854 820 q 708 890 762 875 q 597 905 655 905 q 435 871 511 905 q 302 781 359 838 q 212 648 245 724 q 179 486 179 572 z "},"Ⓤ":{"ha":1196,"x_min":95,"x_max":1101,"o":"m 830 428 q 597 170 830 170 q 374 418 374 170 l 374 793 l 446 793 l 446 423 q 605 235 446 235 q 758 416 758 235 l 758 793 l 830 793 l 830 428 m 95 486 q 113 618 95 554 q 164 738 132 682 q 243 840 197 794 q 345 919 290 886 q 465 970 401 952 q 597 989 529 989 q 730 970 666 989 q 850 919 794 952 q 952 840 906 886 q 1032 738 999 794 q 1083 618 1065 682 q 1101 486 1101 554 q 1083 353 1101 416 q 1032 233 1065 289 q 952 131 999 177 q 850 52 906 85 q 730 1 794 19 q 597 -17 666 -17 q 465 1 528 -17 q 345 52 401 19 q 243 131 289 85 q 164 233 197 177 q 113 353 131 289 q 95 486 95 417 m 179 486 q 212 323 179 399 q 302 190 245 247 q 435 100 359 133 q 597 67 511 67 q 760 100 684 67 q 893 191 836 134 q 984 323 951 248 q 1017 486 1017 399 q 1002 596 1017 543 q 959 696 987 650 q 893 782 932 743 q 808 847 854 820 q 708 890 762 875 q 597 905 655 905 q 435 871 511 905 q 302 781 359 838 q 212 648 245 724 q 179 486 179 572 z "},"Ⓥ":{"ha":1196,"x_min":95,"x_max":1101,"o":"m 862 793 l 635 180 l 556 180 l 334 793 l 414 793 l 583 307 q 596 253 591 283 l 597 253 q 612 308 601 279 l 785 793 l 862 793 m 95 486 q 113 618 95 554 q 164 738 132 682 q 243 840 197 794 q 345 919 290 886 q 465 970 401 952 q 597 989 529 989 q 730 970 666 989 q 850 919 794 952 q 952 840 906 886 q 1032 738 999 794 q 1083 618 1065 682 q 1101 486 1101 554 q 1083 353 1101 416 q 1032 233 1065 289 q 952 131 999 177 q 850 52 906 85 q 730 1 794 19 q 597 -17 666 -17 q 465 1 528 -17 q 345 52 401 19 q 243 131 289 85 q 164 233 197 177 q 113 353 131 289 q 95 486 95 417 m 179 486 q 212 323 179 399 q 302 190 245 247 q 435 100 359 133 q 597 67 511 67 q 760 100 684 67 q 893 191 836 134 q 984 323 951 248 q 1017 486 1017 399 q 1002 596 1017 543 q 959 696 987 650 q 893 782 932 743 q 808 847 854 820 q 708 890 762 875 q 597 905 655 905 q 435 871 511 905 q 302 781 359 838 q 212 648 245 724 q 179 486 179 572 z "},"Ⓦ":{"ha":1196,"x_min":95,"x_max":1101,"o":"m 874 793 l 783 180 l 685 180 l 603 670 l 518 180 l 421 180 l 323 793 l 402 793 l 468 275 l 565 793 l 647 793 l 734 276 l 797 793 l 874 793 m 95 486 q 113 618 95 554 q 164 738 132 682 q 243 840 197 794 q 345 919 290 886 q 465 970 401 952 q 597 989 529 989 q 730 970 666 989 q 850 919 794 952 q 952 840 906 886 q 1032 738 999 794 q 1083 618 1065 682 q 1101 486 1101 554 q 1083 353 1101 416 q 1032 233 1065 289 q 952 131 999 177 q 850 52 906 85 q 730 1 794 19 q 597 -17 666 -17 q 465 1 528 -17 q 345 52 401 19 q 243 131 289 85 q 164 233 197 177 q 113 353 131 289 q 95 486 95 417 m 179 486 q 212 323 179 399 q 302 190 245 247 q 435 100 359 133 q 597 67 511 67 q 760 100 684 67 q 893 191 836 134 q 984 323 951 248 q 1017 486 1017 399 q 1002 596 1017 543 q 959 696 987 650 q 893 782 932 743 q 808 847 854 820 q 708 890 762 875 q 597 905 655 905 q 435 871 511 905 q 302 781 359 838 q 212 648 245 724 q 179 486 179 572 z "},"Ⓧ":{"ha":1196,"x_min":95,"x_max":1101,"o":"m 842 180 l 755 180 l 614 415 q 600 446 608 426 l 598 446 q 583 415 593 435 l 438 180 l 350 180 l 555 488 l 366 793 l 454 793 l 580 578 q 602 535 592 556 l 603 535 q 627 579 616 563 l 758 793 l 840 793 l 647 489 l 842 180 m 95 486 q 113 618 95 554 q 164 738 132 682 q 243 840 197 794 q 345 919 290 886 q 465 970 401 952 q 597 989 529 989 q 730 970 666 989 q 850 919 794 952 q 952 840 906 886 q 1032 738 999 794 q 1083 618 1065 682 q 1101 486 1101 554 q 1083 353 1101 416 q 1032 233 1065 289 q 952 131 999 177 q 850 52 906 85 q 730 1 794 19 q 597 -17 666 -17 q 465 1 528 -17 q 345 52 401 19 q 243 131 289 85 q 164 233 197 177 q 113 353 131 289 q 95 486 95 417 m 179 486 q 212 323 179 399 q 302 190 245 247 q 435 100 359 133 q 597 67 511 67 q 760 100 684 67 q 893 191 836 134 q 984 323 951 248 q 1017 486 1017 399 q 1002 596 1017 543 q 959 696 987 650 q 893 782 932 743 q 808 847 854 820 q 708 890 762 875 q 597 905 655 905 q 435 871 511 905 q 302 781 359 838 q 212 648 245 724 q 179 486 179 572 z "},"Ⓨ":{"ha":1196,"x_min":95,"x_max":1101,"o":"m 836 793 l 633 407 l 633 180 l 562 180 l 562 405 l 364 793 l 446 793 l 583 516 q 598 479 586 511 l 600 479 q 616 516 604 493 l 759 793 l 836 793 m 95 486 q 113 618 95 554 q 164 738 132 682 q 243 840 197 794 q 345 919 290 886 q 465 970 401 952 q 597 989 529 989 q 730 970 666 989 q 850 919 794 952 q 952 840 906 886 q 1032 738 999 794 q 1083 618 1065 682 q 1101 486 1101 554 q 1083 353 1101 416 q 1032 233 1065 289 q 952 131 999 177 q 850 52 906 85 q 730 1 794 19 q 597 -17 666 -17 q 465 1 528 -17 q 345 52 401 19 q 243 131 289 85 q 164 233 197 177 q 113 353 131 289 q 95 486 95 417 m 179 486 q 212 323 179 399 q 302 190 245 247 q 435 100 359 133 q 597 67 511 67 q 760 100 684 67 q 893 191 836 134 q 984 323 951 248 q 1017 486 1017 399 q 1002 596 1017 543 q 959 696 987 650 q 893 782 932 743 q 808 847 854 820 q 708 890 762 875 q 597 905 655 905 q 435 871 511 905 q 302 781 359 838 q 212 648 245 724 q 179 486 179 572 z "},"Ⓩ":{"ha":1196,"x_min":95,"x_max":1101,"o":"m 825 776 l 467 245 l 817 245 l 817 180 l 359 180 l 359 201 l 715 728 l 388 728 l 388 793 l 825 793 l 825 776 m 95 486 q 113 618 95 554 q 164 738 132 682 q 243 840 197 794 q 345 919 290 886 q 465 970 401 952 q 597 989 529 989 q 730 970 666 989 q 850 919 794 952 q 952 840 906 886 q 1032 738 999 794 q 1083 618 1065 682 q 1101 486 1101 554 q 1083 353 1101 416 q 1032 233 1065 289 q 952 131 999 177 q 850 52 906 85 q 730 1 794 19 q 597 -17 666 -17 q 465 1 528 -17 q 345 52 401 19 q 243 131 289 85 q 164 233 197 177 q 113 353 131 289 q 95 486 95 417 m 179 486 q 212 323 179 399 q 302 190 245 247 q 435 100 359 133 q 597 67 511 67 q 760 100 684 67 q 893 191 836 134 q 984 323 951 248 q 1017 486 1017 399 q 1002 596 1017 543 q 959 696 987 650 q 893 782 932 743 q 808 847 854 820 q 708 890 762 875 q 597 905 655 905 q 435 871 511 905 q 302 781 359 838 q 212 648 245 724 q 179 486 179 572 z "},"㉄":{"ha":1389,"x_min":110,"x_max":1275,"o":"m 1275 515 q 1254 360 1275 435 q 1194 221 1232 286 q 1103 104 1156 157 q 985 12 1050 51 q 845 -46 920 -26 q 692 -66 770 -66 q 538 -46 612 -66 q 400 13 465 -25 q 282 105 335 52 q 191 222 229 158 q 131 361 153 286 q 110 515 110 435 q 131 668 110 594 q 190 806 152 741 q 281 924 227 870 q 399 1017 334 979 q 538 1076 465 1055 q 692 1097 612 1097 q 845 1076 770 1097 q 985 1017 920 1055 q 1103 926 1050 979 q 1194 808 1156 873 q 1254 669 1232 743 q 1275 515 1275 595 m 1177 515 q 1160 643 1177 581 q 1111 759 1142 705 q 1034 857 1079 813 q 936 933 989 901 q 820 983 882 965 q 692 1000 758 1000 q 504 962 593 1000 q 350 857 415 923 q 245 702 284 791 q 207 515 207 614 q 245 327 207 415 q 350 173 284 239 q 504 68 415 107 q 692 30 593 30 q 820 47 758 30 q 936 96 882 64 q 1035 173 990 128 q 1111 271 1079 218 q 1160 387 1142 325 q 1177 515 1177 448 m 836 266 l 614 266 l 614 219 l 551 219 l 551 475 l 836 475 l 836 266 m 773 328 l 773 412 l 614 412 l 614 328 l 773 328 m 726 851 l 1035 851 l 1035 246 q 964 178 1035 178 l 869 178 l 869 240 l 957 240 q 972 257 972 240 l 972 522 l 726 522 l 726 851 m 595 584 l 595 655 l 412 655 l 412 584 l 595 584 m 595 718 l 595 789 l 412 789 l 412 718 l 595 718 m 350 851 l 658 851 l 658 522 l 412 522 l 412 178 l 350 178 l 350 851 m 972 584 l 972 655 l 789 655 l 789 584 l 972 584 m 972 718 l 972 789 l 789 789 l 789 718 l 972 718 z "},"㉅":{"ha":1389,"x_min":110,"x_max":1275,"o":"m 1275 514 q 1254 359 1275 434 q 1194 221 1232 285 q 1103 103 1156 157 q 985 12 1050 50 q 845 -47 920 -27 q 692 -67 770 -67 q 538 -46 612 -67 q 400 13 465 -26 q 282 104 335 51 q 191 221 229 157 q 131 360 153 286 q 110 514 110 435 q 131 667 110 593 q 190 805 152 741 q 281 924 227 869 q 399 1016 334 978 q 538 1075 465 1054 q 692 1097 612 1097 q 845 1076 770 1097 q 985 1017 920 1055 q 1103 926 1050 979 q 1194 807 1156 873 q 1254 668 1232 742 q 1275 514 1275 594 m 1177 514 q 1160 643 1177 581 q 1111 759 1142 705 q 1034 857 1079 812 q 936 932 989 901 q 820 982 882 964 q 692 1000 758 1000 q 504 961 593 1000 q 350 856 415 922 q 245 702 284 790 q 207 514 207 613 q 245 326 207 414 q 350 172 284 238 q 504 68 415 106 q 692 29 593 29 q 820 46 758 29 q 936 96 882 64 q 1035 172 990 127 q 1111 271 1079 217 q 1160 386 1142 324 q 1177 514 1177 448 m 585 799 q 431 561 523 673 q 509 513 473 536 q 598 662 556 584 l 649 630 q 465 349 572 485 q 618 403 544 373 q 604 433 612 418 l 660 459 q 717 327 693 387 q 770 452 751 385 q 790 591 790 520 l 667 591 l 667 653 l 790 653 l 790 804 l 851 804 l 851 653 l 991 653 l 991 248 q 916 177 991 177 l 826 177 l 826 239 l 916 239 q 928 253 928 239 l 928 591 l 852 591 q 836 465 852 527 q 794 347 819 402 q 738 245 768 291 q 676 172 707 200 l 629 208 q 640 220 633 212 q 652 237 646 228 q 665 254 659 246 q 675 267 670 262 q 643 347 663 300 q 396 273 537 305 l 359 317 q 476 464 419 382 q 371 526 437 490 l 357 564 q 534 831 453 669 l 585 799 z "},"㉆":{"ha":1389,"x_min":110,"x_max":1275,"o":"m 1275 515 q 1254 360 1275 435 q 1194 221 1232 286 q 1103 104 1156 157 q 985 12 1050 51 q 845 -46 920 -26 q 692 -66 770 -66 q 538 -46 612 -66 q 400 13 465 -25 q 282 105 335 52 q 191 222 229 158 q 131 361 153 286 q 110 515 110 435 q 131 668 110 594 q 190 806 152 741 q 281 924 227 870 q 399 1017 334 979 q 538 1076 465 1055 q 692 1097 612 1097 q 845 1076 770 1097 q 985 1017 920 1055 q 1103 926 1050 979 q 1194 808 1156 873 q 1254 669 1232 743 q 1275 515 1275 595 m 1177 515 q 1160 643 1177 581 q 1111 759 1142 705 q 1034 857 1079 813 q 936 933 989 901 q 820 983 882 965 q 692 1000 758 1000 q 504 962 593 1000 q 350 857 415 923 q 245 702 284 791 q 207 515 207 614 q 245 327 207 415 q 350 173 284 239 q 504 68 415 107 q 692 30 593 30 q 820 47 758 30 q 936 96 882 64 q 1035 173 990 128 q 1111 271 1079 218 q 1160 387 1142 325 q 1177 515 1177 448 m 1035 667 l 897 667 q 828 519 867 584 q 738 399 789 454 q 857 309 791 351 q 1005 229 923 267 l 963 190 q 816 268 882 227 q 696 359 751 310 q 577 268 643 310 q 430 190 512 227 l 390 229 q 537 309 471 267 q 656 399 603 351 q 566 519 604 454 q 497 667 527 584 l 344 667 l 344 730 l 658 730 l 658 859 l 721 859 l 721 730 l 1035 730 l 1035 667 m 833 667 l 561 667 q 618 544 585 600 q 696 440 652 489 q 775 544 741 489 q 833 667 808 600 z "},"㉇":{"ha":1389,"x_min":110,"x_max":1275,"o":"m 1275 515 q 1254 361 1275 435 q 1194 222 1232 286 q 1103 105 1156 158 q 985 13 1050 52 q 845 -46 920 -26 q 692 -66 770 -66 q 538 -45 612 -66 q 400 14 465 -24 q 282 105 335 52 q 191 223 229 159 q 131 361 153 287 q 110 515 110 436 q 131 668 110 595 q 190 806 152 742 q 281 925 227 871 q 399 1017 334 979 q 538 1077 465 1055 q 692 1098 612 1098 q 845 1077 770 1098 q 985 1018 920 1056 q 1103 927 1050 980 q 1194 809 1156 874 q 1254 669 1232 743 q 1275 515 1275 595 m 1177 515 q 1160 644 1177 582 q 1111 760 1142 706 q 1034 858 1079 814 q 936 934 989 902 q 820 983 882 966 q 692 1001 758 1001 q 504 962 593 1001 q 350 858 415 924 q 245 703 284 791 q 207 515 207 614 q 245 328 207 416 q 350 174 284 239 q 504 69 415 108 q 692 31 593 31 q 820 48 758 31 q 936 97 882 65 q 1035 174 990 129 q 1111 272 1079 218 q 1160 387 1142 326 q 1177 515 1177 449 m 988 221 l 924 221 l 924 252 l 733 252 l 733 190 q 648 102 733 102 l 501 118 l 501 180 l 648 165 q 669 190 669 165 l 669 252 l 441 252 l 441 314 l 669 314 l 669 377 l 300 377 l 300 440 l 669 440 l 669 503 l 441 503 l 441 566 l 988 566 l 988 440 l 1085 440 l 1085 377 l 988 377 l 988 221 m 389 505 l 330 537 q 437 726 392 623 l 438 725 l 438 726 q 491 724 463 724 l 549 724 q 1018 743 739 724 l 1026 677 q 1002 676 1014 677 q 979 674 991 675 q 1033 625 1004 648 q 1090 581 1061 602 l 1050 527 q 893 669 966 588 q 784 663 833 665 q 694 660 735 661 q 706 638 700 650 q 722 612 713 626 l 664 579 q 643 621 652 601 q 624 658 633 642 q 586 657 604 657 l 514 657 q 479 658 496 657 q 436 580 458 618 q 389 505 414 543 m 399 722 l 340 751 q 427 910 397 838 l 489 885 q 484 874 486 880 q 479 863 482 868 l 507 863 q 579 865 543 863 q 651 873 614 867 l 661 806 q 643 804 651 804 q 628 802 635 803 q 639 785 631 796 q 650 767 646 773 l 593 732 q 573 767 584 748 q 555 796 562 786 l 475 796 q 446 798 465 796 q 424 761 436 780 q 399 722 412 742 m 734 733 l 674 762 q 751 910 723 839 l 813 885 q 809 874 811 880 q 803 863 806 868 l 832 863 q 909 865 869 863 q 991 873 948 867 l 1001 806 q 980 804 991 804 q 952 802 968 803 q 960 789 956 796 q 968 777 964 782 l 912 741 q 894 771 903 757 q 880 796 886 786 l 799 796 q 770 798 787 796 q 750 764 760 780 q 734 733 741 748 m 733 440 l 924 440 l 924 503 l 733 503 l 733 440 m 733 314 l 924 314 l 924 377 l 733 377 l 733 314 z "},"⬚":{"ha":1196,"x_min":112,"x_max":1084,"o":"m 196 888 l 112 888 l 112 972 l 196 972 l 196 888 m 374 888 l 290 888 l 290 972 l 374 972 l 374 888 m 551 888 l 467 888 l 467 972 l 551 972 l 551 888 m 729 888 l 645 888 l 645 972 l 729 972 l 729 888 m 907 888 l 823 888 l 823 972 l 907 972 l 907 888 m 1084 888 l 1000 888 l 1000 972 l 1084 972 l 1084 888 m 196 0 l 112 0 l 112 84 l 196 84 l 196 0 m 374 0 l 290 0 l 290 84 l 374 84 l 374 0 m 551 0 l 467 0 l 467 84 l 551 84 l 551 0 m 729 0 l 645 0 l 645 84 l 729 84 l 729 0 m 907 0 l 823 0 l 823 84 l 907 84 l 907 0 m 1084 0 l 1000 0 l 1000 84 l 1084 84 l 1084 0 m 112 711 l 112 795 l 196 795 l 196 711 l 112 711 m 112 533 l 112 617 l 196 617 l 196 533 l 112 533 m 112 355 l 112 439 l 196 439 l 196 355 l 112 355 m 112 178 l 112 262 l 196 262 l 196 178 l 112 178 m 1000 711 l 1000 795 l 1084 795 l 1084 711 l 1000 711 m 1000 533 l 1000 617 l 1084 617 l 1084 533 l 1000 533 m 1000 355 l 1000 439 l 1084 439 l 1084 355 l 1000 355 m 1000 178 l 1000 262 l 1084 262 l 1084 178 l 1000 178 z "},"⬒":{"ha":1196,"x_min":112,"x_max":1084,"o":"m 112 972 l 1084 972 l 1084 0 l 112 0 l 112 972 m 1000 83 l 1000 486 l 196 486 l 196 83 l 1000 83 z "},"⬓":{"ha":1196,"x_min":112,"x_max":1084,"o":"m 112 972 l 1084 972 l 1084 0 l 112 0 l 112 972 m 1000 463 l 1000 888 l 196 888 l 196 463 l 1000 463 z "},"⬔":{"ha":1196,"x_min":112,"x_max":1084,"o":"m 112 972 l 1084 972 l 1084 0 l 112 0 l 112 972 m 1000 84 l 196 888 l 196 84 l 1000 84 z "},"⬕":{"ha":1196,"x_min":112,"x_max":1084,"o":"m 112 972 l 1084 972 l 1084 0 l 112 0 l 112 972 m 1000 84 l 1000 888 l 196 888 l 1000 84 z "},"⬖":{"ha":1196,"x_min":112,"x_max":1084,"o":"m 112 486 l 597 972 l 1084 486 l 597 0 l 112 486 m 597 129 l 956 485 l 597 844 l 597 129 z "},"⬗":{"ha":1196,"x_min":112,"x_max":1084,"o":"m 112 486 l 597 972 l 1084 486 l 597 0 l 112 486 m 597 129 l 597 844 l 241 485 l 597 129 z "},"⬘":{"ha":1196,"x_min":112,"x_max":1084,"o":"m 112 486 l 597 972 l 1084 486 l 597 0 l 112 486 m 597 129 l 956 485 l 241 485 l 597 129 z "},"⬙":{"ha":1196,"x_min":112,"x_max":1084,"o":"m 112 486 l 597 972 l 1084 486 l 597 0 l 112 486 m 956 485 l 597 844 l 241 485 l 956 485 z "},"⭑":{"ha":749,"x_min":172,"x_max":577,"o":"m 376 712 l 423 563 l 577 563 l 453 473 l 500 325 l 374 417 l 248 325 l 297 473 l 172 563 l 326 563 l 376 712 z "},"⭒":{"ha":749,"x_min":172,"x_max":577,"o":"m 376 712 l 423 563 l 577 563 l 453 473 l 500 325 l 374 417 l 248 325 l 297 473 l 172 563 l 326 563 l 376 712 m 347 535 l 260 535 l 331 484 l 303 399 l 374 453 l 445 399 l 418 484 l 488 535 l 401 535 l 374 618 l 347 535 z "},"☻":{"ha":1389,"x_min":112,"x_max":1273,"o":"m 692 -69 q 538 -48 612 -69 q 399 10 464 -28 q 282 101 335 48 q 191 218 229 154 q 133 357 153 283 q 112 511 112 431 q 133 665 112 591 q 191 804 153 739 q 282 921 229 868 q 399 1013 335 975 q 538 1071 464 1050 q 692 1092 612 1092 q 847 1071 772 1092 q 985 1013 921 1050 q 1103 921 1050 975 q 1194 804 1156 868 q 1252 665 1232 739 q 1273 511 1273 591 q 1252 357 1273 431 q 1194 218 1232 283 q 1103 101 1156 154 q 985 10 1050 48 q 847 -48 921 -28 q 692 -69 772 -69 m 1022 420 q 1014 421 1019 421 q 989 413 1000 421 q 975 392 979 406 q 937 303 963 343 q 873 234 910 263 q 790 189 836 205 q 694 173 744 173 q 597 189 644 173 q 514 235 551 205 q 450 305 477 264 q 412 395 424 346 q 398 416 409 408 q 374 425 388 425 q 366 423 371 425 q 344 410 352 420 q 336 386 336 399 l 336 381 q 336 377 336 379 q 385 262 351 315 q 466 173 418 210 q 571 114 513 135 q 694 94 629 94 q 815 114 758 94 q 921 172 873 134 q 1002 260 968 209 q 1050 374 1036 312 q 1052 385 1052 381 q 1044 407 1052 397 q 1022 420 1036 417 m 419 745 q 369 724 390 745 q 347 663 347 702 l 347 639 q 349 617 347 627 q 358 598 351 606 q 367 604 360 602 q 381 609 373 607 q 400 612 390 611 q 419 613 410 613 q 438 612 428 613 q 457 609 448 611 q 472 604 466 607 q 481 598 479 602 q 488 615 487 606 q 490 635 490 624 l 490 663 q 469 724 490 702 q 419 745 449 745 m 966 745 q 915 724 936 745 q 894 663 894 702 l 894 640 q 895 617 894 627 q 903 598 897 606 q 911 604 905 602 q 927 609 918 607 q 946 612 937 611 q 966 613 956 613 q 985 612 975 613 q 1003 609 995 611 q 1018 604 1012 607 q 1027 598 1025 602 q 1034 614 1033 606 q 1036 633 1036 623 l 1036 663 q 1015 724 1036 702 q 966 745 995 745 z "},"←":{"ha":1198,"x_min":96,"x_max":1061,"o":"m 1061 349 l 328 349 l 520 157 l 367 157 l 96 403 l 367 658 l 520 658 l 328 464 l 1061 464 l 1061 349 z "},"↑":{"ha":656,"x_min":79,"x_max":580,"o":"m 271 -20 l 271 713 l 79 521 l 79 674 l 325 945 l 580 674 l 580 521 l 386 713 l 386 -20 l 271 -20 z "},"→":{"ha":1198,"x_min":136,"x_max":1101,"o":"m 136 465 l 869 465 l 677 657 l 830 657 l 1101 411 l 830 156 l 677 156 l 869 350 l 136 350 l 136 465 z "},"↓":{"ha":656,"x_min":76,"x_max":577,"o":"m 385 944 l 385 210 l 577 403 l 577 250 l 331 -21 l 76 250 l 76 403 l 270 210 l 270 944 l 385 944 z "},"⤶":{"ha":1018,"x_min":0,"x_max":1018,"o":"m 411 -32 l 254 -32 l 0 223 l 254 475 l 411 475 l 214 281 l 553 281 q 690 308 626 281 q 801 384 753 336 q 875 495 848 431 q 903 632 903 559 l 903 983 l 1018 983 l 1018 630 q 1001 507 1018 566 q 955 395 985 447 q 882 301 924 343 q 788 228 840 258 q 677 181 736 198 q 553 164 618 164 l 214 164 l 411 -32 z "},"⤷":{"ha":1018,"x_min":0,"x_max":1018,"o":"m 804 164 l 465 164 q 341 181 400 164 q 230 228 281 198 q 136 301 178 258 q 63 395 94 343 q 17 507 33 447 q 0 630 0 566 l 0 983 l 115 983 l 115 632 q 143 495 115 559 q 217 384 170 431 q 328 308 264 336 q 465 281 392 281 l 804 281 l 607 475 l 764 475 l 1018 223 l 764 -32 l 607 -32 l 804 164 z "},"‍":{"ha":0,"x_min":-149,"x_max":149,"o":"m 24 -277 l -24 -277 l -24 984 l -115 892 l -149 925 l -33 1040 l -149 1154 l -115 1187 l 0 1071 l 115 1187 l 149 1154 l 33 1040 l 149 925 l 115 892 l 24 984 l 24 -277 z "},"☿":{"ha":765,"x_min":43,"x_max":722,"o":"m 179 993 q 195 903 179 944 q 238 831 210 861 q 302 783 265 800 q 382 766 339 766 q 461 783 425 766 q 526 831 498 800 q 570 903 554 861 q 586 993 586 944 l 722 993 q 711 903 722 946 q 682 824 701 861 q 637 756 663 787 q 579 703 611 725 q 637 651 611 680 q 682 587 663 621 q 711 513 701 552 q 722 433 722 474 q 701 317 722 372 q 643 219 680 262 q 556 146 606 176 q 449 105 507 116 l 449 20 l 600 20 l 600 -112 l 449 -112 l 449 -263 l 318 -263 l 318 -112 l 166 -112 l 166 20 l 318 20 l 318 104 q 210 145 260 115 q 122 218 159 175 q 64 317 85 262 q 43 433 43 372 q 54 513 43 474 q 82 587 64 552 q 126 651 100 621 q 184 703 153 680 q 82 825 120 749 q 43 993 43 900 l 179 993 m 179 433 q 195 350 179 388 q 238 285 210 313 q 302 242 265 258 q 382 227 339 227 q 461 242 425 227 q 526 285 498 258 q 570 350 554 313 q 586 433 586 388 q 570 515 586 477 q 526 580 554 553 q 461 623 498 608 q 382 639 425 639 q 302 623 339 639 q 238 580 265 608 q 195 515 210 553 q 179 433 179 477 z "},"♁":{"ha":765,"x_min":43,"x_max":722,"o":"m 600 710 l 449 710 l 449 624 q 556 582 507 612 q 643 509 606 552 q 701 412 680 466 q 722 297 722 357 q 694 168 722 229 q 620 62 667 107 q 512 -10 574 16 q 382 -37 450 -37 q 252 -10 313 -37 q 144 62 190 16 q 71 168 98 107 q 43 297 43 229 q 64 413 43 358 q 122 511 85 468 q 210 584 159 555 q 318 625 260 614 l 318 710 l 166 710 l 166 842 l 318 842 l 318 993 l 449 993 l 449 842 l 600 842 l 600 710 m 179 297 q 195 215 179 252 q 238 150 210 177 q 302 106 265 122 q 382 91 339 91 q 461 106 425 91 q 526 150 498 122 q 570 215 554 177 q 586 297 586 252 q 570 379 586 342 q 526 445 554 417 q 461 488 498 472 q 382 503 425 503 q 302 488 339 503 q 238 445 265 472 q 195 379 210 417 q 179 297 179 342 z "},"⚢":{"ha":1110,"x_min":43,"x_max":1067,"o":"m 945 131 l 794 131 l 794 -20 l 663 -20 l 663 131 l 572 131 l 572 262 l 663 262 l 663 347 q 606 363 635 353 q 554 389 578 374 q 503 364 529 374 q 449 349 476 355 l 449 262 l 539 262 l 539 131 l 449 131 l 449 -20 l 318 -20 l 318 131 l 166 131 l 166 262 l 318 262 l 318 347 q 210 388 260 358 q 122 461 159 418 q 64 559 85 505 q 43 675 43 614 q 71 805 43 744 q 144 911 98 865 q 252 983 190 956 q 382 1009 313 1009 q 472 996 428 1009 q 555 961 516 983 q 637 996 593 983 q 727 1009 680 1009 q 857 983 795 1009 q 965 911 919 956 q 1039 805 1012 865 q 1067 675 1067 744 q 1046 560 1067 614 q 988 462 1025 505 q 902 389 951 418 q 794 348 852 359 l 794 262 l 945 262 l 945 131 m 179 675 q 195 593 179 631 q 238 528 210 555 q 302 485 265 500 q 382 469 339 469 q 452 481 418 469 q 389 675 389 564 q 404 780 389 733 q 452 869 418 827 q 382 882 418 882 q 302 866 339 882 q 238 823 265 850 q 195 758 210 795 q 179 675 179 720 m 722 675 q 705 571 722 619 q 656 481 689 524 q 727 469 689 469 q 807 485 770 469 q 871 528 844 500 q 915 593 899 555 q 931 675 931 631 q 915 758 931 720 q 871 823 899 795 q 807 866 844 850 q 727 882 770 882 q 691 878 709 882 q 657 869 673 875 q 705 779 688 828 q 722 675 722 730 m 504 675 q 517 595 504 632 q 555 528 531 558 q 592 595 578 558 q 606 675 606 632 q 592 755 606 718 q 555 822 578 793 q 517 755 531 793 q 504 675 504 718 z "},"⚣":{"ha":1213,"x_min":43,"x_max":1171,"o":"m 43 545 q 71 674 43 614 q 144 781 98 735 q 252 852 190 826 q 382 879 313 879 q 477 865 431 879 q 564 827 524 851 l 716 979 q 678 979 697 979 l 642 979 l 530 1090 l 900 1084 l 914 1070 l 919 839 q 1035 837 976 838 q 1149 836 1094 837 l 1164 821 l 1171 452 l 1059 564 l 1059 640 l 908 488 q 954 398 937 447 q 971 296 971 350 q 944 167 971 228 q 870 61 916 106 q 762 -11 823 16 q 631 -37 700 -37 q 518 -18 572 -37 q 420 37 464 2 q 346 119 376 71 q 302 221 315 166 q 200 265 247 235 q 118 338 153 295 q 63 433 83 380 q 43 545 43 486 m 179 545 q 188 483 179 513 q 212 429 197 454 q 250 386 228 405 q 298 356 272 368 q 333 452 309 407 q 393 532 357 496 q 475 591 429 567 q 571 625 520 615 q 541 676 559 653 q 497 716 522 700 q 444 742 473 733 q 382 751 414 751 q 302 736 339 751 q 238 693 265 720 q 195 628 210 665 q 179 545 179 590 m 631 90 q 711 106 674 90 q 776 149 748 121 q 820 214 804 176 q 836 296 836 252 q 827 358 836 329 q 802 411 818 387 q 764 454 786 435 q 715 485 742 473 q 678 384 705 431 q 612 301 651 337 q 524 242 573 265 q 443 216 474 220 q 463 178 444 205 q 507 132 481 151 q 565 101 533 112 q 631 90 596 90 m 810 888 l 659 737 q 691 682 679 709 q 712 620 704 654 q 764 603 739 613 q 813 578 789 593 l 966 730 q 928 730 947 730 l 892 730 l 809 812 l 810 888 m 605 521 q 532 500 566 517 q 472 457 498 484 q 429 396 446 431 q 409 320 413 361 q 482 341 448 325 q 542 385 516 358 q 585 446 568 411 q 605 521 601 480 z "},"⚤":{"ha":1213,"x_min":43,"x_max":1171,"o":"m 600 -221 l 449 -221 l 449 -340 l 318 -340 l 318 -221 l 166 -221 l 166 -90 l 318 -90 l 318 -31 q 210 9 260 -20 q 122 82 159 39 q 64 180 85 125 q 43 296 43 235 q 63 407 43 354 q 118 503 83 460 q 200 576 153 545 q 302 620 247 606 q 346 723 315 675 q 420 805 377 770 q 518 859 464 840 q 631 879 572 879 q 726 865 680 879 q 813 827 772 851 l 966 979 q 928 979 947 979 q 892 979 909 979 l 780 1090 l 1149 1084 l 1164 1070 l 1171 701 l 1059 812 l 1059 888 l 908 737 q 954 647 937 696 q 971 545 971 599 q 951 434 971 487 q 897 339 931 382 q 814 266 862 296 q 712 222 767 236 q 677 133 701 174 q 618 58 652 91 q 541 2 584 25 q 449 -31 498 -20 l 449 -90 l 600 -90 l 600 -221 m 836 545 q 820 628 836 590 q 776 693 804 665 q 711 736 748 720 q 631 751 674 751 q 570 742 600 751 q 516 716 541 733 q 473 676 492 699 q 443 624 454 652 q 540 591 494 614 q 621 532 585 567 q 681 452 656 497 q 715 357 705 408 q 764 388 742 369 q 802 430 787 406 q 827 484 818 454 q 836 545 836 513 m 179 296 q 195 214 179 252 q 238 149 210 176 q 302 106 265 121 q 382 90 339 90 q 444 99 414 90 q 498 125 473 109 q 542 165 523 142 q 572 217 560 189 q 474 250 519 226 q 393 309 429 273 q 333 389 357 344 q 298 485 309 433 q 250 455 272 473 q 212 412 228 436 q 188 358 196 387 q 179 296 179 329 m 605 320 q 585 395 601 361 q 542 456 568 430 q 482 499 516 483 q 409 521 448 516 q 429 445 413 480 q 472 384 446 410 q 532 341 498 357 q 605 320 566 324 z "},"⚥":{"ha":964,"x_min":43,"x_max":921,"o":"m 43 487 q 71 616 43 555 q 144 722 98 677 q 252 794 190 768 q 382 821 313 821 q 477 807 431 821 q 564 768 524 793 l 716 921 q 678 920 697 920 l 642 920 l 530 1032 l 900 1026 l 914 1012 l 921 642 l 809 754 l 810 830 l 659 679 q 705 589 688 637 q 722 487 722 541 q 701 371 722 426 q 643 273 680 317 q 556 200 606 230 q 449 159 507 170 l 449 74 l 600 74 l 600 -58 l 449 -58 l 449 -209 l 318 -209 l 318 -58 l 166 -58 l 166 74 l 318 74 l 318 159 q 210 199 260 170 q 122 273 159 229 q 64 371 85 316 q 43 487 43 426 m 179 487 q 195 405 179 442 q 238 339 210 367 q 302 296 265 312 q 382 281 339 281 q 461 296 425 281 q 526 339 498 312 q 570 405 554 367 q 586 487 586 442 q 570 569 586 532 q 526 634 554 607 q 461 677 498 662 q 382 693 425 693 q 302 677 339 693 q 238 634 265 662 q 195 569 210 607 q 179 487 179 532 z "},"⚦":{"ha":964,"x_min":43,"x_max":955,"o":"m 43 297 q 71 426 43 366 q 144 532 98 487 q 252 604 190 578 q 382 631 313 631 q 477 617 431 631 q 564 578 524 603 l 581 595 l 454 722 l 538 806 l 665 680 l 750 765 q 712 764 731 764 l 676 764 l 564 876 l 934 870 l 948 856 l 955 486 l 843 598 l 844 674 l 758 589 l 887 462 l 801 376 l 673 503 l 659 489 q 705 399 688 448 q 722 297 722 351 q 694 168 722 229 q 620 62 667 107 q 512 -10 574 16 q 382 -37 450 -37 q 252 -10 313 -37 q 144 62 190 16 q 71 168 98 107 q 43 297 43 229 m 179 297 q 195 215 179 252 q 238 150 210 177 q 302 106 265 122 q 382 91 339 91 q 461 106 425 91 q 526 150 498 122 q 570 215 554 177 q 586 297 586 252 q 570 379 586 342 q 526 445 554 417 q 461 488 498 472 q 382 503 425 503 q 302 488 339 503 q 238 445 265 472 q 195 379 210 417 q 179 297 179 342 z "},"⚧":{"ha":1075,"x_min":16,"x_max":1057,"o":"m 540 918 l 394 815 q 400 807 397 811 q 409 795 404 803 q 471 814 439 807 q 536 821 503 821 q 603 814 571 821 q 665 795 635 807 q 734 895 701 846 q 806 998 768 943 q 769 991 787 994 q 734 984 751 987 l 604 1075 l 961 1132 l 983 1131 l 1057 758 l 926 849 l 914 922 q 881 875 899 900 q 845 823 863 850 l 809 771 q 775 722 791 745 q 848 616 820 677 q 876 487 876 555 q 855 371 876 426 q 798 273 834 317 q 711 200 761 230 q 604 159 661 170 l 604 74 l 755 74 l 755 -58 l 604 -58 l 604 -209 l 473 -209 l 473 -58 l 321 -58 l 321 74 l 473 74 l 473 159 q 364 199 414 170 q 277 273 314 229 q 219 371 240 316 q 198 487 198 426 q 225 617 198 557 q 299 724 252 678 l 287 741 q 212 688 252 716 q 139 637 172 661 l 68 738 l 217 840 q 191 879 205 857 q 159 925 176 901 q 152 887 155 907 q 146 852 149 868 l 16 760 l 90 1133 l 112 1134 l 469 1077 l 339 986 l 267 1000 q 279 982 271 993 q 294 959 286 971 l 311 935 q 325 915 319 924 q 400 966 360 939 q 473 1017 441 994 l 540 918 m 334 487 q 349 405 334 442 q 392 339 365 367 q 457 296 420 312 q 536 281 494 281 q 616 296 579 281 q 681 339 653 312 q 725 405 709 367 q 741 487 741 442 q 725 569 741 532 q 681 634 709 607 q 616 677 653 662 q 536 693 579 693 q 457 677 494 693 q 392 634 420 662 q 349 569 365 607 q 334 487 334 532 z "},"⚨":{"ha":765,"x_min":43,"x_max":722,"o":"m 43 297 q 64 413 43 358 q 122 511 85 468 q 210 584 159 555 q 318 625 260 614 l 318 656 l 137 656 l 137 775 l 318 775 l 318 875 q 290 847 304 861 l 264 821 l 104 821 l 382 1088 l 657 821 l 499 821 l 446 876 l 446 775 l 626 775 l 626 656 l 446 656 l 446 625 q 554 584 504 614 q 642 511 605 554 q 700 413 679 467 q 722 297 722 358 q 694 168 722 229 q 620 62 667 107 q 512 -10 574 16 q 382 -37 450 -37 q 252 -10 313 -37 q 144 62 190 16 q 71 168 98 107 q 43 297 43 229 m 179 297 q 195 215 179 252 q 238 150 210 177 q 302 106 265 122 q 382 91 339 91 q 461 106 425 91 q 526 150 498 122 q 570 215 554 177 q 586 297 586 252 q 570 379 586 342 q 526 445 554 417 q 461 488 498 472 q 382 503 425 503 q 302 488 339 503 q 238 445 265 472 q 195 379 210 417 q 179 297 179 342 z "},"⚩":{"ha":1172,"x_min":43,"x_max":1171,"o":"m 858 731 l 858 549 l 958 549 q 930 577 944 564 l 904 604 l 904 763 l 1171 486 l 904 210 l 904 368 l 958 421 l 858 421 l 858 241 l 739 241 l 739 421 l 715 421 q 675 314 705 363 q 601 230 645 265 q 501 174 557 194 q 382 153 445 153 q 248 180 310 153 q 141 252 186 206 q 70 358 96 297 q 43 487 43 418 q 71 616 43 555 q 144 722 98 677 q 252 794 190 768 q 382 821 313 821 q 498 800 443 821 q 598 743 554 779 q 673 657 643 707 q 715 549 704 607 l 739 549 l 739 730 l 858 731 m 179 487 q 195 405 179 442 q 238 339 210 367 q 302 296 265 312 q 382 281 339 281 q 461 296 425 281 q 526 339 498 312 q 570 405 554 367 q 586 487 586 442 q 570 569 586 532 q 526 634 554 607 q 461 677 498 662 q 382 693 425 693 q 302 677 339 693 q 238 634 265 662 q 195 569 210 607 q 179 487 179 532 z "},"♃":{"ha":1068,"x_min":64,"x_max":941,"o":"m 64 315 l 334 315 q 417 331 380 315 q 481 374 454 347 q 522 437 507 401 q 536 512 536 473 q 524 585 536 551 q 487 642 511 618 q 431 681 464 667 q 357 694 398 694 q 229 646 275 694 q 177 509 182 598 l 65 509 q 85 616 65 564 q 142 709 104 668 q 234 774 179 749 q 358 799 288 799 q 483 776 428 799 q 575 715 538 753 q 633 628 613 677 q 652 524 652 578 q 629 403 652 456 q 562 315 606 351 l 829 315 l 829 972 l 941 972 l 941 0 l 829 0 l 829 212 l 64 212 l 64 315 z "},"♄":{"ha":743,"x_min":26,"x_max":678,"o":"m 228 815 l 228 579 l 231 579 q 329 678 274 645 q 458 711 384 711 q 558 689 517 711 q 627 632 600 667 q 666 551 653 596 q 678 460 678 506 q 671 391 678 421 q 654 334 665 360 q 632 284 644 308 q 610 237 620 261 q 593 188 600 214 q 586 130 586 162 q 593 65 586 96 q 613 0 600 34 l 496 0 q 479 63 485 31 q 473 138 473 96 q 480 204 473 174 q 497 260 487 234 q 520 309 508 286 q 543 355 532 332 q 560 403 553 378 q 567 455 567 427 q 559 520 567 491 q 534 571 551 550 q 489 605 517 593 q 420 616 460 616 q 343 598 378 616 q 282 548 307 579 q 242 477 256 517 q 228 393 228 437 l 228 0 l 117 0 l 117 815 l 26 815 l 26 905 l 117 905 l 117 1028 l 228 1028 l 228 905 l 454 905 l 454 815 l 228 815 z "},"♅":{"ha":986,"x_min":41,"x_max":945,"o":"m 41 972 l 254 972 l 254 677 l 448 677 l 448 972 l 538 972 l 538 677 l 732 677 l 732 972 l 945 972 l 945 876 l 836 876 l 836 375 l 945 375 l 945 279 l 732 279 l 732 586 l 538 586 l 538 348 q 590 329 564 342 q 637 294 616 316 q 671 242 658 273 q 684 170 684 211 q 670 95 684 130 q 631 36 656 61 q 571 -3 606 11 q 494 -17 536 -17 q 418 -3 452 -17 q 358 36 383 11 q 319 95 333 61 q 306 170 306 130 q 318 241 306 211 q 350 293 330 272 q 395 328 370 315 q 448 349 420 342 l 448 586 l 254 586 l 254 279 l 41 279 l 41 375 l 151 375 l 151 876 l 41 876 l 41 972 m 494 271 q 422 244 450 271 q 394 170 394 216 q 401 128 394 147 q 421 95 408 109 q 452 74 434 81 q 493 66 471 66 q 534 74 515 66 q 566 95 553 81 q 587 128 580 109 q 595 170 595 147 q 587 212 595 193 q 567 244 580 231 q 535 264 553 257 q 494 271 517 271 z "},"♆":{"ha":1145,"x_min":28,"x_max":1116,"o":"m 113 779 l 28 694 l 28 790 l 153 911 l 156 911 l 281 790 l 281 694 l 197 779 l 197 712 q 217 546 197 623 q 278 411 237 469 q 382 320 319 353 q 530 283 445 286 l 530 878 l 447 795 l 447 891 l 572 1011 l 574 1011 l 700 892 l 700 795 l 615 880 l 615 283 q 761 320 699 286 q 864 411 823 353 q 926 546 905 469 q 947 712 947 623 l 947 778 l 863 694 l 863 790 l 988 911 l 991 911 l 1116 790 l 1116 694 l 1031 779 l 1031 712 q 1006 511 1031 604 q 929 351 981 419 q 799 243 878 283 q 615 198 721 203 l 615 90 l 798 90 l 798 -1 l 615 -1 l 615 -119 l 530 -119 l 530 -1 l 347 -1 l 347 90 l 530 90 l 530 198 q 346 243 425 203 q 215 351 267 283 q 138 511 163 419 q 113 712 113 604 l 113 779 z "},"♇":{"ha":778,"x_min":127,"x_max":722,"o":"m 241 416 l 241 103 l 705 103 l 705 0 l 127 0 l 127 972 l 395 972 q 533 955 472 972 q 636 902 594 937 q 700 819 678 868 q 722 705 722 769 q 694 578 722 632 q 617 488 665 524 q 504 434 568 452 q 370 416 440 416 l 241 416 m 241 869 l 241 519 l 361 519 q 541 566 479 519 q 603 699 603 614 q 375 869 603 869 l 241 869 z "},"♲":{"ha":1242,"x_min":64,"x_max":1178,"o":"m 466 654 l 616 913 q 590 936 604 929 q 550 943 576 943 q 527 941 537 943 q 509 932 517 938 q 493 916 500 926 q 476 890 485 905 l 371 715 l 439 722 l 466 654 m 628 943 q 645 929 637 938 q 657 911 652 921 l 877 530 l 837 509 l 967 490 l 1018 612 l 975 587 l 799 895 q 786 913 793 905 q 770 929 779 922 q 749 939 761 935 q 721 943 737 943 l 628 943 m 418 686 l 310 676 l 448 908 q 491 957 467 941 q 549 972 514 972 l 726 972 q 763 969 747 972 q 789 957 778 965 q 810 938 801 949 q 829 911 820 926 l 987 633 l 1062 676 l 1073 656 l 988 453 l 776 483 l 764 504 l 830 542 l 635 880 l 463 584 l 418 686 m 951 391 l 1079 166 q 1131 192 1114 172 q 1147 239 1147 212 q 1143 269 1147 254 q 1131 298 1139 283 l 1054 439 l 1029 380 l 951 391 m 1100 136 q 1075 130 1090 132 q 1042 128 1060 128 l 618 128 l 618 174 l 540 71 l 618 -35 l 618 16 l 972 16 q 999 17 987 16 q 1020 23 1010 18 q 1039 36 1030 28 q 1056 57 1047 43 l 1100 136 m 1013 412 l 1055 507 l 1159 311 q 1174 274 1169 292 q 1178 241 1178 257 q 1175 213 1178 226 q 1166 191 1171 199 l 1080 37 q 1036 -6 1063 6 q 973 -18 1009 -18 l 652 -18 l 652 -104 l 628 -104 l 494 71 l 628 240 l 652 240 l 652 162 l 1044 162 l 891 428 l 1013 412 m 449 128 l 197 128 q 190 90 190 109 q 216 33 190 51 q 286 15 243 15 l 446 15 l 399 72 l 449 128 m 159 113 q 179 170 162 143 l 382 508 l 430 481 l 374 610 l 233 592 l 283 564 l 112 285 q 100 259 104 271 q 96 236 96 248 q 99 216 96 227 q 110 192 102 206 l 159 113 m 440 71 l 507 -18 l 286 -18 q 224 -8 252 -18 q 176 33 195 2 l 81 180 q 64 237 64 207 q 82 300 64 269 l 238 553 l 165 594 l 174 614 l 393 644 l 474 445 l 465 429 l 395 467 l 212 162 l 514 162 l 440 71 z "},"♳":{"ha":1221,"x_min":64,"x_max":1158,"o":"m 664 283 l 583 283 l 583 558 q 566 545 576 551 q 545 533 555 538 q 523 523 534 527 q 505 518 513 519 l 505 585 q 559 608 535 594 q 608 640 584 621 l 664 640 l 664 283 m 618 -134 l 615 -134 l 484 47 l 615 225 l 618 225 l 618 93 l 983 93 q 1045 110 1026 93 q 1065 156 1065 127 q 1057 201 1065 178 q 1027 260 1048 224 l 962 371 l 1041 419 l 1115 292 q 1147 221 1136 256 q 1158 153 1158 186 q 1147 93 1158 121 q 1114 44 1136 65 q 1060 12 1093 24 q 983 0 1027 0 l 617 0 l 618 -134 m 161 642 l 163 646 l 385 667 l 472 465 l 471 463 l 359 529 l 176 214 q 162 185 167 197 q 158 161 158 172 q 181 109 158 124 q 256 93 205 93 l 429 93 l 429 0 l 256 0 q 180 9 215 0 q 119 37 144 18 q 78 85 93 56 q 64 155 64 114 q 72 205 64 178 q 97 262 79 232 l 279 577 l 161 642 m 1066 644 l 1068 641 l 979 435 l 761 456 l 760 460 l 871 526 l 694 826 q 658 876 673 860 q 618 892 642 892 q 575 876 593 892 q 538 827 557 861 l 451 681 l 372 729 l 459 874 q 493 925 477 903 q 528 961 510 947 q 568 982 547 975 q 618 989 590 989 q 665 982 644 989 q 705 960 686 975 q 739 924 723 946 q 773 873 755 903 l 950 574 l 1066 644 z "},"♴":{"ha":1221,"x_min":64,"x_max":1158,"o":"m 509 610 q 557 634 528 627 q 612 642 586 642 q 665 634 643 642 q 702 613 687 627 q 723 580 716 599 q 730 540 730 562 q 708 464 730 496 q 652 414 686 433 q 607 385 624 398 q 590 352 590 371 l 727 352 l 727 283 l 493 283 l 493 301 q 498 348 493 326 q 514 388 503 369 q 543 423 525 406 q 587 455 561 439 q 613 472 602 464 q 632 488 624 479 q 643 506 640 496 q 647 530 647 516 q 645 544 647 536 q 638 559 644 552 q 624 570 633 566 q 598 574 614 574 q 550 562 572 574 q 509 538 527 551 l 509 610 m 618 -134 l 615 -134 l 484 47 l 615 225 l 618 225 l 618 93 l 983 93 q 1045 110 1026 93 q 1065 156 1065 127 q 1057 201 1065 178 q 1027 260 1048 224 l 962 371 l 1041 419 l 1115 292 q 1147 221 1136 256 q 1158 153 1158 186 q 1147 93 1158 121 q 1114 44 1136 65 q 1060 12 1093 24 q 983 0 1027 0 l 617 0 l 618 -134 m 161 642 l 163 646 l 385 667 l 472 465 l 471 463 l 359 529 l 176 214 q 162 185 167 197 q 158 161 158 172 q 181 109 158 124 q 256 93 205 93 l 429 93 l 429 0 l 256 0 q 180 9 215 0 q 119 37 144 18 q 78 85 93 56 q 64 155 64 114 q 72 205 64 178 q 97 262 79 232 l 279 577 l 161 642 m 1066 644 l 1068 641 l 979 435 l 761 456 l 760 460 l 871 526 l 694 826 q 658 876 673 860 q 618 892 642 892 q 575 876 593 892 q 538 827 557 861 l 451 681 l 372 729 l 459 874 q 493 925 477 903 q 528 961 510 947 q 568 982 547 975 q 618 989 590 989 q 665 982 644 989 q 705 960 686 975 q 739 924 723 946 q 773 873 755 903 l 950 574 l 1066 644 z "},"♵":{"ha":1221,"x_min":64,"x_max":1158,"o":"m 618 -134 l 615 -134 l 484 47 l 615 225 l 618 225 l 618 93 l 983 93 q 1045 110 1026 93 q 1065 156 1065 127 q 1057 201 1065 178 q 1027 260 1048 224 l 962 371 l 1041 419 l 1115 292 q 1147 221 1136 256 q 1158 153 1158 186 q 1147 93 1158 121 q 1114 44 1136 65 q 1060 12 1093 24 q 983 0 1027 0 l 617 0 l 618 -134 m 161 642 l 163 646 l 385 667 l 472 465 l 471 463 l 359 529 l 176 214 q 162 185 167 197 q 158 161 158 172 q 181 109 158 124 q 256 93 205 93 l 429 93 l 429 0 l 256 0 q 180 9 215 0 q 119 37 144 18 q 78 85 93 56 q 64 155 64 114 q 72 205 64 178 q 97 262 79 232 l 279 577 l 161 642 m 1066 644 l 1068 641 l 979 435 l 761 456 l 760 460 l 871 526 l 694 826 q 658 876 673 860 q 618 892 642 892 q 575 876 593 892 q 538 827 557 861 l 451 681 l 372 729 l 459 874 q 493 925 477 903 q 528 961 510 947 q 568 982 547 975 q 618 989 590 989 q 665 982 644 989 q 705 960 686 975 q 739 924 723 946 q 773 873 755 903 l 950 574 l 1066 644 m 503 369 q 587 341 543 341 q 631 353 616 341 q 646 385 646 364 q 627 419 646 407 q 574 431 608 431 l 539 431 l 539 496 l 571 496 q 635 538 635 496 q 587 577 635 577 q 516 551 553 577 l 516 621 q 605 641 553 641 q 689 616 659 641 q 720 551 720 591 q 660 466 720 488 q 712 437 694 458 q 730 384 730 415 q 694 306 730 335 q 593 277 657 277 q 503 294 536 277 l 503 369 z "},"♶":{"ha":1221,"x_min":64,"x_max":1158,"o":"m 704 635 l 704 416 l 746 416 l 746 357 l 704 357 l 704 283 l 629 283 l 629 357 l 476 357 l 476 414 q 562 523 524 467 q 626 635 600 580 l 704 635 m 629 416 l 629 536 q 609 503 621 520 q 586 469 598 485 q 563 438 574 452 q 543 416 551 425 l 629 416 m 1066 644 l 1068 641 l 979 435 l 761 456 l 760 460 l 871 526 l 694 826 q 658 876 673 860 q 618 892 642 892 q 575 876 593 892 q 538 827 557 861 l 451 681 l 372 729 l 459 874 q 493 925 477 903 q 528 961 510 947 q 568 982 547 975 q 618 989 590 989 q 665 982 644 989 q 705 960 686 975 q 739 924 723 946 q 773 873 755 903 l 950 574 l 1066 644 m 161 642 l 163 646 l 385 667 l 472 465 l 471 463 l 359 529 l 176 214 q 162 185 167 197 q 158 161 158 172 q 181 109 158 124 q 256 93 205 93 l 429 93 l 429 0 l 256 0 q 180 9 215 0 q 119 37 144 18 q 78 85 93 56 q 64 155 64 114 q 72 205 64 178 q 97 262 79 232 l 279 577 l 161 642 m 618 -134 l 615 -134 l 484 47 l 615 225 l 618 225 l 618 93 l 983 93 q 1045 110 1026 93 q 1065 156 1065 127 q 1057 201 1065 178 q 1027 260 1048 224 l 962 371 l 1041 419 l 1115 292 q 1147 221 1136 256 q 1158 153 1158 186 q 1147 93 1158 121 q 1114 44 1136 65 q 1060 12 1093 24 q 983 0 1027 0 l 617 0 l 618 -134 z "},"♷":{"ha":1221,"x_min":64,"x_max":1158,"o":"m 618 -134 l 615 -134 l 484 47 l 615 225 l 618 225 l 618 93 l 983 93 q 1045 110 1026 93 q 1065 156 1065 127 q 1057 201 1065 178 q 1027 260 1048 224 l 962 371 l 1041 419 l 1115 292 q 1147 221 1136 256 q 1158 153 1158 186 q 1147 93 1158 121 q 1114 44 1136 65 q 1060 12 1093 24 q 983 0 1027 0 l 617 0 l 618 -134 m 161 642 l 163 646 l 385 667 l 472 465 l 471 463 l 359 529 l 176 214 q 162 185 167 197 q 158 161 158 172 q 181 109 158 124 q 256 93 205 93 l 429 93 l 429 0 l 256 0 q 180 9 215 0 q 119 37 144 18 q 78 85 93 56 q 64 155 64 114 q 72 205 64 178 q 97 262 79 232 l 279 577 l 161 642 m 1066 644 l 1068 641 l 979 435 l 761 456 l 760 460 l 871 526 l 694 826 q 658 876 673 860 q 618 892 642 892 q 575 876 593 892 q 538 827 557 861 l 451 681 l 372 729 l 459 874 q 493 925 477 903 q 528 961 510 947 q 568 982 547 975 q 618 989 590 989 q 665 982 644 989 q 705 960 686 975 q 739 924 723 946 q 773 873 755 903 l 950 574 l 1066 644 m 503 366 q 543 348 523 354 q 582 341 562 341 q 627 355 612 341 q 643 391 643 368 q 626 428 643 416 q 573 440 610 440 q 513 436 547 440 l 529 635 l 711 635 l 711 567 l 589 567 l 583 503 l 586 504 q 598 505 592 505 q 610 505 605 505 q 696 476 665 505 q 727 398 727 448 q 715 347 727 370 q 684 309 703 325 q 641 285 665 293 q 591 277 616 277 q 540 281 559 277 q 503 294 520 286 l 503 366 z "},"♸":{"ha":1221,"x_min":64,"x_max":1158,"o":"m 618 -134 l 615 -134 l 484 47 l 615 225 l 618 225 l 618 93 l 983 93 q 1045 110 1026 93 q 1065 156 1065 127 q 1057 201 1065 178 q 1027 260 1048 224 l 962 371 l 1041 419 l 1115 292 q 1147 221 1136 256 q 1158 153 1158 186 q 1147 93 1158 121 q 1114 44 1136 65 q 1060 12 1093 24 q 983 0 1027 0 l 617 0 l 618 -134 m 161 642 l 163 646 l 385 667 l 472 465 l 471 463 l 359 529 l 176 214 q 162 185 167 197 q 158 161 158 172 q 181 109 158 124 q 256 93 205 93 l 429 93 l 429 0 l 256 0 q 180 9 215 0 q 119 37 144 18 q 78 85 93 56 q 64 155 64 114 q 72 205 64 178 q 97 262 79 232 l 279 577 l 161 642 m 1066 644 l 1068 641 l 979 435 l 761 456 l 760 460 l 871 526 l 694 826 q 658 876 673 860 q 618 892 642 892 q 575 876 593 892 q 538 827 557 861 l 451 681 l 372 729 l 459 874 q 493 925 477 903 q 528 961 510 947 q 568 982 547 975 q 618 989 590 989 q 665 982 644 989 q 705 960 686 975 q 739 924 723 946 q 773 873 755 903 l 950 574 l 1066 644 m 721 559 q 690 572 705 568 q 660 577 675 577 q 603 551 625 577 q 578 481 581 526 q 609 504 592 497 q 648 511 626 511 q 720 481 693 511 q 746 400 746 451 q 736 351 746 374 q 709 312 726 328 q 670 286 692 296 q 623 277 648 277 q 529 320 563 277 q 495 440 495 363 q 505 515 495 479 q 534 579 514 551 q 584 624 554 607 q 655 641 614 641 q 721 631 698 641 l 721 559 m 623 449 q 591 435 602 449 q 579 399 579 420 q 591 358 579 375 q 623 341 604 341 q 654 356 642 341 q 665 395 665 372 q 623 449 665 449 z "},"♹":{"ha":1221,"x_min":64,"x_max":1158,"o":"m 745 596 q 668 448 699 524 q 623 283 637 372 l 536 283 q 553 361 542 324 q 580 432 564 398 q 615 500 595 467 q 658 567 635 533 l 497 567 l 497 635 l 745 635 l 745 596 m 618 -134 l 615 -134 l 484 47 l 615 225 l 618 225 l 618 93 l 983 93 q 1045 110 1026 93 q 1065 156 1065 127 q 1057 201 1065 178 q 1027 260 1048 224 l 962 371 l 1041 419 l 1115 292 q 1147 221 1136 256 q 1158 153 1158 186 q 1147 93 1158 121 q 1114 44 1136 65 q 1060 12 1093 24 q 983 0 1027 0 l 617 0 l 618 -134 m 161 642 l 163 646 l 385 667 l 472 465 l 471 463 l 359 529 l 176 214 q 162 185 167 197 q 158 161 158 172 q 181 109 158 124 q 256 93 205 93 l 429 93 l 429 0 l 256 0 q 180 9 215 0 q 119 37 144 18 q 78 85 93 56 q 64 155 64 114 q 72 205 64 178 q 97 262 79 232 l 279 577 l 161 642 m 1066 644 l 1068 641 l 979 435 l 761 456 l 760 460 l 871 526 l 694 826 q 658 876 673 860 q 618 892 642 892 q 575 876 593 892 q 538 827 557 861 l 451 681 l 372 729 l 459 874 q 493 925 477 903 q 528 961 510 947 q 568 982 547 975 q 618 989 590 989 q 665 982 644 989 q 705 960 686 975 q 739 924 723 946 q 773 873 755 903 l 950 574 l 1066 644 z "},"♺":{"ha":1221,"x_min":64,"x_max":1158,"o":"m 618 -134 l 615 -134 l 484 47 l 615 225 l 618 225 l 618 93 l 983 93 q 1045 110 1026 93 q 1065 156 1065 127 q 1057 201 1065 178 q 1027 260 1048 224 l 962 371 l 1041 419 l 1115 292 q 1147 221 1136 256 q 1158 153 1158 186 q 1147 93 1158 121 q 1114 44 1136 65 q 1060 12 1093 24 q 983 0 1027 0 l 617 0 l 618 -134 m 161 642 l 163 646 l 385 667 l 472 465 l 471 463 l 359 529 l 176 214 q 162 185 167 197 q 158 161 158 172 q 181 109 158 124 q 256 93 205 93 l 429 93 l 429 0 l 256 0 q 180 9 215 0 q 119 37 144 18 q 78 85 93 56 q 64 155 64 114 q 72 205 64 178 q 97 262 79 232 l 279 577 l 161 642 m 1066 644 l 1068 641 l 979 435 l 761 456 l 760 460 l 871 526 l 694 826 q 658 876 673 860 q 618 892 642 892 q 575 876 593 892 q 538 827 557 861 l 451 681 l 372 729 l 459 874 q 493 925 477 903 q 528 961 510 947 q 568 982 547 975 q 618 989 590 989 q 665 982 644 989 q 705 960 686 975 q 739 924 723 946 q 773 873 755 903 l 950 574 l 1066 644 z "},"♼":{"ha":1133,"x_min":64,"x_max":1069,"o":"m 64 486 q 81 620 64 555 q 130 740 98 684 q 207 842 161 795 q 307 920 252 888 q 428 971 363 953 q 566 989 494 989 q 704 971 639 989 q 825 920 770 953 q 926 842 881 888 q 1003 740 971 795 q 1052 620 1035 684 q 1069 486 1069 555 q 1052 353 1069 417 q 1003 233 1035 288 q 926 131 971 177 q 825 52 881 85 q 704 2 770 20 q 566 -16 639 -16 q 428 2 494 -16 q 307 52 363 20 q 207 131 252 85 q 130 233 161 177 q 81 353 98 288 q 64 486 64 417 m 936 347 q 907 320 923 326 q 877 315 892 315 l 574 315 l 574 363 l 496 267 l 574 168 l 574 216 l 818 216 q 852 221 838 216 q 878 246 866 226 l 936 347 m 549 861 q 570 836 561 853 l 721 576 l 679 552 l 803 533 l 849 651 l 806 625 l 686 836 q 663 862 675 853 q 627 871 650 871 l 515 871 q 549 861 537 869 m 262 235 q 255 252 257 246 q 254 265 254 258 q 257 286 254 277 q 263 301 260 296 l 418 564 l 458 539 l 415 654 l 291 636 l 334 611 l 208 403 q 197 368 197 385 q 207 336 197 353 l 262 235 m 456 625 l 566 814 l 558 829 q 513 857 543 857 q 483 849 495 857 q 458 819 471 841 l 375 678 l 433 685 l 456 625 m 459 266 l 498 315 l 288 315 l 277 296 q 271 280 273 288 q 270 266 270 273 q 287 228 270 240 q 326 216 303 216 l 498 216 l 459 266 m 823 504 l 756 513 l 863 329 l 877 329 q 919 345 906 329 q 932 384 932 361 q 929 408 932 396 q 919 432 925 420 l 845 562 l 823 504 z "},"♽":{"ha":1133,"x_min":64,"x_max":1069,"o":"m 64 486 q 81 620 64 555 q 130 740 98 684 q 207 842 161 795 q 307 920 252 888 q 428 971 363 953 q 566 989 494 989 q 704 971 639 989 q 825 920 770 953 q 926 842 881 888 q 1003 740 971 795 q 1052 620 1035 684 q 1069 486 1069 555 q 1052 353 1069 417 q 1003 233 1035 288 q 926 131 971 177 q 825 52 881 85 q 704 2 770 20 q 566 -16 639 -16 q 428 2 494 -16 q 307 52 363 20 q 207 131 252 85 q 130 233 161 177 q 81 353 98 288 q 64 486 64 417 m 132 486 q 147 369 132 425 q 191 263 163 312 q 260 174 220 214 q 348 105 300 134 q 451 60 396 76 q 566 45 507 45 q 743 79 663 45 q 881 174 823 114 q 969 314 938 234 q 1001 486 1001 395 q 969 658 1001 578 q 881 799 938 739 q 743 893 823 859 q 566 928 663 928 q 398 893 477 928 q 260 799 319 859 q 166 658 201 739 q 132 486 132 578 m 878 246 q 852 221 866 226 q 818 216 838 216 l 574 216 l 574 168 l 496 267 l 574 363 l 574 315 l 877 315 q 907 320 892 315 q 936 347 923 326 l 878 246 m 627 871 q 663 862 650 871 q 686 836 675 853 l 806 625 l 849 651 l 803 533 l 679 552 l 721 576 l 570 836 q 549 861 561 853 q 515 871 537 869 l 627 871 m 207 336 q 197 368 197 353 q 208 403 197 385 l 334 611 l 291 636 l 415 654 l 458 539 l 418 564 l 263 301 q 257 286 260 296 q 254 265 254 277 q 255 252 254 258 q 262 235 257 246 l 207 336 m 433 685 l 375 678 l 458 819 q 483 849 471 841 q 513 857 495 857 q 558 829 543 857 l 566 814 l 456 625 l 433 685 m 498 216 l 326 216 q 287 228 303 216 q 270 266 270 240 q 271 280 270 273 q 277 296 273 288 l 288 315 l 498 315 l 459 266 l 498 216 m 845 562 l 919 432 q 929 408 925 420 q 932 384 932 396 q 919 345 932 361 q 877 329 906 329 l 863 329 l 756 513 l 823 504 l 845 562 z "},"✁":{"ha":1389,"x_min":64,"x_max":1325,"o":"m 558 503 l 277 757 q 230 812 243 786 q 216 871 216 839 q 225 918 216 897 q 249 956 233 940 q 288 980 265 971 q 338 989 310 989 q 411 975 380 989 q 465 935 443 960 q 501 873 488 909 q 521 796 515 838 q 535 705 529 741 q 549 643 542 668 q 568 600 557 617 q 597 567 579 583 l 619 547 l 1187 568 q 1219 570 1211 570 l 1231 570 q 1293 559 1268 570 q 1325 514 1318 548 l 746 453 l 907 339 l 741 339 l 589 433 l 559 428 q 517 414 536 423 q 480 386 499 404 q 437 339 460 368 q 379 267 414 310 q 296 192 338 216 q 204 168 254 168 q 152 176 177 168 q 107 200 127 184 q 76 239 87 216 q 64 293 64 262 q 94 375 64 344 q 183 419 123 406 l 558 503 m 450 677 q 459 718 456 696 q 461 758 461 739 q 455 820 461 789 q 434 877 448 852 q 396 919 420 903 q 339 935 373 935 q 293 917 311 935 q 275 871 275 899 q 284 837 275 852 q 317 800 294 821 l 450 677 m 121 293 q 144 243 121 262 q 204 224 168 224 q 264 240 237 224 q 313 280 291 256 q 350 336 334 305 q 374 395 366 366 l 376 404 l 200 366 q 169 356 183 361 q 143 343 154 351 q 127 322 133 334 q 121 293 121 310 z "},"✃":{"ha":1389,"x_min":64,"x_max":1325,"o":"m 183 553 q 94 597 123 566 q 64 679 64 628 q 76 733 64 709 q 107 772 87 757 q 152 796 127 788 q 204 804 177 804 q 296 780 254 804 q 379 705 338 756 q 437 633 414 662 q 480 586 460 604 q 517 559 499 568 q 559 545 536 549 l 589 539 l 741 633 l 907 633 l 746 519 l 1325 458 q 1313 430 1321 441 q 1293 413 1305 419 q 1265 405 1280 407 q 1231 403 1249 403 l 1219 403 q 1187 404 1211 403 l 619 425 l 597 406 q 568 372 579 389 q 549 330 557 355 q 535 268 542 304 q 521 176 529 231 q 501 99 515 134 q 465 37 488 63 q 411 -3 443 12 q 338 -17 380 -17 q 288 -8 310 -17 q 249 16 265 1 q 225 54 233 32 q 216 102 216 75 q 230 160 216 134 q 277 215 243 186 l 558 469 l 183 553 m 317 172 q 284 136 294 151 q 275 102 275 120 q 293 55 275 73 q 339 37 311 37 q 396 53 373 37 q 434 95 420 69 q 455 152 448 120 q 461 214 461 183 q 459 254 461 233 q 450 294 456 275 l 317 172 m 121 679 q 127 650 121 662 q 143 629 133 637 q 169 616 154 621 q 200 607 183 610 l 376 568 l 374 578 q 350 637 366 606 q 313 692 334 667 q 264 733 291 717 q 204 749 237 749 q 171 744 186 749 q 145 729 156 739 q 127 707 134 720 q 121 679 121 694 z "},"✄":{"ha":1474,"x_min":64,"x_max":1410,"o":"m 171 631 q 90 695 115 659 q 64 785 64 732 q 76 847 64 819 q 109 896 87 876 q 162 928 131 917 q 232 940 193 940 q 303 930 271 940 q 360 900 334 920 q 408 849 387 880 q 449 775 429 818 q 484 696 469 728 q 511 643 498 664 q 535 610 523 623 q 566 590 548 598 l 579 583 l 1234 782 q 1271 791 1257 789 q 1299 793 1285 793 q 1363 773 1335 793 q 1410 701 1390 753 l 827 486 l 1410 271 q 1388 227 1400 245 q 1363 199 1377 210 q 1333 183 1349 188 q 1299 179 1317 179 q 1271 181 1285 179 q 1234 191 1257 183 l 579 389 l 566 382 q 535 361 548 374 q 511 329 523 349 q 484 276 498 308 q 449 197 469 245 q 408 123 429 155 q 360 72 387 92 q 303 42 334 52 q 232 32 271 32 q 162 43 193 32 q 109 76 131 55 q 76 125 87 96 q 64 187 64 153 q 90 277 64 241 q 171 342 115 313 l 454 486 l 171 631 m 528 486 l 187 310 q 121 258 142 287 q 100 187 100 229 q 109 140 100 161 q 135 102 118 118 q 177 77 153 86 q 232 68 201 68 q 291 76 264 68 q 340 103 318 85 q 380 148 361 121 q 415 212 399 175 q 453 296 437 263 q 483 352 469 330 q 512 388 497 374 q 549 414 527 402 l 575 428 l 1243 225 q 1271 218 1257 221 q 1299 215 1285 215 q 1335 223 1320 215 q 1361 252 1350 231 l 722 486 l 1361 721 q 1335 749 1350 742 q 1299 757 1320 757 q 1271 754 1285 757 q 1243 747 1257 751 l 575 545 l 549 558 q 512 584 527 570 q 483 620 497 597 q 453 676 469 642 q 415 760 437 709 q 380 824 399 797 q 340 869 361 852 q 291 896 318 887 q 232 904 264 904 q 177 895 201 904 q 135 870 153 886 q 109 832 118 854 q 100 785 100 810 q 121 714 100 743 q 187 663 142 686 l 528 486 m 231 122 q 177 139 197 122 q 158 187 158 157 q 171 226 158 208 q 216 261 183 244 l 378 345 l 378 335 q 368 263 378 301 q 340 194 359 226 q 295 142 322 163 q 231 122 267 122 m 231 850 q 295 829 267 850 q 340 778 322 809 q 368 709 359 746 q 378 637 378 671 l 378 628 l 216 711 q 171 746 183 728 q 158 785 158 764 q 177 832 158 815 q 231 850 197 850 m 231 814 q 204 806 213 814 q 195 786 195 798 q 203 764 195 774 q 231 743 211 753 l 336 689 q 321 735 331 713 q 299 775 312 758 q 269 803 286 793 q 231 814 252 814 m 231 158 q 269 169 252 158 q 299 197 286 179 q 321 237 312 214 q 336 283 331 260 l 231 229 q 203 209 211 218 q 195 186 195 199 q 204 166 195 174 q 231 158 213 158 z "},"✱":{"ha":1234,"x_min":150,"x_max":1083,"o":"m 707 330 l 707 0 l 526 0 l 526 330 l 240 165 l 150 321 l 436 486 l 150 652 l 240 807 l 526 642 l 526 972 l 707 972 l 707 642 l 993 807 l 1083 652 l 796 486 l 1083 321 l 993 165 l 707 330 z "},"✲":{"ha":1234,"x_min":168,"x_max":1055,"o":"m 521 488 l 168 690 l 214 768 l 567 564 l 521 488 m 214 204 l 168 282 l 521 486 l 567 408 l 214 204 m 657 407 l 657 0 l 567 0 l 567 407 l 657 407 m 567 566 l 567 972 l 657 972 l 657 566 l 567 566 m 701 486 l 1055 282 l 1010 204 l 657 408 l 701 486 m 1010 768 l 1055 690 l 701 488 l 657 564 l 1010 768 z "},"✵":{"ha":1234,"x_min":114,"x_max":1120,"o":"m 619 989 l 703 699 l 971 843 l 974 840 l 828 576 l 1120 489 l 1120 484 l 831 399 l 974 132 l 971 129 l 703 273 l 619 -17 l 614 -17 l 526 273 l 262 129 l 260 132 l 403 399 l 114 484 l 114 489 l 403 576 l 260 840 l 262 843 l 526 699 l 614 989 l 619 989 m 550 647 l 616 488 l 616 888 l 550 647 m 684 325 l 616 485 l 616 85 l 684 325 m 456 553 l 615 488 l 334 770 l 456 553 m 778 419 l 618 485 l 900 203 l 778 419 m 684 647 l 618 488 l 900 770 l 684 647 m 550 325 l 615 485 l 334 203 l 550 325 m 778 553 l 618 486 l 1018 486 l 778 553 m 456 419 l 615 486 l 215 486 l 456 419 z "},"✶":{"ha":1234,"x_min":179,"x_max":1053,"o":"m 182 742 l 530 631 l 614 989 l 619 989 l 699 631 l 1050 742 l 1053 737 l 782 486 l 1053 239 l 1050 235 l 699 342 l 619 -17 l 614 -17 l 532 342 l 182 235 l 179 239 l 450 486 l 179 737 l 182 742 z "},"✷":{"ha":1234,"x_min":129,"x_max":1104,"o":"m 1103 285 l 765 335 l 822 1 l 818 0 l 616 272 l 415 0 l 411 1 l 468 335 l 131 285 l 129 290 l 407 486 l 132 689 l 134 693 l 468 635 l 416 971 l 422 972 l 616 697 l 811 972 l 817 971 l 765 635 l 1100 693 l 1101 689 l 827 486 l 1104 290 l 1103 285 z "},"✸":{"ha":1234,"x_min":129,"x_max":1104,"o":"m 1103 285 l 802 298 l 822 1 l 818 0 l 616 221 l 415 0 l 411 1 l 432 298 l 131 285 l 129 290 l 357 486 l 132 689 l 134 693 l 432 671 l 416 971 l 422 972 l 616 749 l 811 972 l 817 971 l 802 671 l 1100 693 l 1101 689 l 876 486 l 1104 290 l 1103 285 z "},"✹":{"ha":1234,"x_min":57,"x_max":1177,"o":"m 342 983 l 555 729 l 616 1055 l 623 1055 l 681 730 l 895 983 l 899 981 l 787 667 l 1100 779 l 1103 775 l 848 558 l 1177 500 l 1177 494 l 852 435 l 1104 221 l 1101 216 l 787 328 l 901 14 l 896 11 l 681 260 l 623 -64 l 616 -64 l 555 267 l 338 11 l 334 14 l 444 326 l 132 215 l 129 220 l 382 433 l 57 494 l 57 500 l 386 558 l 134 777 l 135 781 l 446 669 l 338 981 l 342 983 z "},"✺":{"ha":1234,"x_min":114,"x_max":1120,"o":"m 637 378 l 646 -17 l 587 -17 l 595 378 l 452 9 l 397 33 l 554 393 l 282 110 l 240 151 l 524 424 l 164 267 l 142 321 l 509 464 l 114 457 l 114 515 l 509 507 l 140 652 l 164 705 l 524 547 l 240 821 l 282 863 l 554 578 l 397 939 l 452 961 l 595 595 l 587 989 l 646 989 l 637 595 l 782 962 l 836 939 l 679 579 l 951 863 l 993 821 l 707 546 l 1069 705 l 1092 652 l 724 507 l 1120 515 l 1120 457 l 724 464 l 1093 321 l 1069 267 l 707 425 l 993 151 l 951 110 l 679 392 l 836 33 l 782 11 l 637 378 z "},"✻":{"ha":1234,"x_min":171,"x_max":1063,"o":"m 604 624 q 585 722 595 681 q 564 796 574 764 q 548 855 555 828 q 542 911 542 882 q 548 942 542 928 q 564 967 553 956 q 587 983 574 977 q 616 989 601 989 q 646 983 632 989 q 670 967 660 977 q 687 942 681 956 q 693 911 693 928 q 686 855 693 882 q 670 796 680 828 q 649 722 661 764 q 629 624 638 681 l 604 624 m 519 486 q 527 526 519 507 q 548 557 534 544 q 578 577 561 570 q 616 585 596 585 q 655 577 637 585 q 686 557 673 570 q 708 526 700 544 q 715 486 715 507 q 708 447 715 465 q 686 416 700 429 q 655 396 673 403 q 616 389 637 389 q 578 396 596 389 q 548 417 561 404 q 527 448 534 430 q 519 486 519 466 m 629 349 q 649 250 638 292 q 670 177 661 209 q 686 117 680 144 q 693 61 693 90 q 687 31 693 45 q 670 6 681 16 q 646 -11 660 -5 q 616 -17 632 -17 q 587 -11 601 -17 q 564 6 574 -5 q 548 31 553 16 q 542 61 542 45 q 548 117 542 90 q 564 177 555 144 q 585 250 574 209 q 604 349 595 292 l 629 349 m 492 545 q 396 576 437 566 q 322 595 355 587 q 263 611 290 603 q 211 633 236 619 q 181 663 191 645 q 171 700 171 680 q 177 729 171 715 q 192 753 182 743 q 216 770 202 764 q 245 777 229 777 q 286 765 267 777 q 332 731 311 751 q 375 687 352 712 q 428 632 398 663 q 504 566 458 602 l 492 545 m 504 407 q 428 340 458 370 q 375 285 398 310 q 332 241 352 260 q 286 207 311 221 q 245 196 266 196 q 218 202 231 196 q 194 218 204 208 q 177 242 183 228 q 171 272 171 256 q 181 310 171 292 q 211 339 191 328 q 263 361 236 353 q 322 377 290 370 q 396 396 355 385 q 492 428 437 407 l 504 407 m 729 566 q 805 632 774 602 q 858 687 835 663 q 901 731 881 712 q 947 765 922 751 q 987 777 966 777 q 1018 770 1004 777 q 1041 753 1031 764 q 1057 729 1051 743 q 1063 700 1063 715 q 1052 663 1063 680 q 1022 633 1042 645 q 970 611 997 619 q 911 595 944 603 q 837 576 878 587 q 742 545 796 566 l 729 566 m 742 428 q 837 396 796 407 q 911 377 878 385 q 970 361 944 370 q 1022 339 997 353 q 1052 310 1042 328 q 1063 272 1063 292 q 1056 242 1063 256 q 1039 218 1050 228 q 1015 202 1029 208 q 987 196 1002 196 q 947 207 967 196 q 901 241 922 221 q 858 285 881 260 q 805 340 835 310 q 729 407 774 370 l 742 428 z "},"✼":{"ha":1234,"x_min":171,"x_max":1063,"o":"m 479 486 q 488 538 479 512 q 406 574 445 562 q 333 595 368 587 q 268 610 298 603 q 211 633 237 618 q 181 663 191 645 q 171 700 171 680 q 177 730 171 716 q 193 754 182 744 q 217 771 203 765 q 248 777 231 777 q 286 765 267 777 q 335 727 313 749 q 381 677 357 704 q 435 624 406 651 q 507 571 465 596 q 546 606 523 593 q 597 624 569 619 q 588 712 597 673 q 569 786 579 751 q 550 850 559 820 q 542 911 542 880 q 548 942 542 928 q 564 967 553 956 q 587 983 574 977 q 616 989 601 989 q 646 983 632 989 q 670 967 660 977 q 687 942 681 956 q 693 911 693 928 q 684 850 693 880 q 665 786 675 820 q 645 712 654 751 q 636 624 636 673 q 687 606 663 619 q 726 572 711 593 q 798 625 768 597 q 852 678 828 652 q 898 727 876 704 q 947 765 920 749 q 986 777 966 777 q 1017 771 1003 777 q 1041 754 1031 765 q 1057 730 1051 744 q 1063 700 1063 716 q 1052 663 1063 680 q 1022 633 1042 645 q 965 610 996 618 q 900 595 935 603 q 827 574 865 587 q 746 538 788 562 q 753 513 750 526 q 755 486 755 500 q 753 459 755 471 q 746 433 750 446 q 827 397 788 410 q 900 377 865 385 q 965 362 935 370 q 1022 339 996 354 q 1052 310 1042 328 q 1063 272 1063 292 q 1041 218 1063 239 q 986 196 1020 196 q 947 207 967 196 q 898 245 920 222 q 852 294 876 269 q 798 348 828 320 q 726 400 768 375 q 686 367 709 379 q 636 350 663 354 q 645 260 636 300 q 665 186 654 220 q 684 122 675 152 q 693 61 693 92 q 687 31 693 45 q 670 6 681 16 q 646 -11 660 -5 q 616 -17 632 -17 q 587 -11 601 -17 q 564 6 574 -5 q 548 31 553 16 q 542 61 542 45 q 550 122 542 92 q 569 186 559 152 q 588 260 579 220 q 597 350 597 300 q 507 400 540 358 q 435 348 465 375 q 381 294 406 320 q 335 245 357 269 q 286 207 313 222 q 248 196 266 196 q 192 218 214 196 q 171 272 171 239 q 181 310 171 292 q 211 339 191 328 q 268 362 237 354 q 333 378 298 370 q 406 398 368 386 q 488 435 445 410 q 479 486 479 458 m 519 486 q 527 448 519 466 q 548 417 534 430 q 578 396 561 404 q 616 389 596 389 q 655 396 637 389 q 686 416 673 403 q 708 447 700 429 q 715 486 715 465 q 708 526 715 507 q 686 557 700 544 q 655 577 673 570 q 616 585 637 585 q 578 577 596 585 q 548 557 561 570 q 527 526 534 544 q 519 486 519 507 z "},"✽":{"ha":1234,"x_min":165,"x_max":1068,"o":"m 510 96 q 516 150 510 125 q 531 200 522 176 q 550 250 540 224 q 571 305 561 275 q 588 371 581 335 q 597 452 595 406 q 532 402 559 427 q 484 355 505 378 q 446 310 463 332 q 413 268 429 288 q 377 231 396 248 q 332 199 357 213 q 269 180 302 180 q 230 189 248 180 q 197 211 211 197 q 174 246 182 226 q 165 290 165 267 q 180 342 165 319 q 225 383 195 366 q 276 406 251 398 q 326 418 300 414 q 379 426 351 422 q 436 436 406 430 q 502 454 467 443 q 576 486 536 466 q 501 518 536 507 q 436 536 467 530 q 379 545 406 542 q 326 553 351 549 q 276 565 300 557 q 225 589 251 573 q 180 630 195 606 q 165 682 165 654 q 174 726 165 706 q 197 761 182 746 q 230 783 211 775 q 269 791 248 791 q 332 774 302 791 q 395 723 370 751 q 446 661 420 694 q 506 593 472 629 q 597 521 541 557 q 588 601 595 566 q 571 666 581 637 q 550 721 561 696 q 531 771 540 746 q 516 821 522 795 q 510 876 510 846 q 517 922 510 901 q 539 958 525 943 q 572 981 553 972 q 616 989 592 989 q 695 958 666 989 q 724 876 724 927 q 718 821 724 846 q 703 771 712 795 q 684 721 694 746 q 663 666 673 696 q 646 601 653 637 q 636 521 638 566 q 701 569 674 545 q 749 616 728 593 q 786 661 770 640 q 820 703 803 683 q 856 741 837 723 q 901 774 876 759 q 964 791 932 791 q 1004 783 985 791 q 1037 761 1023 775 q 1060 726 1051 746 q 1068 682 1068 706 q 1053 630 1068 654 q 1008 589 1038 606 q 957 565 982 573 q 906 553 932 557 q 853 545 881 549 q 796 536 826 542 q 731 518 766 530 q 657 486 697 507 q 731 454 697 466 q 796 436 766 443 q 853 426 826 430 q 906 418 881 422 q 957 406 932 414 q 1008 383 983 398 q 1053 342 1038 366 q 1068 290 1068 319 q 1060 246 1068 267 q 1037 211 1051 226 q 1004 189 1023 197 q 964 180 985 180 q 932 185 948 180 q 901 199 917 189 q 856 231 876 213 q 820 268 837 248 q 786 310 803 288 q 749 355 770 332 q 701 403 728 378 q 636 452 674 427 q 646 371 638 406 q 663 305 653 335 q 683 250 673 275 q 703 200 694 224 q 718 151 712 176 q 724 96 724 125 q 716 50 724 71 q 695 14 709 29 q 661 -9 681 -1 q 616 -17 641 -17 q 572 -9 592 -17 q 539 14 553 -1 q 517 50 525 29 q 510 96 510 71 z "},"✾":{"ha":1234,"x_min":178,"x_max":1055,"o":"m 260 536 q 197 597 217 560 q 178 690 178 633 q 178 713 178 701 q 180 737 179 725 q 252 780 219 766 q 315 794 285 794 q 395 771 354 794 q 451 726 427 751 q 494 672 475 701 q 533 613 514 643 q 576 555 553 583 q 548 622 564 590 q 517 685 532 653 q 492 749 503 716 q 482 821 482 783 q 490 874 482 850 q 513 918 497 898 q 555 956 530 939 q 616 989 581 973 q 720 918 688 958 q 751 821 751 879 q 741 749 751 782 q 715 684 730 715 q 684 621 700 652 q 656 554 667 589 q 700 612 680 582 q 739 671 719 642 q 782 726 758 700 q 839 771 806 751 q 918 794 880 794 q 981 780 949 794 q 1053 737 1014 766 q 1055 713 1054 725 q 1055 690 1055 701 q 1036 597 1055 633 q 974 536 1017 560 q 906 509 941 517 q 837 499 872 502 q 767 495 802 496 q 694 486 731 493 q 767 477 731 479 q 837 473 802 475 q 906 463 872 470 q 974 436 941 455 q 1036 375 1017 412 q 1055 282 1055 338 q 1055 259 1055 271 q 1053 235 1054 248 q 983 193 1014 206 q 921 179 951 179 q 880 184 901 179 q 839 201 859 190 q 781 247 805 220 q 738 303 758 273 q 699 363 718 332 q 654 421 680 393 q 683 353 666 385 q 714 289 699 321 q 741 223 730 257 q 751 151 751 190 q 744 98 751 122 q 720 54 736 74 q 678 16 704 33 q 616 -17 652 -1 q 555 16 581 -1 q 513 54 530 33 q 490 98 497 74 q 482 151 482 122 q 493 223 482 190 q 518 289 503 257 q 549 352 533 320 q 578 419 566 384 q 534 361 553 391 q 495 302 515 331 q 451 247 475 273 q 395 201 428 220 q 354 184 375 190 q 313 179 332 179 q 251 193 282 179 q 180 235 219 206 q 178 259 179 248 q 178 282 178 271 q 197 375 178 338 q 260 436 217 412 q 327 463 292 455 q 396 473 361 470 q 466 477 431 475 q 538 486 502 479 q 466 495 501 493 q 395 499 430 496 q 326 509 360 502 q 260 536 292 517 m 513 821 q 524 750 513 784 q 551 682 536 716 q 582 613 566 648 q 604 536 597 577 l 629 536 q 651 613 636 577 q 682 682 666 648 q 709 750 697 716 q 721 821 721 784 q 697 900 721 869 q 616 957 673 932 q 569 931 589 945 q 537 901 549 917 q 518 865 524 884 q 513 821 513 845 m 958 408 q 891 434 926 427 q 819 444 857 440 q 743 452 782 447 q 665 471 705 456 l 653 450 q 709 392 686 423 q 754 331 732 361 q 799 274 775 301 q 854 229 822 248 q 888 214 872 218 q 921 210 904 210 q 970 219 945 210 q 1025 250 996 229 q 1026 272 1026 264 l 1026 285 q 1010 359 1026 331 q 958 408 994 387 m 275 408 q 223 359 239 387 q 207 285 207 331 l 207 272 q 208 250 207 264 q 313 210 266 210 q 346 214 330 210 q 379 229 361 218 q 434 274 411 248 q 478 331 457 301 q 523 393 500 361 q 579 450 547 424 l 567 471 q 489 452 528 456 q 413 444 450 447 q 341 434 376 440 q 275 408 307 427 m 590 486 q 597 467 590 475 q 616 460 605 460 q 635 467 628 460 q 643 486 643 475 q 635 505 643 498 q 616 513 628 513 q 597 505 605 513 q 590 486 590 498 z "},"✿":{"ha":1234,"x_min":97,"x_max":1136,"o":"m 796 486 q 782 555 796 523 q 743 612 768 588 q 686 651 719 637 q 616 665 654 665 q 547 651 580 665 q 490 612 515 637 q 452 555 466 588 q 437 486 437 523 q 452 416 437 449 q 490 359 466 384 q 547 321 515 335 q 616 307 580 307 q 686 321 654 307 q 743 359 719 335 q 782 416 768 384 q 796 486 796 449 m 616 989 q 698 975 661 989 q 763 937 736 962 q 805 879 790 913 q 821 806 821 846 q 816 759 821 783 q 798 708 811 736 q 868 751 831 738 q 943 765 905 765 q 1017 751 982 765 q 1078 712 1052 738 q 1120 650 1105 687 q 1136 566 1136 613 q 1115 473 1136 510 q 1060 413 1095 435 q 982 380 1026 390 q 893 372 939 371 q 997 292 962 342 q 1032 180 1032 242 q 1019 101 1032 138 q 980 39 1006 65 q 915 -2 954 13 q 823 -17 876 -17 q 731 1 768 -17 q 669 47 693 19 q 633 110 645 75 q 616 179 621 145 q 601 110 613 145 q 564 47 589 75 q 502 1 540 19 q 410 -17 465 -17 q 318 -2 357 -17 q 253 39 279 13 q 214 101 227 65 q 201 180 201 138 q 236 292 201 242 q 340 372 271 342 q 251 380 294 371 q 173 413 207 390 q 118 473 139 435 q 97 566 97 510 q 113 650 97 613 q 155 712 128 687 q 216 751 181 738 q 290 765 251 765 q 366 751 328 765 q 436 708 403 738 q 417 759 422 736 q 412 806 412 783 q 428 879 412 846 q 470 937 443 913 q 535 975 497 962 q 616 989 572 989 z "},"❀":{"ha":1234,"x_min":97,"x_max":1136,"o":"m 616 989 q 698 975 661 989 q 763 937 736 962 q 805 879 790 913 q 821 806 821 846 q 816 759 821 783 q 798 708 811 736 q 868 751 831 738 q 943 765 905 765 q 1017 751 982 765 q 1078 712 1052 738 q 1120 650 1105 687 q 1136 566 1136 613 q 1115 473 1136 510 q 1060 413 1095 435 q 982 380 1026 390 q 893 372 939 371 q 997 292 962 342 q 1032 180 1032 242 q 1019 101 1032 138 q 980 39 1006 65 q 915 -2 954 13 q 823 -17 876 -17 q 731 1 768 -17 q 669 47 693 19 q 633 110 645 75 q 616 179 621 145 q 601 110 613 145 q 564 47 589 75 q 502 1 540 19 q 410 -17 465 -17 q 318 -2 357 -17 q 253 39 279 13 q 214 101 227 65 q 201 180 201 138 q 236 292 201 242 q 340 372 271 342 q 251 380 294 371 q 173 413 207 390 q 118 473 139 435 q 97 566 97 510 q 113 650 97 613 q 155 712 128 687 q 216 751 181 738 q 290 765 251 765 q 366 751 328 765 q 436 708 403 738 q 417 759 422 736 q 412 806 412 783 q 428 879 412 846 q 470 937 443 913 q 535 975 497 962 q 616 989 572 989 m 823 46 q 880 55 854 46 q 927 82 907 64 q 958 126 947 100 q 970 189 970 153 q 962 245 970 216 q 931 301 954 274 q 870 351 909 328 q 770 390 831 374 q 751 367 761 378 q 730 346 742 355 l 850 171 l 822 153 l 704 329 q 669 314 688 319 q 629 307 650 309 q 643 201 632 249 q 677 119 654 153 q 735 65 699 84 q 823 46 771 46 m 410 46 q 498 65 463 46 q 556 119 534 84 q 590 201 579 153 q 604 307 601 249 q 565 314 583 309 q 529 329 546 319 l 411 153 l 383 171 l 503 346 q 481 367 491 355 q 464 390 472 378 q 362 351 401 374 q 302 301 323 328 q 272 245 280 274 q 264 189 264 216 q 275 126 264 153 q 307 82 287 100 q 353 55 326 64 q 410 46 379 46 m 1074 566 q 1062 632 1074 604 q 1032 681 1051 661 q 987 711 1013 701 q 932 721 961 721 q 833 694 883 721 q 742 614 783 667 q 767 583 756 600 q 786 546 779 566 l 961 590 l 970 558 l 794 514 q 796 499 795 505 q 796 486 796 494 q 792 448 796 467 q 781 412 788 429 q 824 405 802 407 q 869 403 846 403 q 945 411 909 403 q 1010 439 982 420 q 1056 490 1039 458 q 1074 566 1074 521 m 160 566 q 177 490 160 521 q 223 439 195 458 q 288 411 252 420 q 364 403 325 403 q 410 405 387 403 q 453 412 432 407 q 437 486 437 447 l 437 499 q 439 514 437 505 l 264 558 l 272 590 l 447 546 q 492 614 462 585 q 401 694 451 667 q 301 721 351 721 q 247 711 272 721 q 202 681 221 701 q 171 632 182 661 q 160 566 160 604 m 616 926 q 546 915 576 926 q 497 885 517 904 q 468 839 477 865 q 458 783 458 813 q 473 708 458 747 q 513 631 487 669 q 553 653 532 644 q 600 664 575 662 l 600 828 l 633 828 l 633 664 q 680 653 659 662 q 721 631 702 644 q 761 708 747 669 q 775 783 775 747 q 766 839 775 813 q 736 885 756 865 q 687 915 717 904 q 616 926 657 926 z "},"❁":{"ha":1234,"x_min":114,"x_max":1120,"o":"m 262 345 q 197 355 224 345 q 151 386 169 366 q 123 431 132 405 q 114 486 114 456 q 123 542 114 516 q 151 587 132 568 q 197 617 169 606 q 262 628 224 628 l 275 628 l 267 636 q 228 691 239 663 q 216 745 216 718 q 228 796 216 772 q 261 842 240 821 q 307 874 282 863 q 358 887 331 886 q 412 875 385 887 q 467 836 439 863 l 475 828 l 475 840 q 486 906 475 878 q 516 953 497 935 q 561 980 535 971 q 616 989 587 989 q 672 980 646 989 q 717 953 698 971 q 747 906 736 935 q 758 840 758 878 l 758 828 l 766 836 q 821 875 793 863 q 876 887 849 887 q 927 874 903 886 q 972 842 951 863 q 1005 796 994 821 q 1018 745 1017 772 q 1006 691 1018 718 q 966 636 994 663 l 958 628 l 971 628 q 1037 617 1009 628 q 1083 587 1065 606 q 1111 542 1101 568 q 1120 486 1120 516 q 1111 431 1120 456 q 1083 386 1101 405 q 1037 355 1065 366 q 971 345 1009 345 l 958 345 l 966 336 q 1006 281 994 309 q 1018 227 1018 254 q 1005 176 1017 201 q 972 131 994 151 q 927 98 951 110 q 876 85 903 86 q 821 97 849 85 q 766 136 793 109 l 758 144 l 758 132 q 747 66 758 94 q 717 20 736 38 q 672 -8 698 1 q 616 -17 646 -17 q 561 -8 587 -17 q 516 20 535 1 q 486 66 497 38 q 475 132 475 94 l 475 144 l 467 136 q 412 97 439 109 q 358 85 385 85 q 307 98 331 86 q 261 131 282 110 q 228 176 240 151 q 216 227 216 201 q 228 281 216 254 q 267 336 239 309 l 275 345 l 262 345 m 471 486 q 482 429 471 456 q 513 382 494 402 q 560 352 533 363 q 616 340 587 340 q 673 352 647 340 q 720 382 700 363 q 751 429 739 402 q 762 486 762 456 q 751 544 762 517 q 720 590 739 570 q 673 621 700 610 q 616 632 647 632 q 560 621 587 632 q 513 590 533 610 q 482 544 494 570 q 471 486 471 517 m 922 791 q 945 743 944 770 q 917 686 946 715 q 851 639 892 661 q 762 589 811 617 l 774 570 q 825 592 801 582 q 870 613 849 602 q 910 635 892 623 q 943 661 928 647 q 973 702 964 682 q 982 743 982 723 q 972 782 981 763 q 947 817 964 800 q 912 842 931 833 q 873 851 894 851 q 832 842 853 851 q 791 812 812 833 q 765 780 777 798 q 743 740 753 762 q 722 694 732 719 q 700 643 712 670 l 720 632 q 770 721 748 680 q 817 786 791 761 q 873 814 846 816 q 922 791 901 813 m 922 180 q 873 158 901 159 q 817 186 846 157 q 793 215 804 198 q 770 251 781 231 q 746 294 758 271 q 720 340 734 317 l 700 328 q 722 276 712 300 q 743 231 732 252 q 765 192 753 210 q 791 160 777 174 q 832 131 812 140 q 873 121 853 121 q 912 130 894 121 q 947 155 931 139 q 972 190 964 172 q 982 229 981 209 q 973 270 982 250 q 943 311 964 291 q 910 337 928 326 q 870 359 892 349 q 825 379 849 369 q 774 401 801 389 l 762 382 q 851 332 811 355 q 917 286 892 310 q 945 230 946 257 q 922 180 944 202 m 311 791 q 360 814 333 813 q 416 786 387 816 q 463 721 441 761 q 513 632 485 680 l 532 643 q 510 694 519 670 q 490 740 500 719 q 468 780 479 762 q 441 812 456 798 q 400 842 421 833 q 360 851 380 851 q 321 842 340 851 q 286 817 302 833 q 261 782 270 800 q 252 743 252 763 q 261 702 252 723 q 290 661 270 682 q 322 635 304 647 q 361 613 340 623 q 407 592 382 602 q 458 570 431 582 l 471 589 q 424 615 447 603 q 382 639 401 627 q 346 663 362 651 q 317 686 329 674 q 289 743 288 715 q 311 791 290 770 m 616 954 q 575 947 594 954 q 541 926 555 940 q 518 890 526 911 q 510 840 510 869 q 527 756 510 800 q 564 657 543 712 l 586 663 q 559 760 572 715 q 546 840 546 804 q 566 900 546 881 q 616 918 586 918 q 667 900 647 918 q 688 840 688 881 q 684 803 688 823 q 674 760 680 783 q 661 713 668 738 q 647 663 654 689 l 669 657 q 689 709 680 684 q 707 755 699 733 q 719 799 715 778 q 724 840 724 820 q 715 890 724 869 q 692 926 707 911 q 659 947 678 940 q 616 954 639 954 m 1048 486 q 1030 435 1048 456 q 971 415 1012 415 q 891 428 935 415 q 793 456 846 441 l 787 433 q 840 413 815 423 q 886 396 864 404 q 930 384 909 388 q 971 379 951 379 q 1021 388 1000 379 q 1056 410 1042 396 q 1077 444 1070 425 q 1084 486 1084 464 q 1077 528 1084 509 q 1056 562 1070 547 q 1021 585 1042 576 q 971 593 1000 593 q 887 576 930 593 q 787 539 843 560 l 793 517 q 891 544 846 530 q 971 557 935 557 q 1030 536 1011 557 q 1048 486 1048 516 m 311 180 q 289 230 290 202 q 317 286 288 257 q 381 332 340 310 q 471 382 422 355 l 458 401 q 407 379 431 389 q 361 359 382 369 q 322 337 340 349 q 290 311 304 326 q 261 270 270 291 q 252 229 252 250 q 261 190 252 209 q 286 155 270 172 q 321 130 302 139 q 360 121 340 121 q 400 131 380 121 q 441 160 421 140 q 468 192 456 174 q 490 231 479 210 q 510 276 500 252 q 532 328 519 300 l 513 340 q 463 251 485 292 q 416 186 441 210 q 360 158 387 157 q 311 180 333 159 m 184 486 q 203 537 184 517 q 262 557 222 557 q 341 544 297 557 q 439 517 386 530 l 444 539 q 347 576 390 560 q 262 593 303 593 q 213 585 234 593 q 177 562 191 576 q 156 528 163 547 q 149 486 149 509 q 156 444 149 464 q 177 410 163 425 q 213 388 191 396 q 262 379 234 379 q 303 384 283 379 q 346 396 324 388 q 392 413 368 404 q 444 433 416 423 l 439 456 q 341 428 386 441 q 262 415 297 415 q 203 435 222 415 q 184 486 184 456 m 616 18 q 659 25 639 18 q 692 47 678 33 q 715 82 707 61 q 724 132 724 104 q 719 173 724 153 q 707 215 715 193 q 689 262 699 237 q 669 314 680 286 l 647 309 q 674 211 661 255 q 688 132 688 167 q 667 73 688 92 q 616 54 647 54 q 566 73 586 54 q 546 132 546 92 q 559 211 546 167 q 586 309 572 255 l 564 314 q 527 216 543 260 q 510 132 510 172 q 518 82 510 104 q 541 47 526 61 q 575 25 555 33 q 616 18 594 18 z "},"❂":{"ha":1234,"x_min":113,"x_max":1120,"o":"m 113 486 q 131 620 113 555 q 181 739 149 684 q 260 841 214 795 q 361 920 306 887 q 481 971 417 953 q 615 989 546 989 q 749 971 684 989 q 869 920 813 953 q 972 841 926 887 q 1051 739 1018 795 q 1102 620 1084 684 q 1120 486 1120 555 q 1102 352 1120 416 q 1051 232 1084 288 q 972 130 1018 176 q 869 52 926 84 q 749 1 813 19 q 615 -17 684 -17 q 481 1 546 -17 q 361 52 417 19 q 260 130 306 84 q 181 232 214 176 q 131 352 149 288 q 113 486 113 416 m 492 236 q 419 290 451 257 q 366 363 387 322 l 285 155 l 492 236 m 366 608 q 419 683 387 650 q 492 734 451 715 l 285 817 l 366 608 m 864 363 q 812 290 844 322 q 737 236 779 257 l 946 155 l 864 363 m 737 734 q 812 683 779 715 q 864 608 844 650 l 946 817 l 737 734 m 526 749 q 569 760 547 756 q 615 764 591 764 q 704 749 661 764 l 615 954 l 526 749 m 704 222 q 661 212 683 215 q 615 208 638 208 q 569 212 591 208 q 526 222 547 215 l 615 18 l 704 222 m 878 575 q 893 486 893 532 q 878 397 893 440 l 1083 486 l 878 575 m 338 486 q 341 532 338 509 q 351 575 344 554 l 147 486 l 351 397 q 338 486 338 437 m 859 486 q 839 580 859 536 q 787 657 820 625 q 710 710 754 690 q 615 729 665 729 q 521 710 565 729 q 444 657 477 690 q 392 580 411 625 q 372 486 372 536 q 392 392 372 436 q 444 314 411 347 q 521 262 477 281 q 615 243 565 243 q 710 262 665 243 q 787 314 754 281 q 839 392 820 347 q 859 486 859 436 z "},"❃":{"ha":1234,"x_min":178,"x_max":1055,"o":"m 260 536 q 197 597 217 560 q 178 690 178 633 q 178 713 178 701 q 180 737 179 725 q 252 780 219 766 q 315 794 285 794 q 395 771 354 794 q 451 726 427 751 q 494 672 475 701 q 533 613 514 643 q 576 555 553 583 q 548 622 564 590 q 517 685 532 653 q 492 749 503 716 q 482 821 482 783 q 490 874 482 850 q 513 918 497 898 q 555 956 530 939 q 616 989 581 973 q 720 918 688 958 q 751 821 751 879 q 741 749 751 782 q 715 684 730 715 q 684 621 700 652 q 656 554 667 589 q 700 612 680 582 q 739 671 719 642 q 782 726 758 700 q 839 771 806 751 q 918 794 880 794 q 981 780 949 794 q 1053 737 1014 766 q 1055 713 1054 725 q 1055 690 1055 701 q 1036 597 1055 633 q 974 536 1017 560 q 906 509 941 517 q 837 499 872 502 q 767 495 802 496 q 694 486 731 493 q 767 477 731 479 q 837 473 802 475 q 906 463 872 470 q 974 436 941 455 q 1036 375 1017 412 q 1055 282 1055 338 q 1055 259 1055 271 q 1053 235 1054 248 q 983 193 1014 206 q 921 179 951 179 q 880 184 901 179 q 839 201 859 190 q 781 247 805 220 q 738 303 758 273 q 699 363 718 332 q 654 421 680 393 q 683 353 666 385 q 714 289 699 321 q 741 223 730 257 q 751 151 751 190 q 744 98 751 122 q 720 54 736 74 q 678 16 704 33 q 616 -17 652 -1 q 555 16 581 -1 q 513 54 530 33 q 490 98 497 74 q 482 151 482 122 q 493 223 482 190 q 518 289 503 257 q 549 352 533 320 q 578 419 566 384 q 534 361 553 391 q 495 302 515 331 q 451 247 475 273 q 395 201 428 220 q 354 184 375 190 q 313 179 332 179 q 251 193 282 179 q 180 235 219 206 q 178 259 179 248 q 178 282 178 271 q 197 375 178 338 q 260 436 217 412 q 327 463 292 455 q 396 473 361 470 q 466 477 431 475 q 538 486 502 479 q 466 495 501 493 q 395 499 430 496 q 326 509 360 502 q 260 536 292 517 m 616 16 q 665 42 645 28 q 697 72 684 56 q 715 108 709 88 q 721 151 721 127 q 708 224 721 189 q 680 294 696 259 q 649 366 664 329 q 628 447 633 404 l 616 447 l 616 16 m 1025 721 q 970 752 996 743 q 921 762 945 762 q 888 758 904 762 q 854 743 872 753 q 797 696 821 724 q 751 636 773 668 q 704 573 728 605 q 644 514 679 541 l 650 505 l 1025 721 m 513 821 q 525 748 513 783 q 553 678 537 713 q 584 606 568 643 q 606 526 600 569 l 616 526 l 616 957 q 569 931 589 945 q 537 901 549 917 q 518 865 524 884 q 513 821 513 845 m 958 408 q 889 434 926 427 q 814 444 852 441 q 736 453 776 448 q 656 475 696 458 l 650 467 l 1025 250 q 1026 272 1026 264 l 1026 285 q 1010 359 1026 331 q 958 408 994 387 m 208 721 q 207 699 207 706 l 207 686 q 223 613 207 642 q 275 564 239 585 q 344 538 308 545 q 418 527 380 531 q 496 518 456 524 q 576 496 536 513 l 582 505 l 208 721 m 208 250 q 313 210 266 210 q 346 214 330 210 q 379 229 361 218 q 435 276 412 248 q 481 335 459 304 q 528 399 504 367 q 587 457 553 431 l 582 465 l 208 250 z "},"❅":{"ha":1234,"x_min":167,"x_max":1067,"o":"m 196 210 l 167 260 l 396 387 l 231 486 l 396 585 l 167 713 l 196 762 l 419 628 l 419 835 l 591 739 l 587 989 l 646 989 l 642 739 l 814 835 l 814 628 l 1038 762 l 1067 713 l 838 585 l 1003 486 l 838 387 l 1067 260 l 1038 210 l 814 345 l 814 138 l 642 233 l 646 -17 l 587 -17 l 591 233 l 419 138 l 419 345 l 196 210 m 454 607 l 596 521 l 591 700 l 454 777 l 454 607 m 779 366 l 637 452 l 642 272 l 779 196 l 779 366 m 454 196 l 591 272 l 596 452 l 454 366 l 454 196 m 779 777 l 642 700 l 637 521 l 779 607 l 779 777 m 294 486 l 429 406 l 574 486 l 429 567 l 294 486 m 660 486 l 804 406 l 939 486 l 804 567 l 660 486 z "},"❆":{"ha":1234,"x_min":149,"x_max":1084,"o":"m 1067 260 l 1038 210 l 926 273 l 968 149 l 890 121 l 818 336 l 642 443 l 646 237 l 796 66 l 733 12 l 646 111 l 646 -17 l 587 -17 l 587 111 l 500 12 l 437 66 l 587 237 l 591 443 l 415 336 l 343 121 l 265 149 l 307 273 l 196 210 l 167 260 l 278 323 l 149 350 l 164 432 l 386 387 l 567 486 l 386 585 l 164 541 l 149 623 l 278 648 l 167 713 l 196 762 l 307 699 l 265 823 l 343 851 l 415 636 l 591 529 l 587 734 l 437 905 l 500 960 l 587 861 l 587 989 l 646 989 l 646 861 l 733 960 l 796 905 l 646 734 l 642 529 l 818 636 l 890 851 l 968 823 l 926 699 l 1038 762 l 1067 713 l 956 648 l 1084 623 l 1069 541 l 847 585 l 667 486 l 847 387 l 1069 432 l 1084 350 l 956 323 l 1067 260 z "},"❈":{"ha":1234,"x_min":114,"x_max":1120,"o":"m 714 876 q 710 827 714 852 q 697 773 707 802 q 673 706 688 743 q 633 619 657 669 l 600 619 q 561 706 576 669 q 536 773 545 743 q 523 827 527 802 q 519 876 519 852 q 544 957 519 926 q 616 989 568 989 q 690 957 666 989 q 714 876 714 926 m 519 486 q 527 526 519 507 q 548 557 534 544 q 578 577 561 570 q 616 585 596 585 q 655 577 637 585 q 686 557 673 570 q 708 526 700 544 q 715 486 715 507 q 708 447 715 465 q 686 416 700 429 q 655 396 673 403 q 616 389 637 389 q 578 396 596 389 q 548 417 561 404 q 527 448 534 430 q 519 486 519 466 m 1023 854 l 728 568 l 699 597 l 983 893 l 1023 854 m 210 118 l 505 404 l 534 375 l 250 79 l 210 118 m 250 893 l 534 597 l 505 568 l 210 854 l 250 893 m 983 79 l 699 375 l 728 404 l 1023 118 l 983 79 m 714 96 q 690 15 714 47 q 616 -17 666 -17 q 544 15 568 -17 q 519 96 519 47 q 523 145 519 120 q 536 199 527 170 q 561 266 545 229 q 600 353 576 303 l 633 353 q 673 266 657 303 q 697 199 688 229 q 710 145 707 170 q 714 96 714 120 m 227 583 q 276 580 251 583 q 330 567 300 576 q 397 543 359 558 q 484 503 434 527 l 484 469 q 397 430 434 446 q 330 405 359 414 q 276 392 300 396 q 227 389 251 389 q 146 413 178 389 q 114 486 114 437 q 146 559 114 535 q 227 583 178 583 m 1007 583 q 1088 559 1056 583 q 1120 486 1120 535 q 1088 413 1120 437 q 1007 389 1056 389 q 958 392 983 389 q 903 405 933 396 q 837 430 873 414 q 750 469 800 446 l 750 503 q 837 543 800 527 q 903 567 873 558 q 958 580 933 576 q 1007 583 983 583 z "},"❉":{"ha":1234,"x_min":114,"x_max":1120,"o":"m 1000 200 q 992 160 1000 178 q 971 130 985 142 q 941 109 958 117 q 903 102 923 102 q 864 109 882 102 q 833 130 846 117 q 812 160 820 142 q 804 200 804 178 q 809 231 804 217 q 821 256 813 244 l 636 440 l 636 178 q 692 146 670 172 q 714 82 714 120 q 706 42 714 60 q 685 11 699 24 q 654 -9 672 -2 q 616 -17 637 -17 q 578 -9 596 -17 q 548 11 561 -2 q 527 42 534 24 q 519 82 519 60 q 542 146 519 120 q 597 178 564 172 l 597 440 l 412 256 q 425 231 420 244 q 429 200 429 217 q 421 160 429 178 q 400 130 414 142 q 369 109 387 117 q 330 102 351 102 q 292 109 310 102 q 261 130 275 117 q 241 160 248 142 q 233 200 233 178 q 241 239 233 221 q 261 270 248 257 q 292 290 275 283 q 330 297 310 297 q 385 282 361 297 l 571 467 l 307 467 q 295 435 304 450 q 274 410 286 420 q 245 393 261 399 q 211 387 229 387 q 173 395 191 387 q 142 415 155 402 q 121 447 129 429 q 114 486 114 465 q 121 526 114 507 q 142 557 129 544 q 173 577 155 570 q 211 585 191 585 q 274 562 247 585 q 307 505 300 540 l 571 505 l 385 690 q 359 679 373 683 q 330 675 345 675 q 292 682 310 675 q 261 702 275 689 q 241 733 248 715 q 233 772 233 751 q 241 812 233 793 q 261 843 248 830 q 292 863 275 856 q 330 871 310 871 q 369 863 351 871 q 400 843 387 856 q 421 812 414 830 q 429 772 429 793 q 425 742 429 755 q 412 717 420 728 l 597 532 l 597 794 q 542 827 564 801 q 519 890 519 852 q 527 930 519 911 q 548 961 534 948 q 578 981 561 974 q 616 989 596 989 q 654 981 637 989 q 685 961 672 974 q 706 930 699 948 q 714 890 714 911 q 692 827 714 852 q 636 794 670 801 l 636 532 l 821 717 q 809 742 813 728 q 804 772 804 755 q 812 812 804 793 q 833 843 820 830 q 864 863 846 856 q 903 871 882 871 q 941 863 923 871 q 971 843 958 856 q 992 812 985 830 q 1000 772 1000 793 q 992 733 1000 751 q 971 702 985 715 q 941 682 958 689 q 903 675 923 675 q 874 679 888 675 q 848 690 860 683 l 663 505 l 926 505 q 938 537 929 522 q 960 562 947 551 q 988 579 972 573 q 1022 585 1004 585 q 1060 577 1042 585 q 1091 557 1078 570 q 1112 526 1104 544 q 1120 486 1120 507 q 1112 447 1120 465 q 1091 415 1104 429 q 1060 395 1078 402 q 1022 387 1042 387 q 988 393 1004 387 q 960 410 972 399 q 938 435 947 420 q 926 467 929 450 l 663 467 l 848 282 q 903 297 873 297 q 941 290 923 297 q 971 270 958 283 q 992 239 985 257 q 1000 200 1000 221 z "},"❊":{"ha":1234,"x_min":114,"x_max":1120,"o":"m 519 486 q 527 526 519 507 q 548 557 534 544 q 578 577 561 570 q 616 585 596 585 q 654 577 637 585 q 685 557 672 570 q 706 526 699 544 q 714 486 714 507 q 706 447 714 465 q 685 415 699 429 q 654 395 672 402 q 616 387 637 387 q 578 395 596 387 q 548 415 561 402 q 527 447 534 429 q 519 486 519 465 m 672 930 q 669 873 672 903 q 659 809 665 844 q 645 728 653 773 q 629 624 637 683 l 604 624 q 588 728 596 683 q 574 809 581 773 q 565 873 568 844 q 561 930 561 903 q 576 973 561 958 q 616 989 591 989 q 657 973 642 989 q 672 930 672 958 m 1061 431 q 1004 434 1033 431 q 939 444 975 438 q 859 457 903 450 q 754 473 814 465 l 754 498 q 859 514 814 507 q 939 528 903 522 q 1004 538 975 534 q 1061 542 1033 542 q 1104 527 1088 542 q 1120 486 1120 511 q 1104 446 1120 461 q 1061 431 1088 431 m 172 431 q 130 446 145 431 q 114 486 114 461 q 130 527 114 511 q 172 542 145 542 q 230 538 201 542 q 295 528 259 534 q 375 514 330 522 q 479 498 420 507 l 479 473 q 375 457 420 465 q 295 444 330 450 q 230 434 259 438 q 172 431 201 431 m 672 41 q 657 -1 672 14 q 616 -17 642 -17 q 576 -1 591 -17 q 561 41 561 14 q 565 99 561 70 q 574 164 568 128 q 588 244 581 199 q 604 349 596 290 l 629 349 q 645 244 637 290 q 659 164 653 199 q 669 99 665 128 q 672 41 672 70 m 892 132 q 854 176 872 153 q 815 229 836 199 q 768 295 794 258 q 705 380 741 332 l 722 397 q 807 335 770 361 q 874 288 844 309 q 927 249 904 267 q 971 211 951 231 q 985 192 981 201 q 990 170 990 182 q 986 149 990 159 q 974 131 981 139 q 956 118 966 123 q 933 113 945 113 q 892 132 910 113 m 342 840 q 380 797 361 820 q 419 744 398 773 q 466 677 439 714 q 528 591 492 640 l 511 575 q 426 637 463 611 q 359 684 389 663 q 306 723 330 705 q 262 761 283 741 q 248 780 253 770 q 243 803 243 790 q 247 823 243 813 q 259 842 252 833 q 277 855 267 850 q 300 860 288 860 q 322 855 313 860 q 342 840 332 850 m 892 840 q 911 855 901 850 q 933 860 921 860 q 956 855 945 860 q 974 842 966 850 q 986 823 981 833 q 990 803 990 813 q 985 780 990 790 q 971 761 981 770 q 927 723 951 741 q 874 684 904 705 q 807 637 844 663 q 722 575 770 611 l 705 591 q 768 677 741 640 q 815 744 794 714 q 854 797 836 773 q 892 840 872 820 m 342 132 q 322 118 332 123 q 300 113 313 113 q 277 118 288 113 q 259 131 267 123 q 247 149 252 139 q 243 170 243 159 q 248 192 243 182 q 262 211 253 201 q 306 249 283 231 q 359 288 330 267 q 426 335 389 309 q 511 397 463 361 l 528 380 q 466 295 492 332 q 419 229 439 258 q 380 176 398 199 q 342 132 361 153 z "},"❋":{"ha":1234,"x_min":114,"x_max":1120,"o":"m 1042 410 q 968 418 1006 410 q 885 436 930 426 q 786 455 840 446 q 665 467 732 465 q 758 389 713 420 q 841 332 802 357 q 913 286 880 307 q 971 239 946 264 q 988 213 983 227 q 994 183 994 200 q 988 155 994 168 q 972 131 983 141 q 948 115 962 121 q 918 109 935 109 q 889 114 903 109 q 863 132 875 119 q 817 189 838 157 q 771 261 796 222 q 714 345 747 300 q 636 439 682 390 q 647 318 638 372 q 666 219 656 264 q 684 135 676 174 q 692 61 692 97 q 686 31 692 45 q 670 6 680 16 q 646 -11 660 -5 q 616 -17 632 -17 q 587 -11 601 -17 q 564 6 574 -5 q 548 31 553 16 q 542 61 542 45 q 550 135 542 97 q 567 219 557 174 q 586 318 577 264 q 597 439 595 372 q 519 345 551 390 q 462 261 487 300 q 416 189 437 222 q 371 132 395 157 q 345 114 358 119 q 315 109 331 109 q 284 115 298 109 q 260 131 271 121 q 244 155 250 141 q 239 183 239 168 q 245 213 239 200 q 262 239 251 227 q 320 286 288 264 q 392 332 353 307 q 475 389 431 357 q 568 467 519 420 q 447 455 501 465 q 348 436 393 446 q 265 418 303 426 q 192 410 227 410 q 161 416 175 410 q 136 432 146 422 q 120 457 125 443 q 114 486 114 471 q 120 516 114 502 q 136 540 125 530 q 161 556 146 550 q 192 562 175 562 q 265 554 227 562 q 348 536 303 546 q 447 516 393 526 q 568 505 501 507 q 475 584 519 552 q 392 641 431 616 q 320 686 353 665 q 262 733 288 707 q 245 759 251 746 q 239 789 239 772 q 244 818 239 804 q 260 842 250 831 q 284 858 271 852 q 315 864 298 864 q 345 859 331 864 q 371 840 358 853 q 416 783 395 816 q 462 711 437 751 q 519 627 487 672 q 597 533 551 582 q 586 654 595 600 q 567 753 577 709 q 550 837 557 798 q 542 911 542 875 q 548 942 542 928 q 564 967 553 956 q 587 983 574 977 q 616 989 601 989 q 670 967 648 989 q 692 911 692 945 q 684 837 692 875 q 666 753 676 798 q 647 654 656 709 q 636 533 638 600 q 714 627 682 582 q 771 711 747 672 q 817 783 796 751 q 863 840 838 816 q 889 859 875 853 q 918 864 903 864 q 948 858 935 864 q 972 842 962 852 q 988 818 983 831 q 994 789 994 804 q 988 759 994 772 q 971 733 983 746 q 913 686 946 707 q 841 641 880 665 q 758 584 802 616 q 665 505 713 552 q 786 516 732 507 q 885 536 840 526 q 968 554 930 546 q 1042 562 1006 562 q 1073 556 1059 562 q 1098 540 1087 550 q 1114 516 1108 530 q 1120 486 1120 502 q 1114 457 1120 471 q 1098 432 1108 443 q 1073 416 1087 422 q 1042 410 1059 410 z "},"☏":{"ha":1389,"x_min":70,"x_max":1323,"o":"m 1033 489 q 1033 498 1033 494 q 1031 509 1032 503 q 1126 455 1082 487 q 1204 377 1171 424 q 1257 268 1238 331 q 1276 118 1276 204 l 1276 25 q 1269 -9 1276 7 q 1250 -38 1262 -26 q 1221 -58 1238 -51 q 1186 -65 1205 -65 l 209 -65 q 173 -58 190 -65 q 143 -39 156 -51 q 123 -10 130 -26 q 115 25 115 6 l 115 118 q 135 271 115 207 q 188 380 155 334 q 266 456 222 425 q 361 509 311 486 l 359 489 q 386 358 359 419 q 458 251 412 296 q 565 178 504 205 q 696 152 627 152 q 826 178 765 152 q 933 251 888 205 q 1006 358 979 296 q 1033 489 1033 419 m 1323 699 q 1318 671 1323 684 q 1302 648 1312 658 q 1280 633 1293 638 q 1253 627 1267 627 l 1001 627 q 950 707 981 671 q 880 770 920 743 q 794 811 841 796 q 696 825 747 825 q 598 811 645 825 q 513 770 552 796 q 442 707 473 744 q 391 627 411 671 l 140 627 q 113 633 126 627 q 91 648 100 638 q 75 671 81 658 q 70 699 70 684 l 70 720 q 101 842 70 790 q 183 929 132 893 q 300 988 234 965 q 435 1023 366 1010 q 572 1041 505 1036 q 696 1046 640 1046 q 960 1023 843 1046 q 1157 957 1076 1000 q 1280 854 1238 915 q 1323 720 1323 794 l 1323 699 m 170 25 q 181 0 170 10 q 209 -11 193 -11 l 1186 -11 q 1212 0 1201 -11 q 1222 25 1222 10 l 1222 77 q 1222 105 1222 96 q 1221 117 1221 115 q 1221 119 1221 119 q 1208 229 1220 182 q 1178 313 1196 277 q 1135 374 1159 349 q 1084 417 1110 399 q 1040 293 1074 351 q 954 192 1006 235 q 836 123 902 149 q 696 98 770 98 q 557 124 623 98 q 439 195 491 151 q 353 296 387 239 q 309 417 319 354 q 255 373 280 398 q 211 313 229 349 q 181 230 192 278 q 170 118 170 182 l 170 25 m 1269 720 q 1230 832 1269 782 q 1117 918 1191 882 q 937 972 1043 953 q 696 991 831 991 q 583 988 645 991 q 457 973 521 984 q 334 943 394 962 q 227 894 274 924 q 152 821 180 864 q 124 720 124 779 l 124 699 q 129 686 124 691 q 140 682 134 682 l 357 682 q 418 762 382 726 q 497 825 454 799 q 591 865 541 851 q 696 880 641 880 q 802 865 751 880 q 895 825 852 851 q 974 762 939 799 q 1034 682 1009 726 l 1253 682 q 1264 686 1260 682 q 1269 699 1269 691 l 1269 720 m 475 489 q 493 574 475 534 q 540 644 510 614 q 610 691 570 674 q 696 709 650 709 q 782 691 741 709 q 852 644 823 674 q 900 574 882 614 q 918 489 918 534 q 900 403 918 443 q 852 333 882 363 q 782 286 823 303 q 696 269 741 269 q 610 286 650 269 q 540 333 570 303 q 493 403 510 363 q 475 489 475 443 m 530 489 q 543 424 530 454 q 578 371 555 394 q 631 336 601 349 q 696 323 661 323 q 761 336 730 323 q 814 371 791 349 q 850 424 837 394 q 863 489 863 454 q 850 554 863 524 q 814 606 837 584 q 761 642 791 629 q 696 654 730 654 q 631 642 661 654 q 578 606 601 629 q 543 554 555 584 q 530 489 530 524 z "},"⛇":{"ha":1389,"x_min":13,"x_max":1371,"o":"m 627 821 q 614 852 627 839 q 583 866 601 866 q 552 852 564 866 q 539 821 539 839 q 552 788 539 802 q 583 774 564 774 q 614 788 601 774 q 627 821 627 802 m 758 433 q 739 482 758 463 q 692 501 720 501 q 646 482 665 501 q 627 433 627 463 q 632 407 627 419 q 646 386 637 395 q 666 371 654 376 q 692 366 678 366 q 718 371 705 366 q 739 386 730 376 q 753 407 748 395 q 758 433 758 419 m 758 207 q 753 233 758 221 q 739 255 748 245 q 718 269 730 264 q 692 274 705 274 q 646 255 665 274 q 627 207 627 235 q 646 158 627 177 q 692 138 665 138 q 739 158 720 138 q 758 207 758 177 m 846 821 q 833 852 846 839 q 802 866 820 866 q 771 852 783 866 q 758 821 758 839 q 771 788 758 802 q 802 774 783 774 q 833 788 820 774 q 846 821 846 802 m 692 639 q 737 643 718 639 q 769 651 756 646 q 788 661 781 656 q 796 668 794 666 q 802 683 802 675 q 796 699 802 690 q 781 707 790 707 q 766 701 772 707 l 762 698 q 749 692 758 695 q 726 687 740 689 q 692 684 712 684 q 638 691 654 684 q 620 701 623 699 l 619 701 q 604 707 613 707 q 589 701 595 707 q 583 684 583 693 q 589 668 583 674 q 597 661 591 666 q 616 651 604 656 q 647 643 628 646 q 692 639 665 639 m 1337 661 q 1361 651 1352 661 q 1371 627 1371 640 q 1361 604 1371 612 q 1337 596 1352 596 l 1257 596 l 1098 427 q 1127 336 1117 383 q 1138 236 1138 288 q 1122 114 1138 172 q 1077 4 1106 55 q 1008 -90 1048 -47 q 918 -161 967 -132 q 811 -208 868 -191 q 692 -224 753 -224 q 573 -208 630 -224 q 467 -161 517 -191 q 377 -90 418 -132 q 307 4 336 -47 q 262 114 278 55 q 246 236 246 172 q 256 336 246 288 q 286 427 267 383 l 126 596 l 46 596 q 23 604 33 596 q 13 627 13 612 q 23 651 13 640 q 46 661 33 661 l 123 661 l 123 740 q 133 765 123 755 q 157 774 142 774 q 180 765 170 774 q 190 740 190 755 l 190 656 l 331 508 q 361 546 346 528 q 394 580 376 564 q 355 671 370 622 q 341 772 341 720 q 347 844 341 809 q 365 913 353 880 l 320 913 q 291 925 302 913 q 279 956 279 937 q 291 987 279 975 q 320 1000 302 1000 l 410 1000 l 410 1183 q 423 1216 410 1203 q 454 1229 435 1229 l 930 1229 q 962 1216 950 1229 q 974 1183 974 1203 l 974 1000 l 1063 1000 q 1094 987 1081 1000 q 1106 956 1106 975 q 1094 925 1106 937 q 1063 913 1081 913 l 1021 913 q 1038 844 1032 879 q 1044 772 1044 809 q 1030 671 1044 720 q 991 580 1016 622 q 1023 546 1008 564 q 1053 508 1038 528 l 1196 656 l 1196 740 q 1206 765 1196 755 q 1229 774 1215 774 q 1252 765 1242 774 q 1262 740 1262 755 l 1262 661 l 1337 661 m 152 1225 q 148 1205 152 1215 q 137 1188 144 1196 q 121 1177 130 1181 q 100 1173 111 1173 q 81 1177 90 1173 q 65 1188 72 1181 q 55 1205 58 1196 q 51 1225 51 1215 q 65 1263 51 1249 q 100 1278 79 1278 q 137 1263 122 1278 q 152 1225 152 1249 m 114 926 q 110 906 114 916 q 99 889 106 897 q 83 878 92 882 q 62 874 73 874 q 43 878 52 874 q 27 889 34 882 q 17 906 20 897 q 13 926 13 916 q 27 964 13 949 q 62 979 41 979 q 99 964 84 979 q 114 926 114 949 m 364 1286 q 360 1266 364 1276 q 350 1250 357 1257 q 333 1238 342 1242 q 313 1234 323 1234 q 293 1238 302 1234 q 277 1250 284 1242 q 267 1266 271 1257 q 263 1286 263 1276 q 277 1324 263 1310 q 313 1339 292 1339 q 349 1324 334 1339 q 364 1286 364 1310 m 263 1066 q 259 1046 263 1055 q 249 1029 256 1036 q 232 1018 241 1022 q 212 1014 222 1014 q 192 1018 201 1014 q 176 1029 183 1022 q 166 1046 170 1036 q 162 1066 162 1055 q 176 1104 162 1089 q 212 1119 191 1119 q 248 1104 233 1119 q 263 1066 263 1089 m 1232 1225 q 1247 1263 1232 1249 q 1284 1278 1262 1278 q 1319 1263 1305 1278 q 1333 1225 1333 1249 q 1330 1205 1333 1215 q 1319 1188 1326 1196 q 1303 1177 1312 1181 q 1284 1173 1294 1173 q 1263 1177 1273 1173 q 1247 1188 1254 1181 q 1236 1205 1240 1196 q 1232 1225 1232 1215 m 1270 926 q 1285 964 1270 949 q 1322 979 1300 979 q 1357 964 1343 979 q 1371 926 1371 949 q 1368 906 1371 916 q 1357 889 1364 897 q 1341 878 1350 882 q 1322 874 1332 874 q 1301 878 1311 874 q 1285 889 1292 882 q 1274 906 1278 897 q 1270 926 1270 916 m 1020 1286 q 1035 1324 1020 1310 q 1072 1339 1050 1339 q 1107 1324 1093 1339 q 1121 1286 1121 1310 q 1117 1266 1121 1276 q 1107 1250 1114 1257 q 1091 1238 1100 1242 q 1072 1234 1082 1234 q 1051 1238 1061 1234 q 1035 1250 1042 1242 q 1024 1266 1027 1257 q 1020 1286 1020 1276 m 1121 1066 q 1136 1104 1121 1089 q 1173 1119 1151 1119 q 1208 1104 1194 1119 q 1222 1066 1222 1089 q 1218 1046 1222 1055 q 1208 1029 1215 1036 q 1192 1018 1201 1022 q 1173 1014 1183 1014 q 1152 1018 1162 1014 q 1136 1029 1143 1022 q 1125 1046 1128 1036 q 1121 1066 1121 1055 z "},"↚":{"ha":1198,"x_min":96,"x_max":1061,"o":"m 1012 658 l 909 464 l 1061 464 l 1061 349 l 848 349 l 746 157 l 618 157 l 720 349 l 328 349 l 520 157 l 367 157 l 96 403 l 367 658 l 520 658 l 328 464 l 781 464 l 883 658 l 1012 658 z "},"↛":{"ha":1198,"x_min":136,"x_max":1101,"o":"m 136 465 l 348 465 l 450 658 l 579 658 l 476 465 l 869 465 l 677 657 l 830 657 l 1101 411 l 830 156 l 677 156 l 869 350 l 416 350 l 313 157 l 185 157 l 288 350 l 136 350 l 136 465 z "},"↜":{"ha":1198,"x_min":55,"x_max":1166,"o":"m 638 509 q 702 566 674 545 q 753 597 730 587 q 796 612 776 608 q 836 615 816 615 q 882 609 859 615 q 928 588 904 603 q 982 549 953 574 q 1048 486 1011 524 l 1166 366 l 1065 268 l 962 373 q 920 416 939 397 q 887 448 901 435 q 860 467 872 460 q 836 474 847 474 q 809 468 823 474 q 779 450 795 462 q 743 418 763 437 q 697 374 723 399 q 633 317 661 338 q 583 286 606 296 q 539 271 559 275 q 499 268 519 268 q 454 274 475 268 q 408 295 433 280 q 355 335 384 310 q 287 397 326 360 l 163 517 l 163 270 l 55 378 l 55 732 l 409 732 l 517 624 l 256 624 l 373 510 q 419 465 400 484 q 452 433 437 446 q 478 415 467 420 q 504 409 490 409 q 530 415 517 409 q 558 433 543 421 q 593 465 573 446 q 638 509 612 484 z "},"↝":{"ha":1198,"x_min":33,"x_max":1144,"o":"m 561 509 q 606 465 587 484 q 641 433 626 446 q 669 415 656 421 q 695 409 682 409 q 720 415 708 409 q 747 433 732 420 q 780 465 762 446 q 826 510 799 484 l 943 624 l 682 624 l 790 732 l 1144 732 l 1144 378 l 1036 270 l 1036 517 l 912 397 q 844 335 873 360 q 791 295 815 310 q 745 274 766 280 q 700 268 723 268 q 660 271 680 268 q 616 286 640 275 q 566 317 593 296 q 502 374 538 338 q 456 418 476 399 q 419 450 435 437 q 390 468 403 462 q 363 474 376 474 q 339 467 352 474 q 312 448 327 460 q 279 416 298 435 q 237 373 260 397 l 134 268 l 33 366 l 151 486 q 217 549 188 524 q 271 588 246 574 q 317 609 295 603 q 363 615 339 615 q 403 612 383 615 q 446 597 423 608 q 497 566 469 587 q 561 509 525 545 z "},"↞":{"ha":1198,"x_min":62,"x_max":1095,"o":"m 1095 349 l 655 349 l 848 157 l 694 157 l 483 349 l 294 349 l 486 157 l 333 157 l 62 403 l 333 658 l 486 658 l 294 464 l 488 464 l 694 658 l 848 658 l 655 464 l 1095 464 l 1095 349 z "},"↟":{"ha":656,"x_min":79,"x_max":580,"o":"m 271 -121 l 271 414 l 79 222 l 79 375 l 271 587 l 271 776 l 79 583 l 79 736 l 325 1007 l 580 736 l 580 583 l 386 776 l 386 581 l 580 375 l 580 222 l 386 414 l 386 -121 l 271 -121 z "},"↠":{"ha":1198,"x_min":104,"x_max":1137,"o":"m 104 464 l 544 464 l 351 658 l 505 658 l 710 464 l 905 464 l 713 658 l 866 658 l 1137 403 l 866 157 l 713 157 l 905 349 l 716 349 l 505 157 l 351 157 l 544 349 l 104 349 l 104 464 z "},"↡":{"ha":656,"x_min":79,"x_max":580,"o":"m 386 1006 l 386 471 l 580 664 l 580 511 l 386 304 l 386 110 l 580 302 l 580 149 l 325 -121 l 79 149 l 79 302 l 271 110 l 271 299 l 79 511 l 79 664 l 271 471 l 271 1006 l 386 1006 z "},"↢":{"ha":1198,"x_min":62,"x_max":1137,"o":"m 1137 157 l 984 157 l 783 349 l 294 349 l 486 157 l 333 157 l 62 403 l 333 658 l 486 658 l 294 464 l 788 464 l 984 658 l 1137 658 l 884 403 l 1137 157 z "},"↣":{"ha":1198,"x_min":62,"x_max":1137,"o":"m 315 403 l 62 658 l 215 658 l 410 464 l 905 464 l 713 658 l 866 658 l 1137 403 l 866 157 l 713 157 l 905 349 l 416 349 l 215 157 l 62 157 l 315 403 z "},"↤":{"ha":1198,"x_min":96,"x_max":1061,"o":"m 947 157 l 947 349 l 328 349 l 520 157 l 367 157 l 96 403 l 367 658 l 520 658 l 328 464 l 947 464 l 947 658 l 1061 658 l 1061 157 l 947 157 z "},"↥":{"ha":656,"x_min":77,"x_max":578,"o":"m 77 157 l 270 157 l 270 777 l 77 584 l 77 737 l 323 1008 l 578 737 l 578 584 l 385 777 l 385 157 l 578 157 l 578 43 l 77 43 l 77 157 z "},"↦":{"ha":1198,"x_min":96,"x_max":1061,"o":"m 96 157 l 96 658 l 210 658 l 210 464 l 829 464 l 637 658 l 790 658 l 1061 403 l 790 157 l 637 157 l 829 349 l 210 349 l 210 157 l 96 157 z "},"↧":{"ha":656,"x_min":77,"x_max":578,"o":"m 578 892 l 385 892 l 385 273 l 578 466 l 578 313 l 332 42 l 77 313 l 77 466 l 271 273 l 271 892 l 77 892 l 77 1007 l 578 1007 l 578 892 z "},"↨":{"ha":656,"x_min":77,"x_max":578,"o":"m 578 79 l 326 -192 l 77 79 l 77 232 l 270 40 l 270 774 l 77 581 l 77 734 l 323 1005 l 578 734 l 578 581 l 385 774 l 385 40 l 578 232 l 578 79 m 77 -193 l 578 -193 l 578 -308 l 77 -308 l 77 -193 z "},"↫":{"ha":1198,"x_min":96,"x_max":1112,"o":"m 684 544 q 702 631 684 591 q 750 701 720 671 q 820 746 781 730 q 902 762 859 762 q 987 745 948 762 q 1053 700 1025 728 q 1097 635 1081 672 q 1112 558 1112 598 q 1097 481 1112 519 q 1053 414 1081 444 q 987 367 1025 385 q 902 349 948 349 l 799 349 l 799 157 l 684 157 l 684 349 l 328 349 l 520 157 l 367 157 l 96 403 l 367 658 l 520 658 l 328 464 l 684 464 l 684 544 m 799 464 l 896 464 q 974 489 949 464 q 999 558 999 513 q 902 648 999 648 q 826 623 852 648 q 799 543 799 598 l 799 464 z "},"↬":{"ha":1198,"x_min":96,"x_max":1112,"o":"m 524 157 l 410 157 l 410 349 l 307 349 q 222 367 260 349 q 155 414 183 385 q 112 481 127 444 q 96 558 96 519 q 112 635 96 598 q 155 700 127 672 q 222 745 183 728 q 307 762 260 762 q 389 746 349 762 q 458 701 428 730 q 506 631 488 671 q 524 544 524 591 l 524 464 l 881 464 l 688 658 l 842 658 l 1112 403 l 842 157 l 688 157 l 881 349 l 524 349 l 524 157 m 410 543 q 383 623 410 598 q 307 648 356 648 q 210 558 210 648 q 235 489 210 513 q 313 464 260 464 l 410 464 l 410 543 z "},"↭":{"ha":1198,"x_min":9,"x_max":1190,"o":"m 240 349 l 433 157 l 279 157 l 9 403 l 279 658 l 433 658 l 240 464 l 370 464 q 387 418 380 436 q 400 388 394 399 q 412 372 406 377 q 427 368 418 368 q 440 371 434 368 q 452 384 446 374 q 468 411 459 394 q 490 454 477 427 q 518 504 505 484 q 546 534 532 523 q 571 549 559 545 q 597 553 584 553 q 626 548 612 553 q 653 532 640 544 q 680 501 666 521 q 707 451 693 481 q 729 406 721 422 q 745 381 738 390 q 757 370 751 372 q 770 368 763 368 q 784 373 778 368 q 797 389 790 378 q 810 419 803 401 q 828 464 818 437 l 958 464 l 766 658 l 919 658 l 1190 403 l 919 157 l 766 157 l 958 349 l 872 349 q 843 299 858 319 q 814 268 829 279 q 787 251 800 256 q 764 247 774 247 q 734 252 748 247 q 706 270 720 257 q 677 304 692 283 q 646 359 663 326 q 630 393 636 380 q 619 416 624 407 q 609 428 614 425 q 597 432 604 432 q 586 428 591 432 q 574 413 581 423 q 561 388 568 404 q 543 351 553 373 q 512 300 527 320 q 483 268 497 280 q 454 252 469 256 q 427 247 440 247 q 401 251 413 247 q 375 268 389 256 q 348 299 362 279 q 317 349 334 319 l 240 349 z "},"↮":{"ha":1198,"x_min":9,"x_max":1190,"o":"m 757 658 l 685 464 l 992 464 l 833 658 l 987 658 l 1190 403 l 987 157 l 833 157 l 992 349 l 643 349 l 572 157 l 444 157 l 515 349 l 206 349 l 365 157 l 212 157 l 9 403 l 212 658 l 365 658 l 206 464 l 557 464 l 628 658 l 757 658 z "},"↯":{"ha":947,"x_min":115,"x_max":831,"o":"m 595 140 l 831 277 l 791 129 l 484 -69 l 307 258 l 347 406 l 485 170 l 617 667 l 123 463 l 115 470 l 294 1139 l 404 1110 l 283 654 l 772 854 l 783 843 l 595 140 z "}}}
